<?xml version="1.0" encoding="utf-8"?>
<!-- Generator: Adobe Illustrator 25.1.0, SVG Export Plug-In . SVG Version: 6.00 Build 0)  -->
<svg version="1.1" id="レイヤー_1" xmlns="http://www.w3.org/2000/svg" xmlns:xlink="http://www.w3.org/1999/xlink" x="0px"
	 y="0px" viewBox="0 0 1024 768" style="enable-background:new 0 0 1024 768;" xml:space="preserve">
<style type="text/css">
	.st0{fill:#D6E4ED;}
	.st1{filter:url(#Adobe_OpacityMaskFilter);}
	.st2{filter:url(#Adobe_OpacityMaskFilter_1_);}
	.st3{mask:url(#SVGID_1_);fill:url(#SVGID_2_);}
	.st4{fill:url(#SVGID_3_);}
	.st5{fill:#DCE0DD;}
	.st6{fill:#F4E3DA;}
	.st7{fill:#303030;}
	.st8{fill:#FFFFFF;}
	.st9{fill:#1F1F1F;}
	.st10{fill:#EAEAEA;}
	.st11{fill:#272727;}
	.st12{fill:#D9D9D9;}
	.st13{fill:#E5E5E5;}
	.st14{fill:#996233;}
	.st15{fill:#A08675;}
	.st16{fill:#90A9B3;}
	.st17{fill:#E9EEEA;}
	.st18{fill:#DBDBDB;}
	.st19{fill:#242424;}
	.st20{filter:url(#Adobe_OpacityMaskFilter_2_);}
	.st21{filter:url(#Adobe_OpacityMaskFilter_3_);}
	.st22{mask:url(#SVGID_4_);fill:url(#SVGID_5_);}
	.st23{fill:url(#SVGID_6_);}
	.st24{fill:#9EB2BB;}
	.st25{fill:#F1F1F1;}
	.st26{fill:#E6D6CF;}
	.st27{fill:#676868;}
	.st28{fill:#472A1E;}
	.st29{fill:#BD6A64;}
	.st30{fill:#CCE4EA;}
	.st31{fill:#949494;}
	.st32{fill:#575975;}
	.st33{fill:#F6F6F6;}
	.st34{filter:url(#Adobe_OpacityMaskFilter_4_);}
	.st35{filter:url(#Adobe_OpacityMaskFilter_5_);}
	.st36{mask:url(#SVGID_7_);fill:url(#SVGID_8_);}
	.st37{opacity:0.22;fill:url(#SVGID_9_);}
	.st38{fill:#F2DDB0;}
	.st39{fill:#F5E7D5;}
	.st40{fill:#222321;}
	.st41{fill:#004161;}
	.st42{fill:#BFD4C5;}
	.st43{fill:#3F2E26;}
	.st44{fill:#E2E2E2;}
	.st45{filter:url(#Adobe_OpacityMaskFilter_6_);}
	.st46{filter:url(#Adobe_OpacityMaskFilter_7_);}
	.st47{mask:url(#SVGID_10_);fill:url(#SVGID_11_);}
	.st48{fill:url(#SVGID_12_);}
	.st49{filter:url(#Adobe_OpacityMaskFilter_8_);}
	.st50{filter:url(#Adobe_OpacityMaskFilter_9_);}
	.st51{mask:url(#SVGID_13_);fill:url(#SVGID_14_);}
	.st52{fill:url(#SVGID_15_);}
	.st53{fill:#7A6356;}
	.st54{fill:#EAD2BB;}
	.st55{fill:#E6DACD;}
	.st56{fill:#AAB28E;}
	.st57{fill:#EDF2EF;}
	.st58{fill:#8A6338;}
	.st59{fill:#666767;}
	.st60{opacity:0.26;fill:#E2E4E5;}
	.st61{filter:url(#Adobe_OpacityMaskFilter_10_);}
	.st62{filter:url(#Adobe_OpacityMaskFilter_11_);}
	.st63{mask:url(#SVGID_16_);fill:url(#SVGID_17_);}
	.st64{fill:url(#SVGID_18_);}
	.st65{filter:url(#Adobe_OpacityMaskFilter_12_);}
	.st66{filter:url(#Adobe_OpacityMaskFilter_13_);}
	.st67{mask:url(#SVGID_19_);fill:url(#SVGID_20_);}
	.st68{fill:url(#SVGID_21_);}
	.st69{fill:#EDD9A7;}
	.st70{fill:#F7E4D6;}
	.st71{fill:#C2494C;}
	.st72{fill:#FFEE9B;}
	.st73{fill:#C4365A;}
	.st74{fill:#88B99C;}
	.st75{fill:#F3F3F3;}
	.st76{fill:#213D46;}
	.st77{fill:#232020;}
	.st78{fill:#E7F0F1;}
	.st79{opacity:0.2;fill:#232020;}
	.st80{fill:#7C959F;}
	.st81{opacity:0.2;}
	.st82{fill:#DEECED;}
	.st83{opacity:0.37;fill:#232020;}
	.st84{opacity:0.25;fill:#232020;}
</style>
<path class="st0" d="M69.9,380.2c54.5-19.8,117-20.8,193.3-13.9c33.5,3,111,15.4,153.7,15.9c84.3,1,135.8-17.5,199.3-51.5
	c55.5-29.7,43.6-28.7,135.8-63.4c64.5-24.3,187.4-30.7,148.7,25.8c-36,52.6-171,101.1-128.9,170.5c33.7,55.5,222.5,86,228,153.7
	c5,60.5-85.3,85.2-198.3,74.4c-123.9-11.9-111.3-67.1-255.8-82.3c-150.7-15.9-271.2,70.2-360.8,54.5C49,640,258.2,524,137.3,486.3
	C63.9,463.5-37.2,419.2,69.9,380.2z"/>
<g>
	<defs>
		<filter id="Adobe_OpacityMaskFilter" filterUnits="userSpaceOnUse" x="86.7" y="411.1" width="103.9" height="14.3">
			<feFlood  style="flood-color:white;flood-opacity:1" result="back"/>
			<feBlend  in="SourceGraphic" in2="back" mode="normal"/>
		</filter>
	</defs>
	<mask maskUnits="userSpaceOnUse" x="86.7" y="411.1" width="103.9" height="14.3" id="SVGID_1_">
		<g class="st1">
			<defs>
				<filter id="Adobe_OpacityMaskFilter_1_" filterUnits="userSpaceOnUse" x="86.7" y="411.1" width="103.9" height="14.3">
					<feFlood  style="flood-color:white;flood-opacity:1" result="back"/>
					<feBlend  in="SourceGraphic" in2="back" mode="normal"/>
				</filter>
			</defs>
			<mask maskUnits="userSpaceOnUse" x="86.7" y="411.1" width="103.9" height="14.3" id="SVGID_1_">
				<g class="st2">
				</g>
			</mask>
			<linearGradient id="SVGID_2_" gradientUnits="userSpaceOnUse" x1="86.6663" y1="418.2283" x2="190.6102" y2="418.2283">
				<stop  offset="0" style="stop-color:#4D4D4D"/>
				<stop  offset="1" style="stop-color:#000000"/>
			</linearGradient>
			<path class="st3" d="M171.5,425.4c6.3,0.1,13.5-0.2,17.6-4.5c0.9-1,1.7-2.3,1.5-3.6c-0.3-2.8-4.1-4-7.3-4.5
				c-18.3-2.7-37-1.7-55.5-0.6c-11.6,0.7-23.3,1.4-34.3,4.5c-5.7,1.6-10.3,5.9-3.1,7.8c7,1.8,17.8,0.1,25.2,0.2
				C134.2,424.9,152.9,425.2,171.5,425.4z"/>
		</g>
	</mask>
	<linearGradient id="SVGID_3_" gradientUnits="userSpaceOnUse" x1="86.6663" y1="418.2283" x2="190.6102" y2="418.2283">
		<stop  offset="0" style="stop-color:#000000"/>
		<stop  offset="1" style="stop-color:#000000"/>
	</linearGradient>
	<path class="st4" d="M171.5,425.4c6.3,0.1,13.5-0.2,17.6-4.5c0.9-1,1.7-2.3,1.5-3.6c-0.3-2.8-4.1-4-7.3-4.5
		c-18.3-2.7-37-1.7-55.5-0.6c-11.6,0.7-23.3,1.4-34.3,4.5c-5.7,1.6-10.3,5.9-3.1,7.8c7,1.8,17.8,0.1,25.2,0.2
		C134.2,424.9,152.9,425.2,171.5,425.4z"/>
	<g>
		<path class="st5" d="M149.8,183.9c0.7-1.1,1.9-1.8,3.3-1.6c1.1,0.2,2.1,0.9,3.1,1.7c2,1.7,3.8,3.8,5.8,5.6
			c2.2,2.1,4.7,3.8,7.1,5.6c4.2,3.2,8.1,6.7,11.8,10.5c1,1,2,2.1,2.4,3.4c0.7,2.2-0.4,4.5-2.2,5.5c-1.8,0.9-4.2,0.7-6.3-0.2
			c-2.1-0.9-4-2.4-5.8-3.8c-6.4-5.2-12.3-11-17.9-17.1C148.3,190.3,147.8,187,149.8,183.9z"/>
		<path class="st5" d="M183.5,212c-0.7,5.8-8.5,5-10.8,0.3c-0.9-1.8-1.1-3.8-1.5-5.8c-1.5-8.1-4.7-15.7-7.9-23.4
			c-0.3-0.6-0.5-1.4,0-1.9c0.2-0.2,0.5-0.4,0.8-0.5c1.3-0.6,2.6-1.1,3.9-1.7c0.3-0.1,0.7-0.3,1-0.2c0.4,0.1,0.6,0.4,0.8,0.7
			c2.9,4.3,5.3,8.9,7.7,13.4C180.7,198.8,184.3,205.5,183.5,212z"/>
		<path class="st6" d="M160.4,177.2c-0.2-0.3-0.5-0.5-0.5-0.9c-0.1-0.3,0-0.7,0.4-0.9c0.1-0.1,0.3-0.1,0.4-0.2c0.1-0.1,0-0.2,0-0.3
			c-0.3-0.6-0.5-1.2-0.8-1.8c-0.3-0.6-0.5-1.3-0.6-2c-0.1-1.8,1.4-3.5,3.3-3.7c1.9-0.2,3.8,1,4.5,2.6c0.3,0.8,0.4,1.6,0.5,2.4
			c0.3,2.5,0.8,5,1.4,7.4c0.1,0.5-4.2,1.9-4.9,1.5c-0.6-0.3-1-1.1-1.4-1.5C162,178.9,161.2,178,160.4,177.2z"/>
		<g>
			<path class="st7" d="M153.7,164.7c-0.1-0.5-0.2-1.1-0.1-1.6c0.2-0.5,1-0.7,1.4-1c1.3-0.8,2.7-1.4,4.2-1.8
				c0.4-0.1,0.9-0.2,1.3-0.1c0.7,0.3,1.1,1.1,1.3,1.9c1.6,4.1,3.3,8.2,5.2,12.2c0.1,0.3,0.3,0.9,0.3,1.2c0,0.3-0.1,0.5-0.1,0.8
				c-0.5,1.2-1.8,1.5-2.9,1.9c-0.5,0.2-1,0.4-1.5,0.6c-0.5,0.1-1.1,0.4-1.6,0.5c-0.3,0-0.7,0.2-0.9,0.1c-0.4-0.2-1-1.3-1.2-1.7
				c-0.3-0.6-0.5-1.2-0.8-1.8c-1.1-2.3-2-4.6-2.9-7C154.9,167.6,154,166.1,153.7,164.7z"/>
			<path class="st8" d="M154.5,165.4c-0.1-0.4-0.2-0.9,0-1.3c0.2-0.4,0.9-0.6,1.3-0.8c1.2-0.7,2.5-1.2,3.8-1.6
				c0.4-0.1,0.8-0.2,1.2-0.1c0.6,0.2,0.9,0.9,1.1,1.5c1.3,3.3,2.7,6.5,4.1,9.8c0.1,0.3,0.2,0.7,0.2,1c0,0.2-0.1,0.4-0.2,0.7
				c-0.5,1-1.7,1.3-2.6,1.7c-0.4,0.2-0.9,0.4-1.3,0.5c-0.5,0.1-1,0.4-1.5,0.5c-0.3,0.1-0.6,0.2-0.8,0.1c-0.3-0.2-0.8-1-1-1.4
				c-0.2-0.5-0.4-1-0.6-1.4c-0.9-1.9-1.6-3.7-2.3-5.6C155.4,167.7,154.7,166.5,154.5,165.4z"/>
			<path class="st9" d="M156.7,162.1C156.6,162,156.6,162,156.7,162.1L156.7,162.1c-0.2-0.1-0.2,0-0.2,0.1c0,0.1,0.1,0.1,0.2,0.1
				c0,0,0,0,0,0c0,0,0,0,0,0C156.7,162.2,156.7,162.1,156.7,162.1z"/>
			<path class="st9" d="M156.8,162c0,0,0-0.1,0-0.1c0,0,0.1-0.1,0.1-0.1c0.2-0.1,0.5-0.2,0.7-0.3c0,0,0.1,0,0.1,0c0,0,0.1,0,0.1,0.1
				c0,0.1-0.1,0.1-0.1,0.1c-0.2,0.1-0.4,0.1-0.5,0.2C157.2,162,156.9,162.1,156.8,162z"/>
			<path class="st10" d="M164,176.6c-0.4-0.2-0.9-0.1-1.1,0.2c-0.1,0.2-0.1,0.4,0,0.7c0.1,0.1,0.2,0.2,0.3,0.3
				c0.1,0.1,0.3,0.2,0.5,0.2c0.1,0,0.2,0,0.3-0.1c0.1-0.1,0.3-0.2,0.4-0.3c0.1-0.1,0.1-0.3,0.1-0.5
				C164.3,176.9,164.2,176.7,164,176.6z"/>
		</g>
		<g>
			<path class="st6" d="M154.3,175.5c2.8-3.6,4-8.2,4.3-12.8c0.3-4.9-0.6-10.2-3.6-14.1c-3.1-3.9-8.6-6.2-13.3-4.4
				c-3.1,1.2-5.5,3.9-7.1,6.8c-4.1,7.5-3.6,17.1,0.7,24.4c1.8,3,4.3,6.5,8,6.6C147.2,182.1,152.1,178.5,154.3,175.5z"/>
		</g>
		<path class="st11" d="M161.6,410.1c0.3,0,0.6,0,0.9,0.1c0.3,0.2,0.5,0.5,0.6,0.9c1.9,4.3,6.1,7.5,10.8,7.8
			c4.7,0.3,9.4-2.5,11.2-6.8c0.7-1.8,0.9-3.9,1.2-5.8c0.5-2.8,1.2-5.5,1.3-8.3c0.1-2.8-0.4-5.8-2.3-7.9c-1,3-2.4,5.9-4.2,8.6
			c-1,1.5-2.2,3-3.8,3.9c-1,0.6-2.2,0.9-3.4,1.2c-2.5,0.7-5.1,1.4-7.6,2.1c-2.8,0.8-5.6,1.5-8.5,1.6c-1.2,0-5.4,0.8-3.2,2.6
			C156.2,411.1,159.9,410.2,161.6,410.1z"/>
		<g>
			<path class="st11" d="M127.1,411.9c-0.8,2.4-1.9,4.9-3.8,6.6c-2.3,2.1-5.6,2.8-8.7,2.4c-3.1-0.4-5.9-1.9-8.4-3.8
				c-1.7-1.3-3.2-2.8-4.3-4.6c-1.7-2.7-2.3-5.9-2.7-9c-0.7-5.2-0.8-10.6,1.3-15.3c2.1-4.7,7-8.6,12.1-8.2c5,0.4,13.2,4.9,14.8,10.1
				C129.6,397.1,129.3,405.1,127.1,411.9z"/>
			<path class="st12" d="M117.2,395.3c0.1-1.9,0.1-3.8-0.1-5.6c-0.2-1.6-0.7-3.2-1.7-4.5c-1.6-1.9-4.1-2.6-6.6-2.8
				c-0.6,0-1.2-0.1-1.7,0.1c-0.6,0.2-1,0.6-1.5,1c-1,0.9-2.1,1.9-2.9,3.1c-0.9,1.3-1.4,2.7-1.8,4.1c-1.4,4.7-1.6,9.7-0.7,14.5
				l0.2,0.9c0.6,1.9,1.1,3.2,2,5c0.8,1.4,1.7,2.9,3,3.8c1.3,1,3.7-0.2,5.2-0.8c0.9-0.4,1.6-1.1,2.2-1.9
				C116.3,407.5,116.9,401.3,117.2,395.3z"/>
			<path class="st11" d="M110.6,395.1c-0.2-0.6-0.4-1.2-0.8-1.6c-0.9-0.9-2.6-0.6-3.5,0.3s-1.3,2.3-1.5,3.6c-0.4,2.4-0.5,5,0.8,7.1
				c0.5,0.9,1.4,1.7,2.5,1.6c1.3-0.1,2-1.5,2.5-2.7c0.4-1.1,0.8-2.2,1.1-3.4C112,398.2,111.2,396.8,110.6,395.1z"/>
		</g>
		<path class="st13" d="M182.9,381.7c-1.2-0.9-2.5-1.5-3.9-2c-2.6-0.9-5.3-1.6-8-0.9c-3.1,0.7-5.6,3.1-7.5,5.7
			c-1.2,1.6-2.3,3.5-4,4.6c-1,0.6-2.2,0.9-3.4,0.8c-2.3,0.7-5.3,0.5-7.2,0.5c-3.2,0-6.6-0.2-9.8,0c-2.4,0.2-4.6,0.6-7,0.3
			c-0.1,0-0.3-0.1-0.4-0.1c-2-0.3-2.7-2.8-3.4-4.7c-0.8-2.2-2.1-4.3-3.9-5.8c-2.2-1.9-5-3-7.9-3.1c-2.3-0.1-9.2,2-10.5,4.2
			c4.7-1,10-0.4,13.5,1.3c2,1,4.2,4.2,5.6,5.9c1.4,1.8,2.1,4,2.7,6.2c0.9,3.1,1.7,6.3,1.3,9.5c-0.1,0.4-0.1,0.8,0.1,1.1
			c0.2,0.3,0.5,0.4,0.8,0.5c1.8,0.6,3.7,0.9,5.5,1.2c4.3,0.8,8.6,1.6,13,2.3c0.9,0.2,1.8,0.3,2.8,0.3c1.3-0.1,2.5-0.6,3.7-0.9
			c2.8-0.9,5.6-1.2,8.5-1.5c4.5-0.6,9.1-1.4,13.2-3.4c4.1-2,7.8-5.3,9.3-9.6C187.5,389.8,186.5,384.4,182.9,381.7z"/>
		<path class="st11" d="M142.3,391.6c2.4,1.7,1.4,5.9,4,7.3c0.4,0.2,0.8,0.4,1,0.7c0.8,0.9,0.3,2.5-0.8,3.2c-1,0.7-2.3,0.7-3.6,0.7
			c-2.4,0-4.9,0-7.3,0c-0.9,0-2-0.1-2.5-0.9c-0.3-0.6-0.2-1.3-0.1-2c0.2-1.4,0.1-2.9-0.1-4.3c-0.1-0.8-0.3-1.5-0.6-2.3
			c-0.2-0.5-1.4-2-1-2.1C133.7,391.4,141.2,390.9,142.3,391.6z"/>
		<path class="st11" d="M157.7,399c0.3,0.7,0.7,1.5,1.3,2c0.8,0.6,1.8,0.8,2.7,0.9c4.2,0.5,8.5,0.5,12.7-0.2c0.7-0.1,1.5-0.3,1.6-1
			c0.1-0.6-0.5-1.2-1.1-1.5c-3.3-2.1-6.6-4.1-10-6.1c-1.1-0.6-2.2-1.3-3.4-1.7c-1.3-0.4-5.4-1.3-6.1,0.4
			C154.8,393.4,157,397.5,157.7,399z"/>
		<path class="st14" d="M160.4,163.2c-0.5-0.6-0.8-1.3-1-1.9c-0.2-0.6-0.2-2.7-0.5-4.1c0.4-2.5,0.7-5,0.6-7.5c0-2.1-0.4-2.4-1.1-4.3
			c-0.7-2-2-2.8-3.8-3.9c-2.4-1.5-5.5-1.5-8.4-1c-0.1,0-0.1,0-0.2,0c-1.8-0.9-4.3-1.3-5.7-1.3c-2.1,0-4.1,0.6-5.9,1.5
			c-2.4,1.2-4.6,2.8-6.5,4.7c-1.1,1.1-2,2.2-2.8,3.5c-1,1.8-1.6,3.7-1.9,5.7c-0.1,0.8-0.3,1.6-0.2,2.4c0.1,1.2,0.6,2.3,1.1,3.4
			c1.9,4.4,4.1,9.1,8.2,11.8c0.4,0.2,0.9,0.4,1.2,0.2c0.6,1,1.2,2.1,1.9,3.1c-1.3-2.4-0.6-5.4,0.6-7.9c0.3-0.6,0.6-1.5,0.1-2
			c-0.2-0.1-0.4-0.2-0.6-0.3c-0.9-0.5-0.6-1.8-0.1-2.7c0-0.1,0.1-0.2,0.2-0.2c0.1,0,0.3,0.1,0.4,0.2c0.9,0.7,2.2,0.1,3-0.6
			c1.3-1.3,2.2-3,2.6-4.7c0.2-0.9,0.4-1.8,0.8-2.6c0.4-0.8,1.2-1.5,2.2-1.5c1,0,1.5,0.9,2.4,1.1c1.9,0.4,2.8-2,4.8-1.3
			c1.7,0.6,2.4,2.5,2.9,4.2c0.8,2.8,1.5,5.5,2.3,8.3c0.3-0.8,0.5-1.6,0.6-2.4c0.1,0.2,0.3,0.3,0.5,0.5c0.3,0.3,0.6,0.6,0.9,0.8
			c1,0.6,2.2,0.5,3.3,0.2C161.5,164.2,160.9,163.8,160.4,163.2z"/>
		<path class="st15" d="M141.1,390.5c1,1.6,2.4,2.9,3.4,4.4c1,1.6,1.6,3.6,0.8,5.3c-0.8,1.6-2.6,2.5-4.4,2.6c-0.8,0.1-1.6,0-2.4-0.3
			c-2.1-0.8-3.1-3.1-4.2-5.1c-1.1-2.2-2.5-4.2-3.4-6.4c-0.9-2.3-1.4-4.8-0.6-7.1c0.1-0.3,4-0.3,4.5-0.4c0.9,0,3.2-0.5,3.9,0.2
			c0.6,0.6,0.4,2.2,0.6,3C139.8,388.1,140.3,389.4,141.1,390.5z"/>
		<path class="st15" d="M169.1,391.7c1,0.4,2.2,0.7,3,1.4c1.7,1.4,1.7,4.1,0.4,5.9c-0.3,0.4-0.7,0.8-1.1,1c-0.7,0.4-1.5,0.4-2.3,0.4
			c-1.9,0-3.7,0-5.5-0.2c-0.6-0.1-1.2-0.1-1.6-0.4c-0.4-0.2-0.6-0.5-0.9-0.8c-1.7-1.8-3.3-3.8-4.2-6.1c-1.1-2.8-1-6-0.8-9
			c0-0.2,0-0.4,0.2-0.5c0.1-0.1,0.3-0.1,0.5-0.2c1.7-0.2,3.6-0.5,5.3-0.3c1.5,0.2,1.3,1.5,1.7,2.7
			C164.5,388.3,166.6,390.6,169.1,391.7z"/>
		<path class="st16" d="M150.2,284.1c-0.4-8.4-0.7-17.1,2.3-25c1.2-3.2,2.9-6.2,5.1-8.8c1.2-1.4,2.6-2.8,4.4-3.4
			c1.8-0.6,3.9-0.4,5.2,0.9c0.8,0.8,1.1,1.9,1.4,3c0.9,3.1,1.6,6.4,2.1,9.6c1.4,9.6,0.8,19.4,0.3,29.2c-1.8,30.6-3.5,61.3-5.3,91.9
			c-0.1,1.1-0.2,2.3-1.1,2.9c-0.6,0.4-1.3,0.4-2,0.4c-1.9,0-6.7,0.8-8-0.8c-1.3-1.6-0.5-8.1-0.6-10.2c-0.3-7.3-0.6-14.5-0.9-21.8
			c-0.6-14.5-1.2-29.1-1.8-43.6C150.9,300.2,150.5,292.1,150.2,284.1z"/>
		<path class="st16" d="M119.9,264.7c-0.2-5.2-0.2-11,3-14.8c2.5-2.9,6.3-3.8,10-4.2c2.9-0.3,6-0.3,8.3,1.6c2.5,2.2,3.2,6,3.6,9.6
			c2.1,18.6,1.4,37.4,0.6,56.1c-0.9,22.9-1.8,45.9-2.8,68.8c-0.1,1.3-0.2,2.7-1.2,3.3c-0.5,0.3-1.1,0.3-1.6,0.3
			c-2-0.1-9.4,1-10.8-0.4c-1.5-1.6-1-9.9-1.3-12.2c-0.8-8.7-1.6-17.5-2.3-26.2c-1.5-17.4-2.9-34.7-4-52.1
			C120.8,284.5,120.3,274.6,119.9,264.7z"/>
		<path class="st17" d="M143,183.3c-3.7-0.3-7.6-1.4-11.1-0.1c-4.8,1.7-7,6.8-8.4,11.5c-7.2,23.2-8.8,47.6-6.8,71.5
			c0.3,3.8,1,8.1,4.3,10.3c2.6,1.7,6,1.5,9.2,1.2c12.6-1.3,24.8,2.7,36.9-0.8c2.8-0.8,5.7-1.8,7.4-4.1c1.8-2.4-0.7-11.9-1.1-14.8
			c-1.1-9.8-5.8-17.7-7.9-27.4c-2.6-11.7,0-25.4-3.4-36.9c-1-3.5-1.6-9.9-5.8-11.3C152.5,181.1,147.1,183.6,143,183.3z"/>
		<path class="st18" d="M161.7,260.4c-1.3-0.4-2.8-0.2-4.1,0c-5.4,0.6-10.8,1.3-16.2,1.9c-2.5,0.3-5.2,0.6-7.7,0.3
			c-1-0.1-2-0.3-3-0.2c-2,0.2-3.2,1.7-4,3c-0.3,0.5-0.5,1-0.3,1.5c0.2,0.5,1.2,0.8,1.7,0.5l1.3-0.1c6.8,0.2,9.6-0.1,16.5-0.3
			c2.5-0.1,5.1-0.2,7.6-0.4c3.2-0.4,6.3-1,9.2-2c0.4-0.1,0.8-0.3,1.1-0.5c0.2-0.2,0.3-0.4,0.3-0.7
			C164.3,262.2,163.3,260.9,161.7,260.4z"/>
		<path class="st11" d="M155.8,260.2c-1.1-0.5-2-1.3-2.6-2.4c-0.3-0.7-0.5-1.5-0.5-2.3c-0.1-1.4,0.1-3,1.2-3.9
			c0.9-0.7,2.3-0.6,3.4-0.1c1.1,0.5,1.9,1.3,2.8,2.1c2.2,2,4.6,3.8,7.3,5.1c2.3,1.1,4.8,1.7,7.1,2.8c0.9,0.4,1.8,0.9,2.5,1.7
			c0.6,0.7,0.9,1.7,0.8,2.7c-0.1,1-0.8,1.8-1.7,2.2c-0.4,0.2-0.9,0.2-1.4,0.3c-2.5,0.2-5.1-0.4-7.2-1.6c-1.5-0.9-2.9-2-4.4-2.9
			c-1.3-0.7-2.7-1.2-3.8-2.2C158.2,260.9,156.9,260.8,155.8,260.2z"/>
		<path class="st12" d="M145.2,312.8c-0.7,9.3-0.5,18.8-0.6,28.1c-0.2,9.9,0.8,19.8,1.7,29.7c0.7,7.1,2.6,20.8,3.2,27.9
			c0.1,1.2,0.3,2.5,0.9,3.6c0.6,1.1,1.9,1.9,3.1,1.5c1.9-0.5,2.2-3,2.1-4.9c-1.1-21.9-2.4-49.5-3.5-71.4c-0.2-4-0.2-7.3,0-11.3
			c0.2-3.7-0.2-7.7-0.1-12.8c0.3-18.3-1-23.1-3.8-40.7c-0.3-1.6-0.6-3.3-1.8-4.4c-3.5-3.3-4.8,2.2-3.7,4.7c1.8,4.2,2.2,8.2,2.6,12.9
			c1,10.9,0.6,8,0.5,19C145.8,300.7,145.6,306.7,145.2,312.8z"/>
		<path class="st11" d="M131.8,262.7c1.6-1.2,3.5-2.2,4.9-3.7c0.6-0.6,1.1-1.3,1-2.1c-0.1-0.5-0.4-1-0.7-1.4c-0.8-1-1.8-2.2-3.2-2.2
			c-1.4,0-2.4,1.4-3.3,2.5c-2.5,3.1-11.8,8-10.9,12.7C120.8,275.3,130.2,263.9,131.8,262.7z"/>
		<path class="st7" d="M136.9,183.2c1.9,1.1,3.1,3.4,3.5,5.6c0.4,2.3,0.3,4.6,0.3,6.9c0,3.8,0.5,7.6,1,11.4
			c1.7,13.2,3.5,26.3,5.2,39.5c0.1,0.6,0.1,1.3-0.3,1.8c-0.3,0.3-0.6,0.4-1,0.5c-7,1.7-14.1,2.7-21.2,3c-2.1,0.1-4.3,0.1-6.3-0.5
			c-1.2-0.4-2.3-1-2.9-2.1c-0.3-0.7-0.4-1.6-0.4-2.4c-0.5-17.5,3.8-34.8,8.1-51.7c0.5-2.1,1.1-4.3,2.1-6.2
			C127.3,184.8,132.2,180.5,136.9,183.2z"/>
		<path class="st5" d="M128.3,183.9c-2.6-0.1-4.9,1.9-6.7,3.9c-3.9,4.4-6.9,9.5-9.9,14.6c-3.6,6.1-7.2,12.2-10.8,18.2
			c-1,1.7-2.1,3.7-1.8,5.7c0.1,0.8,0.4,1.5,0.7,2.2c3.8,9,8,17.7,12.6,26.2c0.3,0.6,0.7,1.2,1.2,1.5c0.8,0.4,1.8,0.1,2.6-0.3
			c1.4-0.7,2.8-1.7,3.2-3.3c0.2-1-0.1-2-0.4-3c-1.2-3.9-2.4-7.7-3.6-11.6c-1.6-5.1-3.2-10.8-1.2-15.8c1.7-4.2,5.5-7,8.2-10.5
			c1.9-2.4,3.3-5.1,5.4-7.3c2.1-2.2,4.8-3.8,6.3-6.5C136.9,192.9,134.3,184.1,128.3,183.9z"/>
		<path class="st6" d="M116.8,259.6c0.8,1.6,1.5,3.3,2.3,4.9c0.3,0.7,0.6,1.4,1,2c0.3,0.4,0.5,0.7,0.9,1c0.7,0.5,1.6,0.7,2.5,0.6
			c1.1,0,2.3-0.3,3-1.1c0.6-0.8,0.8-1.9,0.5-2.8c-0.3-1-0.9-1.8-1.6-2.5c-0.2-0.2-0.4-0.4-0.3-0.7c0-0.1,0.1-0.2,0.2-0.3
			c0.3-0.3,0.3-0.9,0-1.3c-0.2-0.4-0.6-0.7-1-1c-0.9-0.8-1.6-1.7-2.4-2.6c-0.8-1-1.6-2-2.4-3c-0.1-0.2-0.3-0.4-0.5-0.4
			c-0.2,0-0.3,0.1-0.5,0.3c-0.6,0.5-1.2,1-1.8,1.4c-0.8,0.5-1.8,1.1-1.4,2.1C115.8,257.4,116.3,258.5,116.8,259.6z"/>
		<path class="st7" d="M151.2,192c2.1,6.2,2.7,12.7,3.4,19.2c1.1,11.1,2.2,22.2,3.3,33.2c0,0.4,0.1,0.9,0.3,1.2
			c0.3,0.3,0.7,0.5,1.1,0.7c3.3,1.3,7.1,1.6,10.6,0.8c0.5-0.1,1-0.3,1.1-0.8c0.1-0.2,0-0.4-0.1-0.7c-1.5-6.1-3.6-12-4.4-18.3
			c-0.4-2.6-0.5-5.3-0.6-7.9c-0.5-9.5-0.7-19.1-3-28.3c-0.9-3.4-2.2-6.9-4.9-9.2c-2.3-1.9-6.4-2.7-8.8-0.6
			C146.8,183.5,150.4,189.5,151.2,192z"/>
		<path class="st19" d="M134,232.9c0.8-0.1,1.7-0.2,2.5-0.5c0.8-0.3,1.4-0.8,2.2-0.8c0.2,0,0.4,0,0.6,0.1c0.1,0.1,0.2,0.2,0.3,0.4
			c0.5,1,0.7,2.3,0.5,3.4c-6.1,0.2-12.2,0.6-18.3,1.1c-0.2,0-0.2-2.3,0.4-2.6c0.9-0.5,2.8-0.3,3.9-0.4
			C128.7,233.4,131.4,233.1,134,232.9z"/>
		<path class="st19" d="M136.8,219.7c0.4,0,0.8-0.1,1.1-0.4c0.6-0.7-0.2-1.8-0.1-2.7c-5.2-0.2-10.3,2-15.5,1.8c-0.1,0-0.3,0-0.4,0.1
			c-0.1,0.1-0.1,0.3-0.1,0.5c0,0.4-0.1,1.6,0.1,1.9c0.3,0.3,1.5,0,1.8,0c1.5-0.1,2.9-0.2,4.4-0.3C131.1,220.3,134,220.2,136.8,219.7
			z"/>
		<path class="st19" d="M166.2,230.3c0.5,0,1,0,1.4,0.4c0.2,0.2,0.2,0.5,0.3,0.8c0.1,0.5,0.2,0.9,0.3,1.4c0,0.1,0,0.3,0,0.4
			c0,0.1-0.1,0.1-0.2,0.2c-0.4,0.2-0.9,0.3-1.4,0.3c-1.5,0-3.1,0-4.6-0.1c-0.2,0-0.5,0-0.6-0.2c-0.1-0.1-0.2-0.3-0.2-0.5
			c-0.2-1.1-0.8-2.3,0.6-2.6C163.1,230,164.8,230.3,166.2,230.3z"/>
		<path class="st19" d="M166,216.9c0.1,0,0.1,0,0.2-0.1c0.1-0.1,0.1-0.2,0.1-0.4c0-0.9-0.1-1.7-0.1-2.6c0-0.2,0-0.4-0.2-0.5
			c-0.2-0.1-0.4-0.1-0.6,0c-2.2,0.6-4.5,1.4-6.8,1.1c0,0,0.1,2.3,0.3,2.6c0.4,0.7,0.7,0.5,1.5,0.5C162.3,217.2,164.2,217,166,216.9z
			"/>
	</g>
</g>
<g>
	<defs>
		<filter id="Adobe_OpacityMaskFilter_2_" filterUnits="userSpaceOnUse" x="829.3" y="656.3" width="124.4" height="9.1">
			<feFlood  style="flood-color:white;flood-opacity:1" result="back"/>
			<feBlend  in="SourceGraphic" in2="back" mode="normal"/>
		</filter>
	</defs>
	<mask maskUnits="userSpaceOnUse" x="829.3" y="656.3" width="124.4" height="9.1" id="SVGID_4_">
		<g class="st20">
			<defs>
				<filter id="Adobe_OpacityMaskFilter_3_" filterUnits="userSpaceOnUse" x="829.3" y="656.3" width="124.4" height="9.1">
					<feFlood  style="flood-color:white;flood-opacity:1" result="back"/>
					<feBlend  in="SourceGraphic" in2="back" mode="normal"/>
				</filter>
			</defs>
			<mask maskUnits="userSpaceOnUse" x="829.3" y="656.3" width="124.4" height="9.1" id="SVGID_4_">
				<g class="st21">
				</g>
			</mask>
			<linearGradient id="SVGID_5_" gradientUnits="userSpaceOnUse" x1="829.3369" y1="660.8594" x2="953.7774" y2="660.8594">
				<stop  offset="0" style="stop-color:#4D4D4D"/>
				<stop  offset="1" style="stop-color:#000000"/>
			</linearGradient>
			<path class="st22" d="M953.8,660.6c-1.1-2.3-4.2-2.7-6.8-2.8c-32.3-0.7-64.7-1.5-97-1.5c-5.5,0-11.3,0.8-16.5,2.5
				c-3,1-6.3,2.6-2.4,5.3c2.5,1.7,9,0.8,11.9,0.9c17.5,0.6,35.1,0.6,52.6-0.1c9.7-0.3,19.4-0.9,29.1-1.6
				C927.4,663.1,953.2,659.5,953.8,660.6z"/>
		</g>
	</mask>
	<linearGradient id="SVGID_6_" gradientUnits="userSpaceOnUse" x1="829.3369" y1="660.8594" x2="953.7774" y2="660.8594">
		<stop  offset="0" style="stop-color:#000000"/>
		<stop  offset="1" style="stop-color:#000000"/>
	</linearGradient>
	<path class="st23" d="M953.8,660.6c-1.1-2.3-4.2-2.7-6.8-2.8c-32.3-0.7-64.7-1.5-97-1.5c-5.5,0-11.3,0.8-16.5,2.5
		c-3,1-6.3,2.6-2.4,5.3c2.5,1.7,9,0.8,11.9,0.9c17.5,0.6,35.1,0.6,52.6-0.1c9.7-0.3,19.4-0.9,29.1-1.6
		C927.4,663.1,953.2,659.5,953.8,660.6z"/>
	<g>
		<g>
			<path class="st7" d="M866.5,502c0.7-1.6,1.7-3.2,3.5-4.2c2.2-1.3,5.2-1.2,8-1c4.1,0.3,8.2,0.7,12.3,1.3c3.3,0.5,7,1.2,9,3.4
				c1.9,2,1.9,4.8,1.8,7.4c-0.6,18.9-4.4,40-5.7,58.8c-1.2,17.3-2,38-3.8,55.2c-0.7,6.7-0.6,18.1-2.1,30.5c-0.1,1,0,0.4-0.5,0.9
				c-0.3-0.1-0.6-0.2-1-0.3c-1.4-0.1-5.1,0.9-6.5,0.9c-0.3,0-0.6,0-0.8,0.1c-0.6-1.3-1.7-15.4-1.8-17.1
				c-2.9-33.9-3.2-68.2-11.3-101.6C864.7,525,861.4,512.9,866.5,502z"/>
			<path class="st7" d="M848.4,608.1c1.1,15.2,0.9,32,1.1,47.3c2.5-0.5,9.9-0.6,12.4-1.1c1.6-9,1.8-20,2.5-29.1
				c0.5-6.4,0.1-12.8,1.1-19.2c2.7-17.9,1.6-46.9,4.3-64.8c1.2-7.9,2.4-15.9,4.9-23.6c2.7-8.3,5.7-20-8-22.6
				c-7.7-1.5-17.6,0.5-22,6.1c-5,6.3-3.2,15.4-2.7,22.5c0.8,11.6,2.9,34.2,3.7,45.8C846.6,582.3,847.5,595.2,848.4,608.1z"/>
			<path class="st16" d="M887.8,412.1c1.9,5.2,2.3,10.7,2.9,16.2c2.7,24.7,9.8,49,10.2,73.8c0,1.3,0,2.7-0.8,3.8
				c-0.6,0.8-1.6,1.3-2.6,1.7c-15.7,6.8-33.6,8.4-50.3,4.6c-2.9-0.7-6-1.7-7.5-4.2c-1.7-2.9-0.6-6.4,0.3-9.6
				c4.8-16.1,6.7-32.8,9-49.4c1.2-8.3,2.4-16.6,4.3-24.8c1.2-5.3,2.5-9.8,8.5-10.7C870.5,412.4,879.1,413.9,887.8,412.1z"/>
			<path class="st24" d="M894.5,505.1c-3,0.3-5.9,0.7-8.8,1.2c-0.2-1.8-0.3-3.5-0.5-5.3c1.1-0.2,2.2-0.4,3.3-0.7
				c0.6-0.1,0.5-1.2-0.2-1.1c-1.1,0.1-2.2,0.3-3.3,0.4c-0.4-4.9-0.8-9.7-1.1-14.6c0.9-0.2,1.7-0.3,2.6-0.5c0.8-0.2,0.5-1.4-0.3-1.2
				c-0.8,0.2-1.6,0.3-2.3,0.5c-0.2-2.7-0.3-5.3-0.5-8c0.8-0.1,1.7-0.2,2.5-0.4c0.7-0.1,0.5-1.3-0.2-1.2c-0.8,0.1-1.6,0.2-2.4,0.2
				c-0.1-2.5-0.2-5.1-0.3-7.7c1.1-0.2,2.1-0.5,3.2-0.8c0.8-0.2,0.4-1.3-0.3-1.2c-1,0.1-1.9,0.3-2.9,0.4c0-0.9-0.1-1.7-0.1-2.6
				c0-1.1-0.1-2.3-0.1-3.4c0.9-0.1,1.8-0.3,2.6-0.6c0.8-0.3,0.5-1.5-0.4-1.3c-0.8,0.2-1.5,0.3-2.3,0.4c-0.1-2.6-0.1-5.2-0.2-7.9
				c0.3,0,0.6-0.1,1-0.1c0.8-0.1,0.8-1.3,0-1.3c-0.3,0-0.7,0-1,0c0-2.4-0.1-4.8-0.1-7.3c1.1-0.2,2.2-0.3,3.3-0.6
				c0.7-0.1,0.5-1.3-0.2-1.2c-1,0.1-2.1,0.2-3.1,0.3c0-2.5-0.1-5.1-0.1-7.6c1.2-0.2,2.4-0.4,3.6-0.6c0.6-0.1,0.5-1.1-0.1-1.1
				c-1.2,0-2.3,0.1-3.5,0.2c0-1.6-0.1-3.3-0.1-4.9c0.9-0.2,1.7-0.3,2.6-0.5c0.8-0.2,0.4-1.3-0.3-1.2c-0.8,0.1-1.5,0.3-2.3,0.4
				c0-1.4-0.1-2.8-0.1-4.2c0.9,0,1.7,0.1,2.6,0.1c0.9,0,0.9-1.4,0-1.4c-0.9,0-1.7,0-2.6-0.1c0-0.5,0-0.9,0-1.4c0-0.2-0.2-0.2-0.3,0
				c0,0.5-0.1,0.9-0.1,1.4c-1.6,0-3.1-0.1-4.7-0.1c0-0.3,0-0.6,0-0.9c0-0.3-0.5-0.3-0.5,0c0,0.3,0,0.6,0,0.9c-1.5,0-3.1-0.1-4.6-0.2
				c0-0.2,0-0.4,0-0.6c0-0.3-0.5-0.3-0.5,0c0,0.2,0,0.4,0,0.6c-1.4-0.1-2.9-0.1-4.3-0.2c0-0.6,0.1-1.3,0.1-1.9
				c0-0.3-0.4-0.3-0.5-0.1c-0.1,0.6-0.2,1.3-0.3,2c-2.1-0.1-4.2-0.2-6.3-0.4c-0.4,0-0.4,0.6,0,0.6c2.1,0.2,4.1,0.4,6.2,0.6
				c-0.2,2-0.4,4-0.4,6.1c-1.8-0.1-3.6-0.4-5.4-0.7c0.1-1.5,0.1-3.1,0.2-4.6c0-0.3-0.5-0.3-0.5,0c-0.1,1.5-0.1,3-0.2,4.5
				c-0.9-0.2-1.8-0.3-2.6-0.6c-0.4-0.1-0.5,0.5-0.2,0.6c0.9,0.2,1.8,0.4,2.8,0.6c-0.1,1.9-0.2,3.8-0.2,5.7c-0.6-0.1-1.3-0.1-1.9-0.2
				c-0.6-0.1-0.6,0.8,0,0.9c0.6,0.1,1.3,0.2,1.9,0.2c-0.1,3.1-0.2,6.2-0.3,9.4c-1.1,0-2.3-0.1-3.4-0.2c-0.5,0-0.5,0.7,0,0.8
				c1.1,0.1,2.2,0.1,3.4,0.2c-0.1,2.2-0.1,4.4-0.2,6.7c-1.8-0.1-3.5-0.3-5.3-0.5c-0.5-0.1-0.6,0.7-0.1,0.8c1.8,0.3,3.6,0.5,5.4,0.7
				c-0.1,2.8-0.1,5.6-0.2,8.4c-0.3,0-0.6,0-0.9,0c-0.6,0-0.6,0.8,0,0.9c0.3,0,0.6,0,0.9,0c-0.1,3.1-0.1,6.1-0.1,9.2
				c-2.1,0.1-4.3,0.2-6.5,0.2c-0.5,0-0.5,0.8,0,0.8c2.1,0.1,4.3,0.1,6.4,0.1c0,2.9,0,5.8,0,8.8c-1.6,0.2-3.2,0.5-4.8,0.7
				c-0.2,0-0.2,0.4,0.1,0.4c1.6-0.2,3.2-0.3,4.8-0.4c0,2.5,0,5,0.1,7.6c-1.7,0-3.3-0.1-5-0.1c-0.2,0-0.2,0.3,0,0.3
				c1.7,0.2,3.3,0.3,5,0.4c0,2.2,0.1,4.4,0.1,6.6c-2.6,0.1-5.3,0.2-8,0.1c-0.3,0-0.3,0.4,0,0.4c2.6,0.1,5.3,0.2,8,0.1
				c0.1,2.8,0.2,5.6,0.3,8.4c-2.6,0-5.2-0.1-7.8-0.4c-0.4,0-0.5,0.7-0.1,0.7c2.6,0.4,5.3,0.6,8,0.6c0.1,2,0.2,4,0.3,6.1
				c-3.6,0-7.3-0.3-11-0.8c-0.2,0-0.2,0.2-0.1,0.3c3.4,1.3,7.3,1.8,11.1,1.9c0,0.3,0,0.5,0,0.8c0,0.7,1.2,0.8,1.2,0
				c0-0.3,0-0.5,0-0.8c3.4,0,6.8-0.4,10-0.8c0,0,0,0,0,0.1c0,1,1.5,1,1.5,0c0-0.1,0-0.2,0-0.2c1.7-0.2,3.3-0.5,5-0.7
				c0,0.8,1.3,0.8,1.2,0c0-0.1,0-0.1,0-0.2c2-0.3,4.1-0.7,6.1-1c0.1,0.8,1.4,0.8,1.3,0c0-0.1,0-0.1,0-0.2c2.9-0.5,5.8-0.9,8.7-1.2
				C895.2,506.2,895.2,505,894.5,505.1z M883.7,499.7c-1.8,0.2-3.6,0.5-5.4,0.7c0-2.8-0.1-5.7-0.1-8.5c1.5-0.3,2.9-0.6,4.3-1
				c0.7-0.2,0.4-1.1-0.3-1c-1.4,0.3-2.7,0.5-4,0.7c0-1.6,0-3.2,0-4.8c1.5-0.2,2.9-0.4,4.4-0.7C882.9,490,883.3,494.9,883.7,499.7z
				 M867,459c1.5,0,3.1,0.1,4.6,0.1c0,2.5,0,5-0.1,7.5c-1.6,0.2-3.1,0.4-4.7,0.5c0-1.7,0.1-3.4,0.1-5.1C867,461.1,867,460,867,459z
				 M867,439.6c0-2.5-0.1-4.9-0.1-7.4c1.5,0.1,3.1,0.2,4.7,0.2c0,2.7,0.1,5.4,0.1,8.1c-1.5,0.1-3.1,0.2-4.6,0.3
				C867,440.4,867,440,867,439.6z M872.6,485.3c0-2.8,0-5.5,0-8.3c1.4-0.1,2.7-0.3,4.1-0.5c0,2.8,0.1,5.5,0.1,8.3
				C875.4,485,874,485.1,872.6,485.3z M876.8,486c0,1.6,0,3.3,0.1,4.9c-1.5,0.3-2.9,0.5-4.4,0.7c0-1.7,0.1-3.5,0.1-5.2
				C874,486.3,875.4,486.2,876.8,486z M872.6,475.6c0-2.4,0-4.9,0-7.3c1.3-0.1,2.6-0.3,3.9-0.5c0,2.4,0.1,4.8,0.1,7.2
				C875.3,475.2,874,475.4,872.6,475.6z M872.6,466.5c0-2.5,0-4.9,0-7.4c0.1,0,0.2,0,0.4,0c1.1,0,2.3,0.1,3.5,0.1
				c0,2.2,0.1,4.5,0.1,6.7C875.2,466.2,873.9,466.4,872.6,466.5z M872.6,458c0-2.6,0-5.2-0.1-7.8c1.3,0,2.6,0,3.9-0.1
				c0,2.6,0,5.2,0.1,7.9C875.1,458,873.8,458,872.6,458z M872.5,448.7c0-2.3-0.1-4.5-0.1-6.8c1.3,0,2.6-0.1,4-0.2c0,2.3,0,4.6,0,6.9
				C875.1,448.7,873.8,448.7,872.5,448.7z M872.3,440.5c0-2.7-0.1-5.3-0.2-8c1.4,0,2.8,0,4.2,0c0,2.6,0,5.2,0,7.7
				C875,440.3,873.7,440.4,872.3,440.5z M872.1,431.2c0-1.6-0.1-3.2-0.1-4.8c1.4,0,2.9,0,4.3-0.1c0,1.6,0,3.1,0,4.7
				C874.9,431.1,873.5,431.1,872.1,431.2z M871.5,431.2c-1.6,0-3.1,0-4.7-0.1c0-1.7,0-3.4-0.1-5c1.5,0.2,3.1,0.3,4.6,0.3
				C871.5,428,871.5,429.6,871.5,431.2z M871.6,442c0,2.3,0,4.5,0,6.8c-1.5,0-3.1,0-4.6,0c0-2.2,0-4.5,0-6.7
				C868.5,442,870.1,442,871.6,442z M871.6,450.2c0,2.6,0,5.2,0,7.8c-1.5,0-3.1,0-4.6,0c0-2.7,0-5.3,0-7.9
				C868.6,450.1,870.1,450.1,871.6,450.2z M871.5,468.4c0,2.5-0.1,4.9-0.1,7.4c-1.6,0.2-3.1,0.4-4.7,0.7c0-2.6,0.1-5.1,0.1-7.7
				C868.4,468.6,870,468.5,871.5,468.4z M871.4,477.1c0,2.8-0.1,5.5-0.2,8.3c-1.5,0.1-3.1,0.3-4.6,0.3c0.1-2.7,0.1-5.4,0.1-8.2
				C868.3,477.4,869.8,477.3,871.4,477.1z M866.6,486.7c1.5,0,3.1-0.1,4.6-0.2c0,1.8-0.1,3.6-0.1,5.3c-1.5,0.2-3.1,0.4-4.6,0.6
				C866.5,490.5,866.6,488.6,866.6,486.7z M871.1,493.1c-0.1,2.8-0.1,5.5-0.2,8.3c-1.5,0.2-3.1,0.3-4.6,0.5c0.1-2.8,0.1-5.5,0.2-8.3
				C868,493.4,869.5,493.3,871.1,493.1z M872.5,492.9c1.5-0.2,3-0.4,4.4-0.7c0,2.8,0.1,5.6,0.1,8.4c-1.6,0.2-3.1,0.4-4.7,0.6
				C872.4,498.5,872.4,495.7,872.5,492.9z M882.5,483.9c-1.4,0.3-2.9,0.5-4.3,0.7c0-2.8,0-5.5-0.1-8.3c1.3-0.2,2.6-0.3,3.9-0.5
				C882.1,478.5,882.3,481.2,882.5,483.9z M881.9,474.4c-1.3,0.1-2.6,0.3-3.8,0.4c0-2.4,0-4.8-0.1-7.3c1.2-0.2,2.4-0.4,3.6-0.7
				C881.7,469.4,881.8,471.9,881.9,474.4z M881.4,462.5c0,0.9,0.1,1.9,0.1,2.8c-1.2,0.2-2.4,0.3-3.5,0.5c0-2.2,0-4.3-0.1-6.5
				c1.1,0,2.3,0,3.4-0.1C881.3,460.3,881.3,461.4,881.4,462.5z M881.2,457.7c-1.1,0.1-2.2,0.2-3.3,0.2c0-2.6-0.1-5.3-0.1-7.9
				c1.1-0.1,2.2-0.1,3.2-0.2C881.1,452.5,881.1,455.1,881.2,457.7z M881,448.4c-1.1,0.1-2.2,0.1-3.2,0.1c0-2.3-0.1-4.6-0.1-6.9
				c1.1-0.1,2.2-0.2,3.3-0.4C880.9,443.7,880.9,446.1,881,448.4z M880.9,439.8c-1.1,0.1-2.2,0.2-3.3,0.3c-0.1-2.6-0.1-5.1-0.2-7.7
				c1.2-0.1,2.4-0.2,3.6-0.3C880.9,434.7,880.9,437.2,880.9,439.8z M881,430.6c-1.2,0.1-2.4,0.2-3.7,0.3c0-1.6-0.1-3.1-0.1-4.7
				c1.3-0.1,2.7-0.2,4-0.5C881.1,427.4,881,429,881,430.6z M881.5,420c-0.1,1.5-0.2,2.9-0.3,4.4c-1.4,0.2-2.7,0.4-4.1,0.5
				c-0.1-1.7-0.1-3.4-0.2-5.1C878.5,419.9,880,419.9,881.5,420z M876.4,419.7c0,1.7,0,3.5-0.1,5.2c-1.5,0.1-2.9,0.2-4.4,0.2
				c0-1.9-0.1-3.8-0.1-5.8C873.4,419.6,874.9,419.6,876.4,419.7z M866.9,419c1.5,0.1,2.9,0.3,4.4,0.4c0,1.9,0.1,3.9,0.1,5.8
				c-1.5,0-3.1,0-4.6-0.1C866.8,423.1,866.9,421.1,866.9,419z M860.4,425c1.8,0.4,3.6,0.7,5.4,0.9c0,1.7,0,3.4,0,5.1
				c-1.9-0.1-3.7-0.2-5.6-0.4C860.2,428.7,860.3,426.9,860.4,425z M860.1,431.6c1.8,0.2,3.7,0.4,5.6,0.6c0,1.9,0.1,3.7,0.1,5.5
				c0,1.1,0,2.1,0,3.2c-1.9,0.1-3.9,0.1-5.9,0C860,437.8,860,434.7,860.1,431.6z M859.9,441.7c1.9,0.1,3.9,0.2,5.9,0.2
				c0,2.2,0,4.5,0,6.7c-2,0-4-0.1-5.9-0.3C859.9,446.2,859.9,444,859.9,441.7z M859.8,449.5c2,0.2,4,0.4,5.9,0.5c0,2.7,0,5.3,0,8
				c-2,0-4-0.1-5.9-0.2C859.8,455,859.8,452.2,859.8,449.5z M859.8,458.7c2,0.1,4,0.2,5.9,0.3c0,0.8,0,1.6,0,2.4c0,2,0,4-0.1,5.9
				c-1.9,0.2-3.9,0.4-5.8,0.5C859.8,464.8,859.8,461.8,859.8,458.7z M859.9,468.9c1.9,0,3.9-0.1,5.8-0.1c0,2.6-0.1,5.2-0.1,7.8
				c-1.9,0.3-3.7,0.6-5.6,0.9C859.9,474.6,859.9,471.8,859.9,468.9z M860,478.2c1.9-0.2,3.7-0.3,5.6-0.5c0,2.7-0.1,5.4-0.1,8.1
				c-1.8,0.1-3.6,0.1-5.4,0.1C860.1,483.4,860,480.8,860,478.2z M860.1,486.6c1.8,0.1,3.5,0.1,5.3,0.1c0,2-0.1,3.9-0.1,5.9
				c-1.7,0.2-3.4,0.3-5.1,0.5C860.2,490.9,860.2,488.7,860.1,486.6z M860.3,493.8c1.7,0,3.4-0.1,5-0.2c-0.1,2.8-0.1,5.6-0.2,8.3
				c-1.6,0.1-3.1,0.2-4.7,0.2C860.4,499.4,860.3,496.6,860.3,493.8z M860.6,509.2c0-2-0.1-4-0.1-6c1.5,0,3.1,0,4.6-0.1
				c0,1.7-0.1,3.5-0.1,5.2c0,0.7,1.1,0.7,1.1,0c0-1.7,0.1-3.5,0.1-5.2c1.3-0.1,2.7-0.2,4-0.3c0.2,0,0.4,0,0.6-0.1
				c-0.1,2-0.1,3.9-0.2,5.9C867.3,509,864,509.2,860.6,509.2z M872.2,508.4c0.1-1.9,0.1-3.9,0.1-5.8c1.6-0.1,3.2-0.3,4.8-0.5
				c0,1.8,0,3.7,0.1,5.5c-1.3,0.2-2.7,0.4-4,0.6C872.8,508.3,872.5,508.3,872.2,508.4z M878.3,502c1.9-0.2,3.7-0.5,5.6-0.8
				c0.2,1.8,0.3,3.5,0.5,5.3c-2,0.3-4,0.7-6,1C878.3,505.6,878.3,503.8,878.3,502z"/>
			<path class="st25" d="M846.8,419.4c-1.8,2.3-2.8,5.1-3.8,7.8c-2.5,6.5-5.8,12.8-9.7,18.6c-1.7,2.6-3.6,5.1-4.7,7.9
				c-1.2,2.9-1.5,6.2-0.3,9c1,2.2,2.8,3.8,4.8,5.2c1.5,1,3.1,2,4.9,2c2.6,0,4.8-2,6-4.4c1.1-2.4,1.3-5,1.7-7.6
				c1-7.8,3.3-15.3,5.7-22.7c1.2-3.7,2.5-7.4,3.7-11.2c0.7-2.1,3.2-7.1,0.4-8.7C852.7,413.8,848.3,417.5,846.8,419.4z"/>
			<path class="st26" d="M873.4,372.3c-3.1-0.5-6.3-0.7-9.4-0.9c-3.5,3.8-5.7,8.8-6.8,14c-0.9,4.2-1.2,8.5-0.3,12.7
				c0.9,4.2,3.1,8.1,6.4,10.4c5,3.6,12.1,2.9,17-1c4.9-3.8,7.6-10.3,8.1-16.7c0.4-5.5-0.7-10.9-2.6-16
				C882,373.2,877.1,372.8,873.4,372.3z"/>
			<path class="st27" d="M860.9,654.8c-2.2-2.4-6.1-0.1-9-0.1c-1,0.6-1.1,0.3-1.8,1.1c-1.4,1.6-0.5,2.1-3.2,2.2
				c-2.7,0.1-5.8,1.6-7.7,2.9c-0.3,0.2-0.6,0.5-0.7,0.9c-0.1,0.5,0.5,0.9,1.1,1.1c0.6,0.2,1.4,0.2,2.1,0.2
				c7.2,0.1,10.5-0.1,17.7-0.6c0.6,0,1.3-0.1,1.9-0.4C863.5,661.2,862.1,656.1,860.9,654.8z"/>
			<path class="st27" d="M901.1,658.4c-1.4-0.8-3.3-1.1-5.1-1.1c-1.7,0-3.6,0.2-4.8-0.7c-1.3-0.9-1.4-2.7-3-3.1
				c-0.7-0.2-1.4,0-2,0.1c-1.5,0.3-3,0.5-4.5,0.8c-0.3,0.1-0.6,0.1-0.8,0.3c-1.1,0.8-0.7,4.6-0.4,5.7c0.4,1.3,1.4,2.2,3.1,2.6
				c5.1,1.4,12.9,0,18.1-0.4c0.3,0,0.6,0,0.8-0.2c0.2-0.1,0.3-0.3,0.3-0.4C903.3,660.7,902.5,659.2,901.1,658.4z"/>
			<path class="st28" d="M843.9,377.9c0.8,4.7,5.1,8.2,9.6,9c4.6,0.8,9.3-0.7,13.2-3.2c4.2-2.6,8.2-6.4,13.2-6.6
				c0.9,0,1.9,0.1,2.7,0.5c0.9,0.5,1.5,1.4,2,2.3c2.8,4.9,3.2,10.8,3.6,16.4c1.5-4.9,2.7-9.9,3.6-15c0.9-5.5,1.2-12-2.7-15.9
				c-3-3-7.6-3.5-11.8-2.9c-5.8,0.7-11.5,3.2-16,7c-1.8,1.5-3.4,3.3-5.4,4.6c-1.9,1.3-4.3,2.2-6.6,1.8c-2.5-0.5-3-2.6-4.8-3.9
				C843.7,373.8,843.6,376.1,843.9,377.9z"/>
			<path class="st25" d="M855.5,497.8c-2,21.1-3.2,42.3-4.8,63.5c-0.1,1.5-0.4,3.2-1.7,3.9c-0.7,0.4-1.5,0.4-2.3,0.3
				c-9.5-0.5-9.6-1.2-19-2.5c-1.9-0.3-4.2-0.8-5-2.5c-0.4-0.8-0.4-1.6-0.4-2.5c0-5.3,0.4-10.6,1.3-15.8c1.5-9.3,3.5-19.3,5.4-28.6
				c7.2-35.6,11.8-52.2,16.3-80.1c0.9-5.8,1.8-11.9,5.3-16.5c2.7-3.6,8.7-6.7,13.2-4.6c5,2.3,1.3,11.4,0.7,15.9
				c-2.2,14.7-4.3,29.4-6.2,44.1C857.3,480.9,856.3,489.3,855.5,497.8z"/>
			<path class="st25" d="M881.5,472.1c2.9,31.4,5.7,63,2.5,94.4c-0.1,1-0.1,2.2,0.6,2.8c0.4,0.4,1,0.4,1.6,0.5
				c5.7,0.8,11.4,1.3,17.1,1.4c0.9,0,1.8,0,2.6-0.3c1.5-0.8,2-2.7,2.3-4.4c2.3-15.4-0.5-30.2,0.8-45.7c0.4-5.1-0.2-10.8-0.4-15.9
				c-0.3-7.2-1.9-14.3-3.6-21.3c-5-20.9-5.4-41.8-11-62.5c-1.1-4.2-2.4-8.7-5.8-11.6c-0.6-0.5-1.3-1-2-1c-0.8-0.1-1.6,0.4-2.4,0.8
				c-4.1,2.3-7.3,3-7.3,8c0.1,6.2,1.1,12.5,1.7,18.7C879.3,447.9,881.5,460.2,881.5,472.1z"/>
			<path class="st25" d="M892.9,414.5c2.8,1,4.3,3.9,5.6,6.6c5.2,11.3,8.7,23.4,15.4,33.9c2,3.1,4.4,6.5,3.8,10.2
				c-0.5,3.2-3.7,5.7-6.9,5.6c-3.6-0.1-6.5-3.1-8.5-6.2c-3.6-5.7-5.4-12.4-7.6-18.8c-2.6-7.5-5.9-14.6-9.3-21.8
				c-1-2.1-2.6-4.9-1.1-7.2C885.9,414.4,890.4,413.5,892.9,414.5z"/>
			<g>
				<path class="st29" d="M898.4,456.9c-0.3-0.4-0.4-0.5-0.9-0.6c-0.8-0.1-2.4,0.9-3.1,1.1c-1.5,0.6-3,0.9-4.6,0.7
					c-0.2,0-0.2,0.2,0,0.3c0.1,0,0.1,0,0.2,0c-0.1,0.1-0.2,0.2-0.2,0.4c0.2,3,1.2,5.7,2.1,8.5c0.9,2.7,1.1,5.6,2.3,8.2
					c0.8,1.7,2.1,3.2,3.9,3.6c1.6,0.3,2.8-0.5,3.3-2.1c0.6-2.3,0.3-5.1-0.3-7.3c-0.8-2.8-1.4-5.4-1.8-8.3
					C899.2,460.2,899.2,458,898.4,456.9z"/>
				<path class="st30" d="M895.7,436.9c-0.8-1.5-3.6-1.2-4.9-1.1c-2.8,0.4-5.6,1.3-8.1,2.5c-0.1,0-0.1,0.2,0,0.2
					c-0.2,0.2-0.4,0.5-0.5,0.8c-0.5,1.5,1.2,1.9,2.3,1.9c-0.2,0.2-0.2,0.6,0.1,0.6c0,0,0.1,0,0.1,0c1.6,5.8,3.4,11.5,4.8,17.3
					c1.4,5.7,2.5,11.6,4.8,17c0.4,0.9,0.7,2,1.5,2.5c0.8,0.5,2.1,0.6,3,0.6c1.7,0,3.4-0.8,3.7-2.6c0.2-1-0.1-2.2-0.3-3.3
					c-0.2-1.6-0.5-3.1-0.8-4.7c-0.6-3.1-1.2-6.2-1.9-9.3c-1.5-6.8-2.7-13.8-4.9-20.4c0-0.1-0.1-0.1-0.1-0.2
					C895.5,438.5,896.2,437.8,895.7,436.9z M883.6,439c0.3-0.3,1.4-0.4,1.8-0.5c1.4-0.4,2.8-0.7,4.2-1.1c0.6-0.1,1.1-0.3,1.7-0.4
					c0.5-0.1,1-0.2,1.5-0.2c0.9-0.2,1.3,0.2,1.4,1.1c-0.3,0.1-0.3,0.4-0.2,0.6c-1,0.8-2.7,1.2-3.9,1.6c-1.4,0.4-2.8,0.6-4.2,0.6
					C885.3,440.6,882,440.7,883.6,439z M898.7,459.2c0.7,3.1,1.3,6.2,1.9,9.2c0.3,1.7,0.6,3.3,0.9,5c0.1,0.9,0.4,1.9,0.3,2.8
					c-0.1,1.7-1.5,2.4-3,2.4c-1.3,0-2.4-0.1-3.3-1.3c-0.5-0.7-0.9-1.9-1.2-2.7c-0.6-1.5-1.1-3.1-1.5-4.7c-0.8-3-1.5-6-2.2-9
					c-1.5-6.4-3.2-12.8-5.5-19c3.1-0.3,6.1-1,8.9-2.1C896.1,446.1,897.3,452.7,898.7,459.2z"/>
				<g>
					<path class="st31" d="M892.7,447.5c0.3-0.1,0.6-0.1,1-0.2c0.3,0,0.6,0,0.9-0.1c0.3-0.1,0.3-0.5-0.1-0.5c-0.3,0-0.6,0.1-0.9,0.2
						c-0.3,0.1-0.7,0.1-1,0.2C892.3,447.2,892.4,447.5,892.7,447.5z"/>
					<path class="st31" d="M895.1,449.8c-0.7,0.3-1.3,0.4-2.1,0.5c-0.2,0-0.3,0.4,0,0.4c0.7,0,1.5-0.1,2.2-0.2
						C895.7,450.3,895.5,449.6,895.1,449.8z"/>
					<path class="st31" d="M896.3,455.5c0.4-0.1,0.1-0.7-0.2-0.6c-0.3,0.1-0.5,0.2-0.7,0.2c-0.3,0.1-0.5,0.1-0.8,0.1
						c-0.3,0-0.3,0.4,0,0.4C895.1,455.7,895.8,455.7,896.3,455.5z"/>
					<path class="st31" d="M897.1,459.4c-0.4,0.3-0.9,0.3-1.4,0.4c-0.3,0-0.3,0.5,0,0.5c0.6,0,1.1-0.1,1.7-0.2
						C897.8,459.9,897.6,459.1,897.1,459.4z"/>
					<path class="st31" d="M897.9,463.7c-0.4,0.2-0.8,0.3-1.2,0.3c-0.3,0-0.3,0.5,0,0.5c0.5,0,1,0,1.5-0.2
						C898.7,464.3,898.4,463.5,897.9,463.7z"/>
					<path class="st31" d="M899.1,468.6c-0.5,0.1-1.1,0.3-1.6,0.4c-0.3,0.1-0.2,0.6,0.1,0.5c0.5-0.1,1.1-0.1,1.6-0.2
						C899.7,469.3,899.6,468.5,899.1,468.6z"/>
					<path class="st31" d="M899.9,471.9c-0.4,0.1-0.7,0.2-1.1,0.2c-0.3,0-0.4,0.5-0.1,0.5c0.4,0.1,0.8,0.1,1.3,0.1
						C900.6,472.7,900.4,471.8,899.9,471.9z"/>
				</g>
			</g>
			<path class="st26" d="M899.7,454c-0.6-0.4-1.4-0.8-2-0.4c-0.2,0.2-0.3,0.4-0.5,0.6c-0.7,0.6-1.7,0.2-2.6-0.2c-1-0.5-2-0.9-3.1-1
				c-1.1-0.1-2.3,0.2-3,1c-1.2,1.2-1,3.2-0.4,4.8c0.4,1.1,0.9,2.1,1.8,2.8c0.7,0.5,1.5,0.8,2.3,1.1c2.3,0.8,4.6,1.4,7,1.9
				c1.3,0.3,2.8,0.5,4,0C908.9,462.5,902.2,455.7,899.7,454z"/>
			<g>
				<path class="st32" d="M827.4,449c1.8-0.8,3.7-1.3,5.7-1.5c0.6-0.1,1.2-0.1,1.7,0.1c0.4,0.2,0.7,0.5,1,0.9c1.7,2,3.4,3.9,5.1,5.9
					c1.1,1.3,2.3,2.6,3.2,4c1.2,1.9,2,4,2.4,6.2c0.1,0.4,0.1,0.8,0,1.2c-0.3,1.1-1.4,1.7-2.5,2.1c-6.1,2.5-12.3,5-18.9,5.3
					c-0.8,0-1.6,0-2.3-0.4c-1.4-0.8-1.6-2.7-1.5-4.3c0.1-4.3,0.4-8.5,0.9-12.8c0.1-1.3,0-3.8,0.8-4.9
					C823.7,449.9,826.2,449.5,827.4,449z"/>
				<path class="st30" d="M846.3,461.6c-1-1.8-2.1-3.6-3.1-5.3c-2.1-3.4-4.5-6.5-7.3-9.4c-2-2-3.4-3.9-4-6.7
					c-0.5-2.3-0.5-4.6-1.2-6.8c-0.2-0.5-0.3-0.9-0.5-1.2c1.3-0.4,2.4-0.9,3.2-1.7c1.2-1.3,1.1-3.5-0.4-4.5c-2.1-1.5-6.1-0.6-8.4,0
					c-1.3,0.3-3.2,0.8-4.8,1.5c-0.1,0-0.2,0-0.4,0.1c-0.3,0.2-0.5,0.3-0.7,0.5c-0.7,0.4-1.2,0.9-1.6,1.5c-1.4,2.3,0,3.2,2.3,3.5
					c0.5,0.2,1.1,0.3,1.7,0.3c1.3,4.3,1.2,8.6,0.9,13.1c-0.3,4.6-0.5,9.2-0.8,13.9c-0.1,2.3-0.3,4.6-0.4,6.9
					c-0.1,1.5-0.6,3.6,0.2,5.1c1.2,2.5,5.1,2.1,7.3,1.7c4.5-0.7,9-2.3,13.3-4c2.4-1,6.2-1.8,6.3-4.9
					C847.6,463.9,846.9,462.7,846.3,461.6z M819.8,430.7c-0.7-0.5-0.9-0.9-0.9-1.3l0.5-0.3c0.5-0.6,2-0.9,2.7-1.2
					c1.5-0.6,3.1-0.9,4.7-1.1c1.3-0.2,3.3-0.6,4.6,0c2.2,0.9,0.6,2.9-0.6,3.6c-0.6,0.4-1.5,0.5-2.3,0.7c-1.7,0.4-3.5,0.7-5.2,0.9
					c-0.6,0-1.3,0.2-1.8,0.1C820.6,432.2,820,431.8,819.8,430.7z M839.1,469.6c-4.2,1.6-9.4,3.7-14,3.6c-4.4-0.1-3.5-4.3-3.3-7.3
					c0.1-2.5,0.3-5,0.4-7.4c0.3-4.7,0.6-9.5,0.8-14.2c0.1-3.6,0-7.1-1.3-10.4c1.3-0.2,2.5-0.3,3.8-0.5c0.9-0.1,3-0.8,3.8,0
					c1,1.1,0.9,4.5,1.1,6c0.6,3.8,2.2,6.2,4.9,8.9c3.3,3.3,5.8,7.1,8.2,11.1c0.9,1.5,3,4.1,2.9,6C846,467.7,840.9,468.9,839.1,469.6
					z"/>
				<g>
					<path class="st31" d="M826,440.2c0.5-0.1,0.3-1-0.2-0.8c-0.6,0.3-1.2,0.4-1.8,0.5c-0.2,0-0.3,0.3,0,0.3
						C824.7,440.3,825.4,440.3,826,440.2z"/>
					<path class="st31" d="M826.9,443.6c-0.7,0.3-1.4,0.5-2.1,0.6c-0.3,0.1-0.2,0.5,0.1,0.5c0.7-0.2,1.4-0.3,2.1-0.3
						C827.8,444.3,827.5,443.3,826.9,443.6z"/>
					<path class="st31" d="M828,450.9c0.8,0.1,0.5-1.1-0.1-0.7c-0.6,0.4-1.5,0.5-2.2,0.6c-0.3,0.1-0.2,0.5,0.1,0.5
						c0.3-0.1,0.6-0.1,1-0.2C827.2,451,827.7,450.8,828,450.9z"/>
					<path class="st31" d="M829.9,456.7c0.5-0.2,0.4-0.9-0.1-0.9c-0.5,0-1,0.2-1.5,0.3c-0.5,0.1-0.9,0.2-1.4,0.4
						c-0.3,0.1-0.1,0.5,0.1,0.5c0.5,0,1,0,1.5-0.1C829,456.9,829.5,456.9,829.9,456.7z"/>
					<path class="st31" d="M830.5,461.5c-0.9,0.2-1.7,0.6-2.5,0.9c-0.4,0.2-0.1,0.8,0.3,0.6c0.8-0.3,1.6-0.4,2.4-0.6
						C831.3,462.3,831.1,461.4,830.5,461.5z"/>
					<path class="st31" d="M832.1,467c-0.9,0.3-1.9,0.6-2.7,1c-0.4,0.2-0.1,0.8,0.3,0.6c0.9-0.3,1.7-0.6,2.6-0.6
						C833,468,832.8,466.8,832.1,467z"/>
				</g>
			</g>
			<path class="st26" d="M822.5,439.8c0.4-0.7,0.9-1.4,1.6-1.7c0.6-0.3,1.3-0.3,1.9-0.5c1.7-0.5,2.8-2.5,4.6-2.6
				c0.7-0.1,1.5,0.2,2.1,0.6c1.3,0.8,2.3,2,2.6,3.4c0.2,1.4-0.4,2.8-1.3,3.9c-0.9,1.1-2,1.9-3.1,2.8c-1.6,1.3-3.1,2.8-4.5,4.4
				c-1.1,1.3-2.4,2.8-4.1,2.5c-0.7-0.1-1.4-0.7-1.9-1.2C817.3,447.7,820.4,443.2,822.5,439.8z"/>
			<g>
				<path class="st16" d="M879.3,421.2c-0.8,0.8-1.8,1.6-2.8,1.4c-0.6-0.1-1.1-0.6-1.5-1c-0.5-0.6-1-1.3-1.4-2
					c-0.3-0.5-0.5-1.1-0.5-1.8c0-1,0.8-1.9,1.5-2.6c2.3-2.3,5-4.2,7.9-5.7c0.9-0.5,1.8-0.9,2.8-0.6c1.4,0.4,2.1,2,2.5,3.4
					c0.3,1.1-0.3,1.2-1,1.8c-0.9,0.8-1.7,1.7-2.6,2.5C882.6,418,881,419.6,879.3,421.2z"/>
				<path class="st24" d="M884.2,414c-0.1,0.1-0.2,0.2-0.3,0.2c-0.2-0.6-0.5-1.3-0.7-1.9c0.4-0.3,0.7-0.6,1.1-0.8
					c0.4-0.3-0.1-0.8-0.5-0.6c-0.3,0.2-0.6,0.4-0.9,0.6c-0.1-0.2-0.1-0.3-0.2-0.5c-0.1-0.3-0.7-0.2-0.5,0.1c0.1,0.2,0.1,0.4,0.2,0.6
					c-1,0.7-2,1.5-3,2.3c-0.2-0.4-0.3-0.8-0.4-1.2c-0.1-0.3-0.5-0.2-0.4,0.1c0.2,0.5,0.3,0.9,0.5,1.4c-0.9,0.8-1.8,1.7-2.7,2.6
					l0-0.1c0-0.2-0.3-0.1-0.3,0.1c0,0.1,0,0.1,0,0.2c-0.7,0.7-1.4,1.4-2.1,2.1c-0.2,0.2,0.1,0.4,0.3,0.3c0.6-0.6,1.3-1.2,2-1.7
					c0.1,0.5,0.3,1.1,0.4,1.6c0,0.2,0.3,0.1,0.3-0.1l-0.4-1.7c0.9-0.8,1.9-1.5,2.8-2.2c0.2,0.8,0.5,1.6,0.8,2.4
					c-0.8,0.8-1.7,1.6-2.6,2.3c-0.2,0.2,0.1,0.5,0.3,0.3c0.9-0.6,1.7-1.3,2.6-1.9c0,0.1,0,0.1,0.1,0.2c0.1,0.3,0.7,0.1,0.6-0.2
					c0-0.1-0.1-0.2-0.1-0.3c1.4-1.1,2.7-2.2,3.8-3.5C885,414.2,884.5,413.8,884.2,414z M880.6,417.3c-0.3-0.8-0.6-1.5-0.9-2.3
					c1-0.7,2-1.5,3-2.2c0.2,0.7,0.4,1.3,0.7,2c0,0,0,0,0,0C882.5,415.6,881.5,416.4,880.6,417.3z"/>
			</g>
			<g>
				<path class="st16" d="M866.1,414.3c0.7,0.7,1.2,1.5,1.7,2.3c0.3,0.5,0.6,1,0.6,1.5c0.1,0.8-0.3,1.6-0.6,2.5
					c-0.4,1.3-0.5,2.8-1.7,3.4c-1,0.4-2.1-0.2-3.1-0.8c-1.3-0.8-2.7-1.7-4-2.5c-0.5-0.4-1.1-0.7-1.5-1.2c-0.6-0.7-0.9-1.6-1-2.4
					c-0.2-1.8,0.7-4.7,2.7-5.2C861.5,411.2,864.5,412.6,866.1,414.3z"/>
				<path class="st24" d="M867.1,417.9c-0.6-0.5-1.3-0.9-1.9-1.3c0.1-0.2,0.2-0.4,0.2-0.6c0.1-0.4-0.5-0.6-0.7-0.2
					c0,0.1-0.1,0.3-0.1,0.4c-1.2-0.7-2.3-1.4-3.6-2.1c0.1-0.1,0.1-0.3,0.2-0.4c0.2-0.4-0.3-0.7-0.5-0.3c-0.8,1.4-1.4,2.8-2.2,4.2
					c-0.2-0.1-0.3-0.2-0.5-0.3c-0.2-0.1-0.5,0.2-0.2,0.4c0.2,0.1,0.3,0.2,0.5,0.3c0,0,0,0.1-0.1,0.1c-0.1,0.2,0.2,0.4,0.4,0.2
					c0,0,0-0.1,0.1-0.1c1.3,0.8,2.7,1.6,4,2.3c-0.3,0.7-0.7,1.5-0.9,2.2c-0.1,0.2,0.2,0.3,0.3,0.1c0.3-0.7,0.6-1.4,1-2.1
					c0.4,0.2,0.8,0.4,1.2,0.6c0.2,0.1,0.4-0.2,0.2-0.3c-0.4-0.2-0.8-0.5-1.2-0.7c0.6-1.2,1.3-2.3,1.8-3.5c0.6,0.4,1.3,0.8,1.9,1.2
					C867.1,418.1,867.2,417.9,867.1,417.9z M863,420.1c-1.3-0.8-2.7-1.5-4-2.3c0.7-1.1,1.4-2.3,2-3.5c1.2,0.7,2.4,1.4,3.6,2.1
					C864.1,417.7,863.5,418.9,863,420.1z"/>
			</g>
		</g>
		<g>
			<path class="st33" d="M881.2,383.2c1.6-0.1,3.6,0.1,4.3,1.6c0.2,0.5,0.2,1.1,0.2,1.7c0,2.9,0,5.7,0,8.6
				c-7.7,1.1-15.5,1.8-23.2,1.9c-2,0-4.1,0-5.8-0.9c-0.7-0.4-1.4-0.9-1.7-1.7c-0.2-0.5-0.2-1.1-0.3-1.6c-0.1-1.9-1.2-6.5,0.2-8.1
				c1.2-1.4,4.1-0.7,5.7-0.7C867.4,383.9,874.3,383.4,881.2,383.2z"/>
			<g>
				<path class="st12" d="M882.6,385.8c-6.4,0.2-12.8,0.4-19.2,0.3c-0.3,0-0.3,0.6,0,0.6c6.4-0.2,12.8-0.3,19.2-0.5
					C882.8,386.2,882.8,385.8,882.6,385.8z"/>
				<path class="st12" d="M883.5,389c0.3,0,0.3-0.6,0-0.6c-6.6,0-13.1,0.1-19.7,0.7c-0.2,0-0.2,0.4,0,0.4
					C870.4,389.1,877,388.9,883.5,389z"/>
				<path class="st12" d="M884.5,390.5c-6.9,0.4-13.8,0.8-20.6,1.2c-0.2,0-0.2,0.3,0,0.3c6.9-0.3,13.8-0.5,20.6-0.8
					C884.9,391.2,884.9,390.5,884.5,390.5z"/>
				<path class="st12" d="M860.8,385c-1.4,0-2.8,0.2-4.2,0.2c-0.1,0-0.2,0.1-0.2,0.2c-0.2-0.1-0.4,0-0.4,0.3
					c0.2,1.9,0.2,3.7,0.2,5.6c-0.4,0-0.4,0.7,0,0.8c1.1,0.2,2.3,0,3.4,0c0.1,0,0.2-0.3,0-0.3c-1-0.2-2-0.4-3-0.5
					c0.2-1.9,0.2-3.7,0-5.6c0,0,0-0.1,0-0.1c1.4,0,2.8,0.2,4.1,0C861.2,385.7,861.2,385,860.8,385z"/>
				<path class="st12" d="M861,385.9c0-0.2-0.2-0.2-0.2,0c-0.1,1.9-0.2,3.9-0.1,5.8c0,0.3,0.4,0.3,0.4,0
					C861,389.8,860.9,387.8,861,385.9z"/>
			</g>
		</g>
	</g>
</g>
<g>
	<defs>
		<filter id="Adobe_OpacityMaskFilter_4_" filterUnits="userSpaceOnUse" x="242" y="573.3" width="107.4" height="11.1">
			<feFlood  style="flood-color:white;flood-opacity:1" result="back"/>
			<feBlend  in="SourceGraphic" in2="back" mode="normal"/>
		</filter>
	</defs>
	<mask maskUnits="userSpaceOnUse" x="242" y="573.3" width="107.4" height="11.1" id="SVGID_7_">
		<g class="st34">
			<defs>
				<filter id="Adobe_OpacityMaskFilter_5_" filterUnits="userSpaceOnUse" x="242" y="573.3" width="107.4" height="11.1">
					<feFlood  style="flood-color:white;flood-opacity:1" result="back"/>
					<feBlend  in="SourceGraphic" in2="back" mode="normal"/>
				</filter>
			</defs>
			<mask maskUnits="userSpaceOnUse" x="242" y="573.3" width="107.4" height="11.1" id="SVGID_7_">
				<g class="st35">
				</g>
			</mask>
			
				<linearGradient id="SVGID_8_" gradientUnits="userSpaceOnUse" x1="-3004.2063" y1="1503.3335" x2="-2869.0234" y2="1503.3335" gradientTransform="matrix(-0.7929 3.910000e-02 2.660000e-02 0.5403 -2072.8149 -117.674)">
				<stop  offset="0" style="stop-color:#FFFFFF"/>
				<stop  offset="1" style="stop-color:#000000"/>
			</linearGradient>
			<path class="st36" d="M326,584.2c-6.8,0.2-13.6,0.2-20.3,0.1c-18.9-0.2-37.8-0.4-56.7-0.6c-2.9,0-6.7-0.6-6.9-2.6
				c-0.2-1.8,2.8-3,5.4-3.5c9.1-2,18.6-2.4,28-2.8c13.8-0.5,27.7-1,41.5-1.4c8.6-0.2,17.5-0.4,25.6,1.5c4.4,1.1,10.9,5.6,3.8,7.9
				c-1.9,0.6-5.9,0.4-7.9,0.5C334.2,583.8,330.1,584.1,326,584.2z"/>
		</g>
	</mask>
	
		<linearGradient id="SVGID_9_" gradientUnits="userSpaceOnUse" x1="-3004.2063" y1="1503.3335" x2="-2869.0234" y2="1503.3335" gradientTransform="matrix(-0.7929 3.910000e-02 2.660000e-02 0.5403 -2072.8149 -117.674)">
		<stop  offset="0" style="stop-color:#000000"/>
		<stop  offset="1" style="stop-color:#000000"/>
	</linearGradient>
	<path class="st37" d="M326,584.2c-6.8,0.2-13.6,0.2-20.3,0.1c-18.9-0.2-37.8-0.4-56.7-0.6c-2.9,0-6.7-0.6-6.9-2.6
		c-0.2-1.8,2.8-3,5.4-3.5c9.1-2,18.6-2.4,28-2.8c13.8-0.5,27.7-1,41.5-1.4c8.6-0.2,17.5-0.4,25.6,1.5c4.4,1.1,10.9,5.6,3.8,7.9
		c-1.9,0.6-5.9,0.4-7.9,0.5C334.2,583.8,330.1,584.1,326,584.2z"/>
	<g>
		<path class="st38" d="M321.4,263.6c1,16.3,4.7,32.3,10.9,47.4c-12.1,2.2-24.7,4.5-36.7,1.5c-1.1-0.3-2.2-0.6-3-1.4
			c-0.9-1-1.2-2.4-1.4-3.7c-1.5-10.7-1.8-21.6-0.9-32.3c0.2-2.6,0.5-5.2,1.5-7.5c0.9-2.1,2.4-4,4.1-5.7
			C303.7,254,320.4,247.4,321.4,263.6z"/>
		<g>
			<path class="st39" d="M309.3,293.3c-2.1,1.1-4.1,1.9-5.6,2.1c-1.8,0.2-3.5-0.5-5.2-1.1c-3.4-1.4-7-3-9-6.1
				c-1.2-1.8-1.7-4-2.1-6.1c-1.1-5.3-1.9-10.7-2.5-16.1c-0.3-2.8-0.5-5.7,0.8-8.2c2.1-4.2,7.4-5.5,12-6.3c4.6-0.8,9.4-1.6,13.7,0.1
				c4.5,1.8,3.9,5.3,4.7,9.4c1,5.2,1.8,10.4,2.5,15.6c0.4,3,0.6,6.1-0.6,8.8C316.8,288.1,313,291.2,309.3,293.3z"/>
			<path class="st40" d="M275.8,492.6c1.1-23.4-1.2-47.2-1-70.7c-0.7-8.1,0.4-16.4,3.3-24.1c0.2-0.5,0.4-1,0.7-1.3
				c1.1-1.1,3-0.5,4.4,0.1c13.9,5.8,30.4,4.4,43.1-3.7c2.5,3.8,3.2,8.5,3.8,13.1c1,7.3,2.1,14.7,2.4,22c0,0,0,0,0,0h0
				c0.1,1.6,0.1,3.2,0.1,4.8c-0.2,9.2-1.9,18.2-3.3,27.3c-0.9,5.9-1.7,11.9-1.8,17.8c-0.1,4.9,0.6,9.4-0.5,14.2
				c-2.7,11.8-2.7,24.7-3.8,36.8c-1.2,12.9-1.4,12.5-2.4,25.5c0,0.5-0.1,1-0.1,1.5c-0.6,0.2-10.6,2.5-10.6-0.1
				c-0.8-25.1-2.6-36.9-3.4-62c-0.3-10.6,0.4-46.3-2.2-56.4c-1.1,0.1-2.2,0.2-3.3,0.3c-6.1,33.3-12.2,78.1-18.3,111.4
				c-0.5,2.9-1.2,6.1-3.1,8c-1.9,1.9-5.5,1.4-6.1-1.6C275.4,530.1,274.6,518,275.8,492.6z"/>
			<g>
				<path class="st8" d="M302.9,320c0,0,0.1,0,0.1,0C303,320,302.9,320,302.9,320z"/>
				<path class="st8" d="M302.6,319.9C302.6,319.9,302.7,319.9,302.6,319.9C302.7,319.9,302.6,319.9,302.6,319.9z"/>
				<path class="st41" d="M302.7,320C302.7,319.9,302.7,319.9,302.7,320c0,0,0.1,0,0.1,0C302.8,320,302.8,320,302.7,320z"/>
			</g>
			<path class="st39" d="M249.5,403.5c0.8-1.8,2.1-3.2,3.1-4.8c3-16.9,6-33.7,9.5-50.5c1.7-8.1,3.4-16.2,6.9-23.8
				c3.3-7.2,7.7-13.8,12.1-20.3c0-0.3,1.9-0.6,2.2-0.6c5.8-0.7,7.1,5.1,6.2,10.2c-1.5,9-9,16.8-13.2,24.5c-5.1,9.3-7.8,20.1-11,30.1
				c-3.3,10.3-6.4,20.7-8.6,31.3l0,0c0.6,1.5,0.8,3.4,1,4.2c0.3,1,0.5,2.2-0.5,3c-0.5,0.4-0.9,0.2-1.4,0.3c-1.1,0.3-2.6,1.2-3.2,2.2
				c-0.2,0.3-0.2,0.7-0.4,1c-1.3,1.9-3.4,0.7-3.7-1.3C248.3,407.3,248.8,405.2,249.5,403.5z"/>
			<path class="st39" d="M317.8,304c-2.5,0-4.3,1.4-4.4,3.3c0.2,0.9,0.6,1.8,0.7,2c4,11.1,7.5,20.5,12.7,31.3c1,2.1,2.5,6.7,6.3,6.4
				c3.9-0.3,4-4.4,3.7-6.8c-0.8-5.5-2.7-11.1-4.6-16.5c-1.7-4.8-3.1-9.9-6.3-14.3C324.2,307.2,321.5,304,317.8,304z"/>
			<path class="st42" d="M272.7,395.2c5.4-9.7,8.2-20.9,6.8-31.9c-1.1-8.3-4.4-16.7-2.2-24.7c1.2-4.2,3.7-7.8,6-11.5
				c5.1-8.5,8.7-17.9,10.4-27.6c0.1-0.5,0.2-1,0.5-1.4c0.7-0.7,2-0.3,3,0c3.4,1.3,7.3,1.5,10.8,0.6c2-0.5,2.5-1.3,3.7,0.4
				c1,1.4,1.5,3.9,2.2,5.5c2.9,7.5,5.4,15.2,6,23.3c0.3,4,0.1,8.2,1.3,12c1,3.2,2.8,6,4.3,8.9c5.4,10.8,6,23.3,10,34.7
				c0.6,1.9,1.4,3.7,1.6,5.7c0.2,2-0.2,4.1-1.6,5.5c-1,1-2.4,1.5-3.7,1.9c-1.9,0.7-3.9,1.4-5.8,2c-2.7,0.9-5.4,1.9-8.2,2.4
				c-3.4,0.7-6.9,0.7-10.4,0.7c-6.4,0.1-12.8,0.1-19.2,0.2c-3.6,0-7.3,0.1-10.9-0.2c-2.4-0.2-5.5-1.2-5.7-3.6
				C271.6,397.1,272.1,396.1,272.7,395.2z"/>
			<path class="st43" d="M312.8,554.8c-0.7,0-1.5-0.1-2.1,0.2c-0.7,0.4-1.1,1.3-1.3,2.1c-1.3,5,0.7,10.1,1.2,15.2
				c0.3,3,0.2,6.1,0.6,9.1c1-0.1,2.1-0.2,3.1-0.3c-0.2-1.8-0.2-3.6,0-5.4c0.1-0.6,0.2-1.2,0.5-1.6c0.3-0.5,1-0.8,1.5-0.6
				c0.5,0.2,0.7,0.7,0.9,1.2c0.4,1.1,0.8,2.3,1,3.4c0.1,0.6,0.3,1.3,0.7,1.8c0.7,0.8,1.9,0.8,2.9,0.8c3.8-0.1,7.6-0.1,11.4-0.2
				c1.6,0,3.5-0.2,4.5-1.4c1.3-1.5,0.5-4-0.9-5.3c-1.4-1.4-3.4-2.1-5-3.1c-1.8-1.2-3.4-2.8-4.5-4.6c-1.9-3.2-1.9-8.1-4.4-10.9
				c-1-1.2-2.2-1-3.6-0.7C317.1,554.8,315,555,312.8,554.8z"/>
			<path class="st43" d="M273,550.9c-0.3,0-0.7,0-1,0.2c-0.2,0.1-0.3,0.4-0.4,0.6c-1.4,2.8-1.3,6.1-1.9,9.2
				c-0.8,4.4-2.8,8.4-4.5,12.5c-0.5,1.2-0.9,2.4-0.9,3.7c0.1,2.5,2.1,4.7,4.4,5.6c2.3,0.9,5,0.7,7.4,0.3c0.5-0.1,1-0.2,1.5-0.4
				c0.5-0.2,0.9-0.6,1.2-1c3-3.3,3.2-8.2,3.3-12.6c0.1-2.5,0.2-5.1,0.5-7.6c0.2-2.2,1-4.9,0.6-7c-0.3-1.8-1.7-1.9-3.2-2.1
				C277.7,551.7,275.4,551,273,550.9z"/>
			<g>
				<path class="st44" d="M334,379c-6-0.9-12-1.4-18-1.6c-1.3,0-2.6-0.1-3.8-0.5c-2-0.6-3.6-2.1-5.1-3.5c-4-3.8-7.8-7.7-11.4-11.9
					c17.1,0.4,34.2,1,51.3,1.8c0.5,0,1,0,1.4,0.2c0.6,0.3,1,0.8,1.4,1.3c2.1,2.7,4.2,5.3,6.5,7.8c2.3,2.5,5.4,4.4,7.5,7
					c3,3.5-3.5,2.8-5.6,2.7c-3.8-0.2-7.6-0.7-11.4-1.3C342.5,380.4,338.3,379.6,334,379z"/>
			</g>
			<path class="st39" d="M342.2,377.6c1.1-0.6,2.3-0.9,3.5-1.5c1.5-0.7,2.8-1.7,3.8-3c0.4-0.6,0.8-1.2,1.4-1.6
				c1.2-0.9,3.1-0.5,4.1,0.7c1,1.1,1.3,2.8,1.1,4.3c-0.2,1.5-0.9,2.9-1.6,4.2c-0.3,0.6-0.7,1.3-1.2,1.8c-2.4,2.5-8.5,1.1-11.3,0.1
				c-0.6-0.2-1.1-0.4-1.5-0.9c-0.2-0.3-0.3-0.7-0.3-1.1C340.1,379.3,341.1,378.2,342.2,377.6z"/>
			<g>
				<g>
					<path class="st44" d="M313.7,325.1c-2.5,14.9-3.9,29.9-4,44.9c0,1.4,0,3,1,4.1c1.2,1.4,3.4,1.7,5.3,1.8
						c11.7,1.1,23.4,2.2,35.1,3.2c4.2,0.4,8.5,0.8,12.7,0.3c0.8-0.1,1.6-0.2,2.2-0.7c0.7-0.5,0.9-1.3,1.1-2.1
						c2.4-8.4,4.4-16.9,5.9-25.4c0.8-4.8,1.5-9.6,2.1-14.3c0.7-5.5-0.9-7.9-6.7-8.1c-6-0.2-12.1-1.3-18.1-1.9
						C347.2,326.7,313.9,324,313.7,325.1z"/>
				</g>
				<path class="st8" d="M334.8,358.6c4.2,0.1,8.2,0.6,12.2,1.7c0,0,0.1,0,0.1,0c0.5,0.3,1.3-0.1,1.2-0.9c-1-5.3-3.4-10-3.9-15.4
					c-0.1-0.7-1-1.1-1.5-0.4c-2.6,4.8-5.6,9.4-8.8,13.9C333.8,357.9,334.3,358.6,334.8,358.6z M346.5,358.5
					c-3.4-0.8-6.8-1.3-10.2-1.4c2.5-3.5,4.8-7,6.9-10.7c0.3,1.8,0.6,3.5,1.1,5.3C344.9,353.9,345.9,356.2,346.5,358.5z"/>
			</g>
		</g>
		<path class="st42" d="M264.3,478.7c0,2.3,0,4.7,1.3,6.6c0.7,1.1,1.7,1.9,2.8,2.6c6.3,4.1,14.2,4.9,21.8,5.3
			c11.8,0.6,23.6,0.3,35.3-0.8c3-0.3,6-0.6,8.7-1.8c2.8-1.2,5.3-3.2,7.2-5.5c5.7-6.7,7.8-15.6,7.7-24.3s-2.3-17.1-4.2-25.5
			c-3.3-14.1-6-28.4-8.1-42.7c-0.2-1.4-0.5-3-1.8-3.8c-0.8-0.5-1.9-0.6-3-0.6c-17.9-0.2-36.6-0.3-53.5,6.2c-4.3,1.7-6.1,2.2-6.9,6.6
			c-0.8,5-1.7,9.9-2.5,14.9c-1.4,9.7-2.6,19.5-3.4,29.3C264.9,456.3,264.4,467.5,264.3,478.7z"/>
		<path class="st38" d="M316.7,250.3c-4.7-5.8-13.1-7.7-20.2-5.6c-7.1,2.1-12.9,7.7-16.4,14.2c-3.5,6.5-5.1,13.9-5.8,21.3
			c-1.4,14.3,0,28.6,1.4,42.9c8.5,0.9,17.1,0.4,25.5-1.4c-4.8-15.3-9.7-30.8-10.2-46.9c-0.1-3.3,0.1-7,2.5-9.4
			c2.1-2.1,5.4-2.5,8.2-3.7c1.5-0.6,2.9-1.8,3.7-3.2l-0.2,2.4c3.4-2.6,9.1,0.9,12.3-1.9C319.8,256.9,318.7,252.8,316.7,250.3z"/>
	</g>
</g>
<g>
	<defs>
		<filter id="Adobe_OpacityMaskFilter_6_" filterUnits="userSpaceOnUse" x="738.2" y="337.2" width="92.7" height="6.1">
			<feFlood  style="flood-color:white;flood-opacity:1" result="back"/>
			<feBlend  in="SourceGraphic" in2="back" mode="normal"/>
		</filter>
	</defs>
	<mask maskUnits="userSpaceOnUse" x="738.2" y="337.2" width="92.7" height="6.1" id="SVGID_10_">
		<g class="st45">
			<defs>
				<filter id="Adobe_OpacityMaskFilter_7_" filterUnits="userSpaceOnUse" x="738.2" y="337.2" width="92.7" height="6.1">
					<feFlood  style="flood-color:white;flood-opacity:1" result="back"/>
					<feBlend  in="SourceGraphic" in2="back" mode="normal"/>
				</filter>
			</defs>
			<mask maskUnits="userSpaceOnUse" x="738.2" y="337.2" width="92.7" height="6.1" id="SVGID_10_">
				<g class="st46">
				</g>
			</mask>
			<linearGradient id="SVGID_11_" gradientUnits="userSpaceOnUse" x1="738.2469" y1="340.2787" x2="830.9097" y2="340.2787">
				<stop  offset="0" style="stop-color:#4D4D4D"/>
				<stop  offset="1" style="stop-color:#000000"/>
			</linearGradient>
			<path class="st47" d="M819.7,342.1c3.4-0.2,6.7-0.5,10-1c0.4-0.1,0.7-0.1,1-0.4c0.6-0.8-0.5-1.7-1.4-2
				c-5.1-1.6-10.6-1.5-15.9-1.3c-19.5,0.5-39.1,0.6-58.6,0.3c-2.5,0-16.1-0.8-16.5,2.6c-0.4,3,14.6,2.5,16.9,2.6
				c13.8,0.6,27.6,0.7,41.4,0.3C804.3,342.9,812,342.6,819.7,342.1z"/>
		</g>
	</mask>
	<linearGradient id="SVGID_12_" gradientUnits="userSpaceOnUse" x1="738.2469" y1="340.2787" x2="830.9097" y2="340.2787">
		<stop  offset="0" style="stop-color:#000000"/>
		<stop  offset="1" style="stop-color:#000000"/>
	</linearGradient>
	<path class="st48" d="M819.7,342.1c3.4-0.2,6.7-0.5,10-1c0.4-0.1,0.7-0.1,1-0.4c0.6-0.8-0.5-1.7-1.4-2c-5.1-1.6-10.6-1.5-15.9-1.3
		c-19.5,0.5-39.1,0.6-58.6,0.3c-2.5,0-16.1-0.8-16.5,2.6c-0.4,3,14.6,2.5,16.9,2.6c13.8,0.6,27.6,0.7,41.4,0.3
		C804.3,342.9,812,342.6,819.7,342.1z"/>
	<defs>
		<filter id="Adobe_OpacityMaskFilter_8_" filterUnits="userSpaceOnUse" x="663.8" y="333.6" width="68.1" height="8.3">
			<feFlood  style="flood-color:white;flood-opacity:1" result="back"/>
			<feBlend  in="SourceGraphic" in2="back" mode="normal"/>
		</filter>
	</defs>
	<mask maskUnits="userSpaceOnUse" x="663.8" y="333.6" width="68.1" height="8.3" id="SVGID_13_">
		<g class="st49">
			<defs>
				<filter id="Adobe_OpacityMaskFilter_9_" filterUnits="userSpaceOnUse" x="663.8" y="333.6" width="68.1" height="8.3">
					<feFlood  style="flood-color:white;flood-opacity:1" result="back"/>
					<feBlend  in="SourceGraphic" in2="back" mode="normal"/>
				</filter>
			</defs>
			<mask maskUnits="userSpaceOnUse" x="663.8" y="333.6" width="68.1" height="8.3" id="SVGID_13_">
				<g class="st50">
				</g>
			</mask>
			<linearGradient id="SVGID_14_" gradientUnits="userSpaceOnUse" x1="663.7968" y1="337.7268" x2="731.9001" y2="337.7268">
				<stop  offset="0" style="stop-color:#4D4D4D"/>
				<stop  offset="1" style="stop-color:#000000"/>
			</linearGradient>
			<path class="st51" d="M730.6,337.7c0.5-0.1,1.2-0.3,1.3-0.9c0.2-0.7-0.7-1.2-1.5-1.4c-3.8-0.8-7.8-0.6-11.8-0.6
				c-8.7,0-17.4-1-26.1-1.3c-7-0.2-14,0-20.8,1.5c-2.1,0.5-7,1-7.8,3.6c-0.7,2.3,1.1,3.2,3,3.1c2.6-0.1,5-0.8,7.6-0.7
				c3.6,0.1,7.2,0.2,10.9,0.2c7.2,0.1,14.5,0,21.7-0.4C714.9,340.4,722.8,339.5,730.6,337.7z"/>
		</g>
	</mask>
	<linearGradient id="SVGID_15_" gradientUnits="userSpaceOnUse" x1="663.7968" y1="337.7268" x2="731.9001" y2="337.7268">
		<stop  offset="0" style="stop-color:#000000"/>
		<stop  offset="1" style="stop-color:#000000"/>
	</linearGradient>
	<path class="st52" d="M730.6,337.7c0.5-0.1,1.2-0.3,1.3-0.9c0.2-0.7-0.7-1.2-1.5-1.4c-3.8-0.8-7.8-0.6-11.8-0.6
		c-8.7,0-17.4-1-26.1-1.3c-7-0.2-14,0-20.8,1.5c-2.1,0.5-7,1-7.8,3.6c-0.7,2.3,1.1,3.2,3,3.1c2.6-0.1,5-0.8,7.6-0.7
		c3.6,0.1,7.2,0.2,10.9,0.2c7.2,0.1,14.5,0,21.7-0.4C714.9,340.4,722.8,339.5,730.6,337.7z"/>
	<g>
		<path class="st53" d="M790,220.7c0-0.4,0-0.9-0.2-1.3c-0.2-0.6-0.7-1-1.2-1.3c-1.9-1.3-4.4-1.4-6.7-1.5
			c-8.8-0.3-17.7-0.4-26.3,1.8c-2.6,0.7-7.1,1.3-8.4,4.2c-1.5,3.5-1,8.8-1.1,12.5c-0.2,5.4-0.2,10.9,0.1,16.3
			c0.2,3.5,0.4,6.9,0.7,10.4c1.1,14.3,1.8,28.2,4.1,42.5c0.7,4.6,1,9.2,1.1,13.9c0,1.7,0.9,13.1-0.5,13.9c-0.1,0-0.2,0.1-0.2,0.2
			c-0.4,0.4-0.7,0.9-0.9,1.4c-0.2,0.5-0.2,1-0.5,1.4c-0.4,0.5-1.1,0.8-1.8,1c-1.8,0.6-3.7,1-5.7,1.2c-0.4,0-0.9,0.1-1.3,0.2
			c-1.1,0.4-1.4,1.4-1.5,2.3c0,0.3,0,0.6,0.3,0.7c0.2,0.1,0.4,0.1,0.6,0.1c5.7-0.1,8.1-0.1,13.7-0.2c1.4,0,2.8-0.1,4.1-0.3
			c0.2,0,0.4-0.1,0.5-0.2c0.1-0.1,0.2-0.2,0.3-0.4c0.7-2,0.8-4.1,0.6-6.1c0-0.4-0.1-0.8-0.5-1c3-24.7,4.9-49.5,7.8-74.2
			c0.2,0,0.4-0.1,0.5-0.1c2.6-0.7,5.1-1.3,7.7-2c1.5-0.4,3.1-0.8,4.2-1.8c0.9-0.8,1.5-1.9,2.1-3c2.9-5.4,5.9-10.9,7.4-16.9
			C789.9,229.8,790.1,225.2,790,220.7z"/>
		<path class="st53" d="M789,332.4c-0.3-13.8-0.7-27.7-1.2-41.5c-0.3-9-1.7-17.4-0.9-26.3c0.9-10.4,1.2-20.9,0.8-31.3
			c-0.1-1.9-0.2-3.9-0.9-5.6c-0.9-2.2-3.1-3.7-4.4-5.4c-0.8-1.1-1.2-2.2-2.2-3.1c-4.4-3.9-11.7-2.9-16.9-1.8c-0.4,0.1-0.7,0.2-1,0.2
			c-0.1,0.1-0.2,0.2-0.3,0.3c-0.1,0.7-0.2,1.5-0.3,2.2c0,0.2,0,0.5,0,0.8c0.1,1.1,0,0.6,0,0c0-0.2,0-0.5-0.1-0.9c0,0.5,0,0.9,0,1.4
			c0.2,4.2,1.1,8.2,1.5,12.4c0.3,3.5,0.3,7.1,0.2,10.7c0.7-0.2,1.5-0.3,2-0.2c1,0.2,16.1,79.3,16.4,89.1c-0.1,0.1-0.1,0.1-0.2,0.2
			c-0.3,0.5-0.5,1-0.6,1.5c-0.1,0.5,0,0.9-0.3,1.4c-0.3,0.5-0.9,0.9-1.5,1.2c-1.6,0.9-3.3,1.6-5.2,2.1c-0.4,0.1-0.8,0.2-1.2,0.4
			c-1,0.6-1.1,1.5-1.1,2.4c0,0.2,0,0.5,0.4,0.6c0.2,0,0.4,0,0.5,0c5.3-1,7.6-1.4,12.9-2.4c1.3-0.2,2.6-0.5,3.8-1
			c0.2-0.1,0.3-0.1,0.4-0.2c0.1-0.1,0.2-0.3,0.2-0.4c0.4-2,0.1-4-0.4-5.8C789.4,332.9,789.3,332.6,789,332.4z"/>
		<path class="st54" d="M717.7,177.2c-0.5,0-0.9-0.4-1.2-0.8c-6.2-7.4-7.1-17.1-7.3-26.3c-0.1-4.4-0.1-8.8,0.6-13.1
			c3.1,0.6,5.3,3,6.3,5.5c1,2.6,0.9,5.3,1,8c0.2,8.2,1.7,16.4,2,24.7C719.1,176.1,718.7,177.3,717.7,177.2z"/>
		<path class="st55" d="M734.1,150.9c-0.2-0.1-0.4-0.1-0.7-0.2c-2.7-6.2-3.4-13.1-4.1-19.9c-0.1-0.7-0.1-1.3,0-2
			c0.1-0.4,0.2-0.9,0.1-1.3c-0.1-0.4-0.6-0.8-1-0.6c0.6-0.9,0.7-2.1,0.2-3.1c-0.7-1.3-2.4-2.3-3.1-0.7c-0.7,1.4-0.7,3.1-0.7,4.6
			c0,8.5,0.3,17,0.7,25.5c0.1,1.4,0.2,3,1.2,4c0.7,0.7,1.8,1,2.8,1.2c8.5,2,17.1,3.4,25.8,4.3c2.1,0.2,4.7,0.1,5.6-1.7
			c0.7-1.4-0.1-3.2-1.3-4.2c-1.3-1-2.9-1.3-4.4-1.7c-6.5-1.3-13-2.7-19.4-4C735.2,151.2,734.7,151,734.1,150.9z"/>
		<path class="st56" d="M744.5,148.7c-0.5,5.3-1,10.7-1.4,16c7.6,0.1,15.2-1.5,22.1-4.7c1.2-5.6,2.3-11.3,3.5-16.9
			C760.3,143.5,752.1,145.4,744.5,148.7z"/>
		<path class="st57" d="M683,184.6c5.3,0.4,10.3-3.2,15.7-3c2.7,0.1,6.1,1,7.6-1.3c0.7-1,0.6-2.3,0.6-3.5
			c-0.5-13.2-0.9-26.4-1.4-39.6c-8.2,2.3-17.1,2-25.1-0.8c0,14.9,0.1,29.8,0.1,44.8c0,1,0.1,2.2,0.8,2.8
			C681.8,184.4,682.4,184.5,683,184.6z"/>
		<g>
			<path class="st58" d="M706.6,336.2c-2.1-3.2-4-6.6-4.9-10.4c-0.4-1.5-0.6-3.1-0.7-4.7c0-0.5,0-1,0.3-1.3c0.3-0.3,0.7-0.4,1.1-0.4
				c2.5-0.4,5.4-0.7,7.3,1.1c0.7,0.7,1.2,1.7,1.6,2.6c2,4.9,2.8,10.2,2.3,15.5c-0.8,1.2-2.6,1.4-3.9,0.8
				C708.3,338.7,707.4,337.5,706.6,336.2z"/>
			<path class="st58" d="M678.4,334.4c2.1-3.2,4-6.6,4.9-10.4c0.4-1.5,0.6-3.1,0.7-4.7c0-0.5,0-1-0.3-1.3c-0.3-0.3-0.7-0.4-1.1-0.4
				c-2.5-0.4-5.4-0.7-7.3,1.1c-0.7,0.7-1.2,1.7-1.6,2.6c-2,4.9-2.8,10.2-2.3,15.5c0.8,1.2,2.6,1.4,3.9,0.8
				C676.6,336.9,677.5,335.7,678.4,334.4z"/>
		</g>
		<path class="st29" d="M672.4,195.4c2.6-19.4,6.1-39.2,3.9-58.2c1.8-1.3,4-1.9,6.2-1.8c0.4,13.6,0.7,27.2,1.1,40.7
			c3.9,0,7.8,0,11.8,0c0,0.2,0.1,0.3,0.2,0.4c2.5,0,5,0,7.5,0c0.4-13.6,0.7-27.2,1.1-40.7c2.2-0.1,4.4,0.5,6.2,1.8
			c-2.2,19.4,2.9,38.7,4.9,58.1c1.6,16,3.5,22.9,2.9,39c-0.9,26.2-4.1,61.6-5,87.8c0,0.7-35.5-0.4-39.5-0.5c0.7,0-3.2-46.7-3.4-50.2
			c-1.1-18.2-2.5-37.1-1.5-55.3C669.1,209.4,671.4,202.9,672.4,195.4z"/>
		<path class="st54" d="M681.5,115.1c0.1-1.5,0.2-3.1,0.6-4.6c1.3-5.2,6.8-12.9,13.2-10.6c1.5,0.5,2.7,1.5,3.9,2.5
			c1.2,1,2.4,2.1,3.4,3.4c1.9,2.4,3.2,5.4,3.4,8.4c0.2,2.8-0.6,5.8-1.4,8.5c-1,3.6-2.6,7.3-5.8,9.2c-4.2,2.6-10.1,0.8-13.3-2.9
			C682.2,125.2,681.3,120,681.5,115.1z"/>
		<path class="st15" d="M687,141.7c0.1-0.3,0.4-0.6,0.7-0.8c0,0,0,0,0,0c-6.5-6.1-8.6-16.3-9.5-22.3c-0.5-3.3-0.4-6.8,0.6-10
			c1-3.2,3-6.2,5.9-7.9c1.3-0.8,2.8-1.3,4.3-1.8c1.2-0.4,2.6-0.7,3.6-0.1c1.3-1,3.2-1.1,4.7-0.5c1.6,0.6,2.9,1.9,4.2,3.2
			c1.9,2,3.7,4.2,5,6.6c2.1,3.8,3.3,8,3.6,12.3c0.1,1.5,0.1,3.1-0.2,4.6c-0.5,2.1-1.7,4-2.9,5.8c-0.2,0.3-0.5,0.7-0.8,0.9
			c-0.4,0.2-0.9,0.2-1.1-0.1c-0.2-0.3-0.1-0.7-0.1-1c1.6-7.4-0.9-15.1-4.5-21.8c-1.6-2.8-3.4-5.6-6.2-7.3c-0.3-0.2-0.5-0.3-0.8-0.2
			c-0.2,0.8-0.6,1.5-1.1,2.2c-2.3,3.4-4.6,6.9-6.9,10.3c-1.3,2-2.7,4.1-2.8,6.5c-0.1,2.7,1.4,5.1,2.6,7.5c1,2.1,5.2,8.4,4,12.4
			c0.3-0.1,0.7-0.2,1-0.3c2.4,3.1,3.5,7.2,2.9,11c-0.2-1.6-2-2.4-3.2-3.5c-1.6-1.2-2.6-3.1-2.8-5.1C687,142.1,687,141.9,687,141.7z"
			/>
		<g>
			<path class="st59" d="M736.1,153.3c-0.8-1-2.3-0.9-3.5-0.7c-5.1,0.7-10.2,1.2-15.3,1.4c-2.6,0.1-11.1-1.5-10.7,2.6
				c0.4,5.2,1.4,10.4,3,15.4c0.5,0.7,1.6,0.7,2.4,0.7c8.4-0.6,17-1.2,25.4-1c0.8,0,1.8-0.1,2.2-0.9c0.3-0.5,0.2-1,0.1-1.6
				c-0.7-4.7-1.5-9.3-2.2-14C736.9,154.5,736.6,154,736.1,153.3z"/>
		</g>
		<path class="st54" d="M727.5,159.1c0.3,0.7,0.1,1.3-0.2,1.7c-2.8,5.2-5.6,10.3-8.4,15.5c-1.2,2.2-2.7,4.5-6.1,4.3
			c-0.9-0.1-1.9-0.4-2.8-1.1c0.1-3.9,2.1-6.6,4.8-8.8c0.6-0.5,1.3-1,1.9-1.6c0.5-0.5,0.9-1.2,1.3-1.8c1-1.6,2-3.3,2.8-5.1
			c0.2-0.3,0.3-0.6,0.3-1c0-0.5-0.2-1.1-0.4-1.7c-0.1-0.6,0-1.1,0.5-1.3c0.1,0,0.1,0,0.2,0c0.2,0.1,0.3,0.3,0.3,0.5
			c0,0.2,0.2,0.4,0.4,0.4c0.4-0.3,0.1-1,0.2-1.5C722.4,155.9,726.5,156.7,727.5,159.1z"/>
		<path class="st54" d="M676.8,136.4c-2.7,3.8-3.5,8.6-4,13.3c-0.9,7.9-1.5,15.9-1.6,23.8c-0.1,4.2-0.1,8.5,1.2,12.5
			c0.4,1.3,1.4,2.9,2.8,2.7c1.4-0.2,1.8-2,1.9-3.4c0.9-10.7,1.8-21.4,2.7-32.1C680.2,147.3,680.5,140.9,676.8,136.4z"/>
		<path class="st56" d="M780.6,138.2c6.7,1.7,10.6,12.8,10.8,18.6c0.6,13.4,0.6,26.8,1.4,40.2c0.4,7.9,1,15.8,1.6,23.7
			c0.6,8.2,1.1,9.9-6.7,10.6c-14.1,1.3-28.3,1.3-42.4,0c-1.6-0.1-1.6-25.1-1.6-27.2c-0.3-13.2,1.3-26.5,5.5-39.1
			c2.4-7.3,6.3-14.3,12.2-19.4c4.4-3.9,10.4-6.4,16.2-7.5C778.6,137.9,779.6,137.9,780.6,138.2z"/>
		<path class="st55" d="M770.5,133c1-1.9,1.6-4.2,1.4-7c-0.3-5.1-1.2-10.3-3.8-14.6c-3-5-9.7-9.6-15.8-7.5
			c-7.2,2.5-5.6,11.9-4.3,18.2c1,5,3.4,9.9,7.5,12.8C761.7,139.3,767.8,137.9,770.5,133z"/>
		<path class="st14" d="M766.8,119.4c1.1,3.3,2.8,6.4,5.1,9c0.5,0.6,1.3-0.4,1.4-1.1c0.9-6,0.4-16.7-1-22.5c-1.4-5.9-4.2-7-9.9-9
			c-4.2-1.5-9-0.8-12.6,1.7c-3.6,2.5-6,6.8-6.2,11.2c0,0.4,0,0.9,0.3,1.2c0.4,0.5,1.2,0.4,1.9,0.3c3.7-0.9,7.3-2.3,11.1-1.9
			c3.8,0.4,7.6,3.2,7.5,7c1.4-0.4,2.9-0.9,4.4-0.4c1.4,0.5,2.5,2.2,1.7,3.5C769.3,119,768.1,119.5,766.8,119.4z"/>
		<g>
			<path class="st55" d="M761.8,184.6c2.3-4.9,3.6-10.2,4.9-15.5c2-8.5,3.8-17.1,5.4-25.8c0.3-1.4,0.5-3,0.1-4.4
				c-0.4-1.4-1.7-2.7-3.2-2.6c-7.7,14.9-12.6,31.2-14.4,47.9c-0.1,1.2-0.2,2.6,0.6,3.5c0.9,1.1,2.7,1,3.9,0.2
				C760.5,187.3,761.2,185.9,761.8,184.6z"/>
			<path class="st55" d="M760.7,181.5c3.2-2.4,6.7-4.5,10.3-6.1c0.2-0.1,0.5-0.2,0.7-0.1c0.2,0.1,0.3,0.3,0.4,0.5
				c0.7,1.6,1.2,3.3,1.6,5c0.3,1.2,0.4,2.6-0.5,3.5c-0.5,0.5-1.1,0.7-1.8,0.9c-3,1.1-5.5,3.6-8.6,4.6c-2.3,0.8-4.8,0.7-7.2,0.6
				c-0.2,0-0.5,0-0.6-0.2c-0.1-0.1-0.1-0.3-0.1-0.4c-0.1-1.2-0.1-2.4,0.4-3.5c0.3-0.5,0.7-1,1.1-1.5
				C758.4,182.6,758.4,183.2,760.7,181.5z"/>
		</g>
		<path class="st60" d="M677.9,179.6c0-2.1-2.2-2.1-2.2,0c-0.3,46.8,0,93.7,1.7,140.5c0.1,2.7,3,2.7,2.9,0
			C678.8,273.2,677.8,226.4,677.9,179.6z"/>
		<path class="st60" d="M689.5,178.8c0-2.1-2.2-2.1-2.2,0c-0.3,46.8,0,93.7,1.7,140.5c0.1,2.7,3,2.7,2.9,0
			C690.4,272.5,689.3,225.7,689.5,178.8z"/>
		<path class="st60" d="M698.7,178.8c0-2.1-2.2-2.1-2.2,0c-0.3,46.8,0,93.7,1.7,140.5c0.1,2.7,3,2.7,2.9,0
			C699.6,272.5,698.5,225.7,698.7,178.8z"/>
		<path class="st60" d="M709.2,180.6c0-2.1-2.2-2.1-2.2,0c-0.3,46.8,0,93.7,1.7,140.5c0.1,2.7,3,2.7,2.9,0
			C710.1,274.3,709,227.5,709.2,180.6z"/>
		<path class="st54" d="M699.2,160.6c-0.9-0.1-2.2,0.2-2.9,0.9c-0.9,0.8-1.2,2-1.5,3.2c-0.1-0.4-0.6-0.8-1-0.7
			c-0.4,0-0.8,0.5-0.8,0.9c0,0.6,0.5,1,0.5,1.6c0,0.4-0.4,0.7-0.7,1c-4.9,4.2-10.4,7.9-15.1,12.3c-1.4,1.3-1.8,2.7-2.8,4.2
			c-0.7,1.2-2,2.7-0.9,4.2c0.9,1.2,2.8,0.9,4.1,0.4c10.6-4.3,16.7-15.2,22-25.5C701.1,161.5,700.3,160.7,699.2,160.6z"/>
	</g>
</g>
<g>
	<defs>
		<filter id="Adobe_OpacityMaskFilter_10_" filterUnits="userSpaceOnUse" x="530.4" y="554" width="94.4" height="14.6">
			<feFlood  style="flood-color:white;flood-opacity:1" result="back"/>
			<feBlend  in="SourceGraphic" in2="back" mode="normal"/>
		</filter>
	</defs>
	<mask maskUnits="userSpaceOnUse" x="530.4" y="554" width="94.4" height="14.6" id="SVGID_16_">
		<g class="st61">
			<defs>
				<filter id="Adobe_OpacityMaskFilter_11_" filterUnits="userSpaceOnUse" x="530.4" y="554" width="94.4" height="14.6">
					<feFlood  style="flood-color:white;flood-opacity:1" result="back"/>
					<feBlend  in="SourceGraphic" in2="back" mode="normal"/>
				</filter>
			</defs>
			<mask maskUnits="userSpaceOnUse" x="530.4" y="554" width="94.4" height="14.6" id="SVGID_16_">
				<g class="st62">
				</g>
			</mask>
			
				<linearGradient id="SVGID_17_" gradientUnits="userSpaceOnUse" x1="125.5517" y1="9.7422" x2="219.6979" y2="9.7422" gradientTransform="matrix(0.9996 4.920000e-02 -5.380000e-02 1.0927 405.6577 542.722)">
				<stop  offset="0" style="stop-color:#4D4D4D"/>
				<stop  offset="1" style="stop-color:#000000"/>
			</linearGradient>
			<path class="st63" d="M550.9,568.5c6,0.1,11.9-0.1,17.9-0.4c16.6-0.8,33.3-1.5,49.9-2.3c2.6-0.1,5.9-0.9,6.2-3.6
				c0.2-2.4-2.4-3.8-4.6-4.5c-7.9-2.4-16.3-2.7-24.5-2.9c-12.2-0.4-24.3-0.6-36.5-0.8c-7.6-0.1-15.4-0.1-22.5,2.7
				c-3.9,1.5-9.7,7.7-3.6,10.6c1.7,0.8,5.1,0.3,7,0.5C543.7,568.1,547.3,568.4,550.9,568.5z"/>
		</g>
	</mask>
	
		<linearGradient id="SVGID_18_" gradientUnits="userSpaceOnUse" x1="125.5517" y1="9.7422" x2="219.6979" y2="9.7422" gradientTransform="matrix(0.9996 4.920000e-02 -5.380000e-02 1.0927 405.6577 542.722)">
		<stop  offset="0" style="stop-color:#000000"/>
		<stop  offset="1" style="stop-color:#000000"/>
	</linearGradient>
	<path class="st64" d="M550.9,568.5c6,0.1,11.9-0.1,17.9-0.4c16.6-0.8,33.3-1.5,49.9-2.3c2.6-0.1,5.9-0.9,6.2-3.6
		c0.2-2.4-2.4-3.8-4.6-4.5c-7.9-2.4-16.3-2.7-24.5-2.9c-12.2-0.4-24.3-0.6-36.5-0.8c-7.6-0.1-15.4-0.1-22.5,2.7
		c-3.9,1.5-9.7,7.7-3.6,10.6c1.7,0.8,5.1,0.3,7,0.5C543.7,568.1,547.3,568.4,550.9,568.5z"/>
	<defs>
		<filter id="Adobe_OpacityMaskFilter_12_" filterUnits="userSpaceOnUse" x="646.8" y="554" width="61.4" height="9.3">
			<feFlood  style="flood-color:white;flood-opacity:1" result="back"/>
			<feBlend  in="SourceGraphic" in2="back" mode="normal"/>
		</filter>
	</defs>
	<mask maskUnits="userSpaceOnUse" x="646.8" y="554" width="61.4" height="9.3" id="SVGID_19_">
		<g class="st65">
			<defs>
				<filter id="Adobe_OpacityMaskFilter_13_" filterUnits="userSpaceOnUse" x="646.8" y="554" width="61.4" height="9.3">
					<feFlood  style="flood-color:white;flood-opacity:1" result="back"/>
					<feBlend  in="SourceGraphic" in2="back" mode="normal"/>
				</filter>
			</defs>
			<mask maskUnits="userSpaceOnUse" x="646.8" y="554" width="61.4" height="9.3" id="SVGID_19_">
				<g class="st66">
				</g>
			</mask>
			
				<linearGradient id="SVGID_20_" gradientUnits="userSpaceOnUse" x1="1775.8394" y1="-479.2188" x2="1869.9821" y2="-479.2188" gradientTransform="matrix(0.6501 3.200000e-02 -3.450000e-02 0.6995 -524.1003 835.9231)">
				<stop  offset="0" style="stop-color:#4D4D4D"/>
				<stop  offset="1" style="stop-color:#000000"/>
			</linearGradient>
			<path class="st67" d="M660.1,563.3c3.9,0.1,7.8-0.1,11.6-0.2c10.8-0.5,21.6-1,32.4-1.4c1.7-0.1,3.9-0.6,4-2.3
				c0.1-1.5-1.6-2.5-3-2.9c-5.2-1.5-10.6-1.7-16-1.9c-7.9-0.2-15.8-0.4-23.7-0.5c-4.9-0.1-10-0.1-14.6,1.7c-2.5,1-6.3,4.9-2.3,6.8
				c1.1,0.5,3.3,0.2,4.5,0.3C655.4,563,657.7,563.2,660.1,563.3z"/>
		</g>
	</mask>
	
		<linearGradient id="SVGID_21_" gradientUnits="userSpaceOnUse" x1="1775.8394" y1="-479.2188" x2="1869.9821" y2="-479.2188" gradientTransform="matrix(0.6501 3.200000e-02 -3.450000e-02 0.6995 -524.1003 835.9231)">
		<stop  offset="0" style="stop-color:#000000"/>
		<stop  offset="1" style="stop-color:#000000"/>
	</linearGradient>
	<path class="st68" d="M660.1,563.3c3.9,0.1,7.8-0.1,11.6-0.2c10.8-0.5,21.6-1,32.4-1.4c1.7-0.1,3.9-0.6,4-2.3
		c0.1-1.5-1.6-2.5-3-2.9c-5.2-1.5-10.6-1.7-16-1.9c-7.9-0.2-15.8-0.4-23.7-0.5c-4.9-0.1-10-0.1-14.6,1.7c-2.5,1-6.3,4.9-2.3,6.8
		c1.1,0.5,3.3,0.2,4.5,0.3C655.4,563,657.7,563.2,660.1,563.3z"/>
	<g>
		<g>
			<path class="st69" d="M676.8,403.8c3.1,3.2,3.5,8,3.7,12.4c0.4,7.2,0.8,14.5,1.2,21.7c-5.1-1.9-8.1-7.1-10.1-12.2
				c-2.5-6.3-4-13.2-2.6-19.8c0.3-1.3,0.8-2.8,1.9-3.5C672.7,401.2,675.3,402.2,676.8,403.8z"/>
			<path class="st70" d="M657.6,514.7c0.6,7.6,0.9,15.2,0.9,22.9c0,2.6-0.1,5.4-0.6,7.9c0.3,0.8,0.5,1.6,0.5,2.4v0.1
				c0,1.6-0.6,3.2-1.8,4.3c-0.8,0.8-1.7,1.3-2.7,1.6c0,0-0.1,0-0.1,0c0,0,0,0-0.1,0c-1.1,1.6-2.1,3.2-2.3,5.1
				c2.8-1.2,5.6-2.6,8.3-4.2c1-0.6,2-1.3,2.8-2.3c1.4-1.8,1.8-4.4,2.1-6.9l4.9-38.6L657.6,514.7z"/>
			<path class="st71" d="M651.7,559.4c-0.4,0.2-0.8,0.3-1.2,0.4c-0.4,0.1-0.8,0-1.2-0.1c-1.4-0.5-2-2.3-1.6-3.7
				c0.4-1.4,1.6-2.5,3-3.1c1.3-0.6,2.8-0.9,4.2-1.3c0.6-0.2,1.3-0.4,1.8-0.9c0.8-0.8,0.8-2,0.8-3.1c-0.1-1.5-0.2-2.9-0.5-4.3
				c2.6-0.1,5.2-0.3,7.8-0.4c-0.3,3.1-0.5,6.2-0.8,9.4c0,0.5-0.1,1-0.3,1.4c-0.4,0.7-1.2,1.1-1.9,1.4
				C658.5,556.5,655.1,557.9,651.7,559.4z"/>
			<g>
				<path class="st70" d="M669.6,513.8c0.5,7.3,1.4,19.8,1.4,27.1c0,2.5-0.1,5.2-0.5,7.6c0.3,0.7,0.5,1.5,0.5,2.3v0.1
					c0,1.5-0.6,3.1-1.7,4.1c-0.7,0.7-1.6,1.2-2.6,1.5c0,0-0.1,0-0.1,0c0,0,0,0-0.1,0c-1.1,1.5-2,3-2.2,4.9c2.7-1.1,5.4-2.5,7.9-4.1
					c1-0.6,2-1.3,2.7-2.2c1.4-1.8,1.7-4.3,2-6.6l4.7-37L669.6,513.8z"/>
				<path class="st71" d="M664.5,562c-0.4,0.2-0.7,0.3-1.1,0.4c-0.4,0.1-0.8,0-1.1-0.1c-1.3-0.5-2-2.2-1.6-3.5
					c0.4-1.4,1.6-2.4,2.8-3c1.3-0.6,2.7-0.9,4.1-1.3c0.6-0.2,1.3-0.4,1.7-0.8c0.8-0.7,0.8-1.9,0.8-3c-0.1-1.4-0.2-2.8-0.5-4.2
					c2.5-0.1,5-0.3,7.5-0.4c-0.2,3-0.5,6-0.7,9c0,0.5-0.1,0.9-0.3,1.3c-0.4,0.7-1.1,1-1.8,1.4C671,559.1,667.8,560.6,664.5,562z"/>
			</g>
			<path class="st72" d="M654.5,437.9c0.8-0.3,1.7,0,2.5,0.2c2.8,0.8,5.7,1.2,8.7,1.1c1.8-0.1,3.8-0.3,5.4,0.5
				c1.6,0.8,2.4,2.3,3,3.8c1.1,3.1,1.3,6.3,2,9.4c0.7,3.1,1.8,6.2,3,9.2c3.9,10.1,8.3,20,12.9,29.8c3.7,7.8,7.7,15.5,12.1,23
				c-6.4,3.6-13.9,5.6-21.6,5.9c-0.9,0-1.9,0-2.8-0.2c-1.4-0.4-2.4-1.5-3.7-2.2c-4.1-2.5-9.7-1-14.6-0.2c-3.9,0.6-8,0.8-12,0.8
				c-1.8,0-3.8,0-5.1-1.2c-1.6-1.5-0.9-3.9-0.3-5.9c3-9.7,2.1-19.9,2.1-29.9c0-14.3,2.1-28.7,6.9-42.3
				C653.4,439,653.7,438.2,654.5,437.9z"/>
			<g>
				<path class="st70" d="M657.8,403.6c-2.3-1-4.8-1.8-7.2-2.5c-0.7-0.2-1.5-0.4-2.3-0.1c-1.3,0.4-1.9,2-2.2,3.3
					c-1.5,7.3,0,14.9,1.6,22.2c0.3,1.5,0.7,3,1.4,4.3c2.2,3.6,6.9,4.6,11.1,4.9c1.1,0.1,2.2,0.2,3.2-0.2c1.6-0.5,2.7-2,3.6-3.4
					c2.1-3.7,2.8-8.1,3-12.4c0.2-5.3-0.7-11.2-4.6-14.8c-2.7-2.4-6.3-3.4-9.9-4.3c-2.1-0.5-4.6-1-6.2,0.5L657.8,403.6z"/>
				<path class="st69" d="M665.7,399.1c-4.9-1.6-10.4-1.8-15.1,0.1c-4.8,2-8.7,6.3-9.3,11.4c-0.1,0.6-0.1,1.3,0.3,1.7
					c0.4,0.4,1,0.5,1.6,0.5c4.4,0.3,8.8,0.6,13.2,0.9c0.2-2.6,1.5-5.1,3.6-6.7c1.9,7.9,4,16.1,8.8,22.6c3.6-4,6.5-8.9,7.1-14.2
					c0.7-5.4-1.3-11.2-5.7-14.3C668.8,400.3,667.3,399.6,665.7,399.1z"/>
				<path class="st73" d="M671.4,404.3c1,0.2,2.1,0.5,3,1.1c0.9,0.6,1.5,1.8,1.2,2.8c-0.4,1.4-2.3,1.9-3.7,1.3
					c-1.3-0.6-2.1-2-2.7-3.3c-0.7-1.7-1.2-3.5-0.9-5.3c0.3-1.8,1.7-3.4,3.5-3.6c-0.1,1.7-0.6,3.4-1.4,4.9c1.1-0.7,2.3-1.4,3.6-1.4
					c1.3,0,2.7,1.1,2.4,2.4C674.9,404.1,673.1,404.5,671.4,404.3z"/>
			</g>
		</g>
		<path class="st70" d="M663.5,458.3c-0.2-2.6-2.8-5.1-5.3-4.3c-1.9,0.6-2.8,2.8-3.6,4.6c-4,9.2-11.6,16.7-20.7,20.9
			c-1.8-0.5-3.7-1.1-5.5-1.6c-0.1,1.2,0.4,2.4,1.1,3.3c-0.8,0.3-1.6,0.5-2.5,0.7c-0.7,0.2-1.5,0.4-1.9,1c-0.4,0.8,0.2,1.8,1,2.1
			c0.8,0.4,1.7,0.3,2.6,0.2c12.7-1.8,24.4-9.3,32-19.7C662.2,463.3,663.7,460.9,663.5,458.3z"/>
		<g>
			<path class="st74" d="M615.3,476.8c0.4,1.2,1.2,2.2,2.1,3c1.4,1.3,3,2.4,4.9,2.7c2.1,0.3,4.4-0.5,6-1.9c1.6-1.4,2.7-3.4,3.3-5.5
				c0.8-2.6,0.7-5.8-1.3-7.7c-0.8-0.8-1.9-1.2-3-1.5c-2.8-0.9-6-1.1-8.3,0.6c-1.5,1.2-2.3,3.1-3,4.9
				C615.3,473.2,614.8,475,615.3,476.8z"/>
			<path class="st75" d="M624.6,467.3c-0.8,3.2-5,4.7-7.9,5.1c-0.5,0.1-0.5,0.8,0,0.8c3.7,0.1,8-1.8,9.4-5.5
				C626.4,466.8,624.8,466.3,624.6,467.3z"/>
			<path class="st75" d="M629.2,475.2c-3.7-0.3-6.9,1.7-8.2,5.2c-0.1,0.4,0.5,0.6,0.6,0.3c1.2-2.7,4.4-4.5,7.3-3.7
				C630.2,477.2,630.5,475.3,629.2,475.2z"/>
		</g>
	</g>
	<g>
		<g>
			<path class="st76" d="M577,541.6c0.5,1.2,1.2,2.3,2.1,3.3c1.3-0.5,2.5-1.2,3.5-2.1c-0.9-2.3-2.2-4.4-3.8-6.2
				c-1.1-0.1-2,0.9-2.3,1.9C576.2,539.5,576.6,540.6,577,541.6z"/>
			<g>
				<path class="st77" d="M558.7,548.9c0.3-0.5,0.6-0.9,0.9-1.3c3.6-5.2,12.1,4.5,6.2,8.5c-4,2.7-9.8-0.2-8.1-5.3
					C557.9,550.2,558.3,549.5,558.7,548.9z"/>
				<path class="st78" d="M563.4,554.5c0.4-0.1,0.9-0.3,1.4-0.7c6.1-3.8,11.8-7.4,16.2-13.2c2-2.7-3.5-7.3-6.4-7.2
					c-3.6,0.2-7.7,5.9-9.6,8.4C563.8,543.6,558.9,555.8,563.4,554.5z"/>
			</g>
			<g>
				<path class="st78" d="M578.2,557.4c0.9,0.8,2.1,1.3,3.3,1.6c2.2,0.7,4.6,1,6.8,0.1c2.1-0.9,3.8-3.1,3.4-5.4
					c-0.6-3.2-4.7-4.7-5.7-7.9c-0.6-1.8-0.2-4-1.5-5.3c-0.6-0.6-1.4-0.8-2.2-1c-1.5-0.3-3.2-0.3-4.7,0c-0.9,2.7-1.5,5.6-1.8,8.5
					C575.3,551.4,575.6,555.3,578.2,557.4z"/>
				<g>
					<g>
						<path class="st79" d="M582.5,545.6c0.2-0.2,0.3-0.4,0.4-0.6c0.1-0.3,0.3-0.6,0.3-0.9c0-0.2-0.1-0.5-0.2-0.7
							c0-0.1-0.1-0.2-0.1-0.3c0-0.1-0.1-0.3-0.2-0.4c-0.2-0.3-0.5-0.5-0.9-0.6c-0.2-0.1-0.5-0.2-0.8-0.2c-0.6,0-1.2,0.3-1.4,0.8
							c-0.3,0.5-0.3,1.1-0.2,1.7c0.2,0.7,0.7,1.4,1.4,1.6C581.5,546.3,582.1,546.1,582.5,545.6z"/>
						<path class="st80" d="M582.1,545.5c0.2-0.2,0.3-0.4,0.4-0.6c0.1-0.3,0.3-0.6,0.3-0.9c0-0.2-0.1-0.5-0.2-0.7
							c0-0.1-0.1-0.2-0.1-0.3c0-0.1-0.1-0.3-0.2-0.4c-0.2-0.3-0.5-0.5-0.9-0.6c-0.2-0.1-0.5-0.2-0.8-0.2c-0.6,0-1.2,0.3-1.4,0.8
							c-0.3,0.5-0.3,1.1-0.2,1.7c0.2,0.7,0.7,1.4,1.4,1.6C581.1,546.1,581.7,545.9,582.1,545.5z"/>
					</g>
					<path class="st81" d="M581.2,544.4c0.1-0.1,0.2-0.3,0.2-0.5c0-0.1,0-0.1,0-0.2c0-0.1-0.1-0.2-0.1-0.2c-0.2-0.2-0.5-0.3-0.8-0.2
						c-0.3,0.1-0.5,0.4-0.4,0.7c0.1,0.2,0.3,0.4,0.5,0.5C580.7,544.5,581,544.5,581.2,544.4z"/>
				</g>
			</g>
		</g>
		<g>
			<path class="st76" d="M521.6,548.1c1.8,1,3.6,1.9,5.7,2.1c2.2,0.2,4.3-0.4,6.4-0.9c1-0.2,1.9-0.3,2.9-0.3c0.8,0,1.5-0.1,2.2,0.6
				c0.4,0.4,0.6,1,0.6,1.6c0.1,0.7,0.3,2.3-0.3,2.8c-0.7,0.5-2.4,0.5-3.2,0.6c-2.3,0.3-4.5,0.4-6.8,0.2c-3.4-0.4-6.8-1.6-9.2-4
				c-0.4-0.4-0.8-0.8-1-1.4c-0.2-0.5-0.1-1.2,0.4-1.5C519.9,547.3,520.9,547.7,521.6,548.1z"/>
		</g>
		<g>
			<path class="st77" d="M585.4,512.4c0.1,0.5,0.1,0.9,0.1,1.4c0.5,5.6-10.8,3.8-9-2.3c1.2-4.1,6.8-5.4,8.5-1
				C585.2,511.1,585.4,511.7,585.4,512.4z"/>
			<path class="st76" d="M576.8,533.7c-0.2,1.1-0.3,2.3-0.2,3.4c1.2,0.3,2.4,0.4,3.6,0.2c0.5-2.1,0.7-4.3,0.5-6.4
				c-0.7-0.6-1.9-0.4-2.6,0.2C577.4,531.8,577,532.8,576.8,533.7z"/>
			<path class="st78" d="M579.1,511.2c-0.2,0.3-0.4,0.7-0.6,1.3c-2,6-3.9,11.7-3.6,18.1c0.2,3,6.5,3,8.4,1.3
				c2.3-2.1,1.9-8.3,1.8-11.2C585,518.9,581.3,507.8,579.1,511.2z"/>
			<path class="st78" d="M576.4,550.4c0.9,0.7,1.9,1,2.9,1.3c2,0.5,4.1,0.7,6-0.1c1.9-0.8,3.3-2.9,2.8-4.9c-0.6-2.8-4.3-4-5.3-6.7
				c-0.6-1.5-0.3-3.5-1.5-4.7c-0.5-0.5-1.3-0.7-2-0.8c-1.4-0.2-2.8-0.2-4.1,0.1c-0.7,2.5-1.2,5-1.3,7.5
				C573.7,545.2,574.1,548.6,576.4,550.4z"/>
			<g>
				<g>
					<path class="st79" d="M579.9,539.9c0.1-0.2,0.2-0.3,0.3-0.5c0.1-0.2,0.2-0.5,0.2-0.8c0-0.2-0.1-0.4-0.2-0.6
						c0-0.1-0.1-0.1-0.1-0.2c0-0.1-0.1-0.2-0.2-0.3c-0.2-0.3-0.5-0.4-0.8-0.5c-0.2-0.1-0.4-0.1-0.7-0.2c-0.5,0-1,0.3-1.3,0.8
						c-0.2,0.4-0.3,1-0.1,1.5c0.2,0.6,0.7,1.2,1.3,1.3C578.9,540.4,579.5,540.3,579.9,539.9z"/>
					<path class="st80" d="M579.5,539.7c0.1-0.2,0.2-0.3,0.3-0.5c0.1-0.2,0.2-0.5,0.2-0.8c0-0.2-0.1-0.4-0.2-0.6
						c0-0.1-0.1-0.1-0.1-0.2c0-0.1-0.1-0.2-0.2-0.3c-0.2-0.3-0.5-0.4-0.8-0.5c-0.2-0.1-0.4-0.1-0.7-0.2c-0.5,0-1,0.3-1.3,0.8
						c-0.2,0.4-0.3,1-0.1,1.5c0.2,0.6,0.7,1.2,1.3,1.3C578.6,540.3,579.2,540.1,579.5,539.7z"/>
				</g>
				<path class="st81" d="M578.6,538.8c0.1-0.1,0.2-0.3,0.2-0.4c0-0.1,0-0.1,0-0.2c0-0.1-0.1-0.2-0.1-0.2c-0.2-0.2-0.5-0.2-0.7-0.1
					c-0.2,0.1-0.4,0.4-0.3,0.6c0.1,0.2,0.3,0.3,0.4,0.4C578.2,538.9,578.5,538.9,578.6,538.8z"/>
			</g>
		</g>
		<path class="st82" d="M547,560.8c1.2,0.6,2.5,1.1,3.7,1.5c6.2,2,11.9,1.6,14.8-4.3c0.8-1.7,2.1-3.2,3.2-4.8
			c2.4-3.4,4.3-7.1,5.9-11c3.3-7.8,5.3-16,7.2-24.2c0.6-2.3,1.1-4.7,1.1-7.1c0-3.5-2.1-8.9-5.3-11.1c-1.9-1.3-4.1-1.8-6.3-2.3
			c-1-0.2-2-0.5-3.1-0.4c-1.1,0.1-2.1,0.5-3,1.1c-4.5,2.7-6.6,7.8-8.7,12.5c-3,6.4-6.7,12.6-10.9,18.4c-2.6,3.7-5.4,7.3-7.1,11.5
			c-1.7,4.2-2,9.1,0.2,13.2C540.6,556.9,543.6,559.2,547,560.8z"/>
		<path class="st76" d="M578.8,503.1c-0.2-0.8-0.8-1.5-1.4-2.1c-2-1.9-4.5-3.4-7.1-4.1c-0.3-0.1-0.7-0.2-1-0.1
			c-1,0.1-1.5,1.2-1.9,2.1c-0.8,1.9-1.6,3.8-2.3,5.8c-0.5,1.3-1.1,2.7-0.9,4.1c1.1-0.1,2.2-0.1,3.2-0.4c1.1-0.2,2.1-0.6,3.1-0.8
			c1.2-0.2,2.4-0.2,3.5-0.3c1.2-0.1,2.4-0.3,3.4-1S579,504.3,578.8,503.1z"/>
		<g>
			<path class="st83" d="M584.7,511.6c0.1,0.5,0.3,1,0.4,1.6c1.4,6.2-11.5,5.8-10.5-1.2c0.7-4.7,6.8-7.1,9.3-2.3
				C584.3,510.3,584.5,510.9,584.7,511.6z"/>
			<path class="st76" d="M577.2,537.9c-0.1,1.3,0,2.6,0.3,3.8c1.3,0.2,2.7,0.1,4.1-0.3c0.3-2.4,0.1-4.9-0.4-7.3
				c-0.9-0.6-2.2-0.2-2.9,0.7C577.6,535.7,577.3,536.8,577.2,537.9z"/>
			<path class="st78" d="M577.4,511.3c-0.2,0.4-0.3,0.9-0.5,1.5c-1.3,7.1-2.6,13.7-1.3,20.9c0.6,3.3,7.8,2.4,9.6,0.2
				c2.3-2.8,0.9-9.6,0.3-12.8C585.2,519,579.5,507.2,577.4,511.3z"/>
			<path class="st78" d="M580.3,555.6c1.1,0.6,2.3,0.9,3.5,1c2.3,0.3,4.7,0.2,6.7-1c2-1.2,3.2-3.7,2.5-5.9c-1.1-3.1-5.4-3.9-7-6.8
				c-0.9-1.7-0.9-3.9-2.4-5c-0.7-0.5-1.5-0.6-2.3-0.6c-1.6-0.1-3.2,0.2-4.6,0.8c-0.4,2.9-0.6,5.8-0.4,8.7
				C576.4,550.2,577.3,554,580.3,555.6z"/>
			<g>
				<g>
					<path class="st79" d="M582.5,543.3c0.1-0.2,0.2-0.4,0.3-0.6c0.1-0.3,0.2-0.6,0.1-0.9c0-0.2-0.2-0.5-0.3-0.7
						c0-0.1-0.1-0.2-0.1-0.2c-0.1-0.1-0.1-0.2-0.2-0.3c-0.2-0.3-0.6-0.4-1-0.4c-0.3-0.1-0.5-0.1-0.8-0.1c-0.6,0.1-1.1,0.5-1.3,1
						c-0.2,0.5-0.1,1.2,0.1,1.7c0.3,0.7,0.9,1.2,1.7,1.3C581.6,544.1,582.2,543.8,582.5,543.3z"/>
					<path class="st80" d="M582.1,543.2c0.1-0.2,0.2-0.4,0.3-0.6c0.1-0.3,0.2-0.6,0.1-0.9c0-0.2-0.2-0.5-0.3-0.7
						c0-0.1-0.1-0.2-0.1-0.2c-0.1-0.1-0.1-0.2-0.2-0.3c-0.2-0.3-0.6-0.4-1-0.4c-0.3-0.1-0.5-0.1-0.8-0.1c-0.6,0.1-1.1,0.5-1.3,1
						c-0.2,0.5-0.1,1.2,0.1,1.7c0.3,0.7,0.9,1.2,1.7,1.3C581.2,544,581.8,543.7,582.1,543.2z"/>
				</g>
				<path class="st81" d="M581,542.3c0.1-0.1,0.1-0.3,0.1-0.5c0-0.1,0-0.1,0-0.2c0-0.1-0.1-0.2-0.2-0.2c-0.2-0.2-0.6-0.2-0.8,0
					c-0.2,0.2-0.4,0.5-0.3,0.8c0.2,0.2,0.3,0.3,0.6,0.4C580.6,542.5,580.9,542.5,581,542.3z"/>
			</g>
		</g>
		<g>
			<g>
				<path class="st78" d="M564.4,495.3c0.4,1.4,0.8,2.8,1.6,3.9c2.2,2.7,6.3,2.6,9.8,2.2c4-0.5,7.9-0.9,11.9-1.4
					c4.4-0.5,9.1-1.1,12.3-4.2c2.6-2.4,3.7-6.6,2-9.7c-0.9-1.6-2.5-2.8-4-3.8c-5.1-3.4-10.8-5.8-16.8-7.2c-5.5-1.3-12-1.3-15.7,2.9
					c-2,2.3-2.7,5.4-2.7,8.4C562.8,489.4,563.6,492.4,564.4,495.3z"/>
				<path class="st76" d="M595.5,486.1c0.6-0.7,1.2-1.4,1.7-2.3c0.3-0.6,0.5-1.3,0.2-1.9c-0.2-0.4-0.6-0.6-1-0.8
					c-5.3-2.9-10.9-5.2-16.7-6.8c-0.8-0.2-1.7-0.4-2.5-0.3c-2.1,0.5-2.2,4.3-2.8,6c-0.4,1.3-0.9,2.7-1.6,3.9
					c-0.7,1.3-2.1,2.6-2.5,3.9c-0.8,2.3,3.4,5.4,5.1,6.5c1,0.7,2.2,1.2,3.4,1.3c2.1,0.2,4-1,5.8-2.1c1.8-1.1,3.6-2.2,5.4-3.4
					C592,489,594,487.8,595.5,486.1z"/>
			</g>
			<g>
				<path class="st84" d="M559.5,502.4c0.4,0,0.9,0,1.3-0.2c0.6-0.2,1-0.7,1.4-1.1c2.3-2.6,3.8-5.8,4.3-9.2c0.3-2.1,0.2-4.3,1-6.2
					c0.4-1,0.9-2,0.7-3c-0.2-1.2-1.6-2-2.8-1.9c-1.2,0-2.3,0.7-3.3,1.4c-5,3.7-7.8,10-7.2,16.1c0.1,0.9,0.2,1.8,0.7,2.5
					C556.4,502,558,502.4,559.5,502.4z"/>
				<path class="st78" d="M558,502.6c0.4,0,0.9,0,1.3-0.2c0.6-0.2,1-0.7,1.4-1.1c2.3-2.6,3.8-5.8,4.3-9.2c0.3-2.1,0.2-4.3,1-6.2
					c0.4-1,0.9-2,0.7-3c-0.2-1.2-1.6-2-2.8-1.9c-1.2,0-2.4,0.7-3.3,1.4c-5,3.7-7.8,10-7.2,16.1c0.1,0.9,0.2,1.8,0.7,2.5
					C554.9,502.2,556.5,502.6,558,502.6z"/>
			</g>
			<g>
				<g>
					<path class="st79" d="M573.7,491c0.2-0.1,0.4-0.2,0.5-0.4c0.2-0.2,0.4-0.4,0.5-0.7c0.1-0.2,0.1-0.4,0.1-0.7c0-0.1,0-0.2,0-0.2
						c0-0.1,0-0.2,0-0.4c-0.1-0.3-0.3-0.6-0.6-0.8c-0.2-0.2-0.4-0.3-0.6-0.4c-0.5-0.2-1.1-0.1-1.5,0.2c-0.4,0.3-0.7,0.8-0.7,1.4
						c-0.1,0.7,0.2,1.4,0.7,1.8C572.6,491.2,573.2,491.3,573.7,491z"/>
					<path class="st80" d="M573.4,490.8c0.2-0.1,0.4-0.2,0.5-0.4c0.2-0.2,0.4-0.4,0.5-0.7c0.1-0.2,0.1-0.4,0.1-0.7
						c0-0.1,0-0.2,0-0.2c0-0.1,0-0.2,0-0.4c-0.1-0.3-0.3-0.6-0.6-0.8c-0.2-0.2-0.4-0.3-0.6-0.4c-0.5-0.2-1.1-0.1-1.5,0.2
						c-0.4,0.3-0.7,0.8-0.7,1.4c-0.1,0.7,0.2,1.4,0.7,1.8C572.3,491,573,491,573.4,490.8z"/>
				</g>
				<path class="st81" d="M573,489.5c0.2-0.1,0.3-0.2,0.4-0.4c0,0,0.1-0.1,0.1-0.2c0-0.1,0-0.2,0-0.2c-0.1-0.2-0.4-0.4-0.6-0.4
					c-0.3,0-0.5,0.2-0.6,0.5c0,0.2,0.1,0.4,0.3,0.6C572.6,489.5,572.8,489.6,573,489.5z"/>
			</g>
		</g>
		<g>
			<path class="st76" d="M577.1,545.7c0.3,1.3,0.8,2.5,1.5,3.6c1.3-0.2,2.6-0.8,3.8-1.5c-0.5-2.4-1.4-4.7-2.7-6.8
				c-1.1-0.2-2.1,0.5-2.6,1.5C576.7,543.6,576.8,544.7,577.1,545.7z"/>
			<g>
				<path class="st78" d="M574,564.3c0.8,0.9,1.9,1.6,3,2.1c2.1,1,4.4,1.7,6.6,1.2c2.2-0.5,4.3-2.4,4.3-4.7c0-3.3-3.8-5.5-4.3-8.7
					c-0.3-1.9,0.5-4-0.6-5.5c-0.5-0.7-1.2-1.1-2-1.4c-1.5-0.6-3.1-0.9-4.6-0.8c-1.4,2.6-2.4,5.3-3.2,8
					C572.2,557.9,571.8,561.7,574,564.3z"/>
				<g>
					<g>
						<path class="st79" d="M580.3,553.4c0.2-0.1,0.3-0.3,0.5-0.5c0.2-0.2,0.4-0.5,0.4-0.8c0-0.2,0-0.5,0-0.7c0-0.1,0-0.2,0-0.3
							c0-0.1,0-0.3-0.1-0.4c-0.1-0.3-0.5-0.5-0.8-0.7c-0.2-0.1-0.5-0.3-0.7-0.3c-0.6-0.1-1.2,0.1-1.6,0.6c-0.4,0.4-0.5,1-0.5,1.6
							c0.1,0.7,0.5,1.5,1.1,1.8C579.1,553.9,579.8,553.8,580.3,553.4z"/>
						<path class="st80" d="M579.9,553.2c0.2-0.1,0.3-0.3,0.5-0.5c0.2-0.2,0.4-0.5,0.4-0.8c0-0.2,0-0.5,0-0.7c0-0.1,0-0.2,0-0.3
							c0-0.1,0-0.3-0.1-0.4c-0.1-0.3-0.5-0.5-0.8-0.7c-0.2-0.1-0.5-0.3-0.7-0.3c-0.6-0.1-1.2,0.1-1.6,0.6c-0.4,0.4-0.5,1-0.5,1.6
							c0.1,0.7,0.5,1.5,1.1,1.8C578.8,553.6,579.4,553.6,579.9,553.2z"/>
					</g>
					<path class="st81" d="M579.1,551.9c0.2-0.1,0.2-0.3,0.3-0.5c0-0.1,0-0.1,0-0.2c0-0.1,0-0.2-0.1-0.3c-0.2-0.2-0.5-0.4-0.8-0.3
						c-0.3,0.1-0.5,0.3-0.5,0.6c0.1,0.2,0.2,0.4,0.4,0.5C578.7,552,578.9,552.1,579.1,551.9z"/>
				</g>
			</g>
		</g>
		<g>
			<path class="st83" d="M555.1,549.6c0.4-0.3,0.8-0.7,1.3-1c5.1-3.8,10.1,8.1,3.2,10.1c-4.6,1.3-9.2-3.3-6-7.6
				C554,550.5,554.6,550,555.1,549.6z"/>
			<path class="st78" d="M557.8,556.4c0.4,0,0.9,0,1.6-0.2c7-1.7,13.6-3.2,19.6-7.4c2.8-1.9-1-8.1-3.8-8.8c-3.4-1-9.2,3.1-11.8,5
				C561.7,546.1,553.2,556.2,557.8,556.4z"/>
		</g>
	</g>
</g>
</svg>
