<svg id="レイヤー_1" data-name="レイヤー 1" xmlns="http://www.w3.org/2000/svg" viewBox="0 0 128 128"><defs><style>.cls-1{fill:#bdccd4;}</style></defs><path class="cls-1" d="M57.06,13.33v17A40.64,40.64,0,0,0,32.22,39q-11.49,8.58-11.5,20.51,0,7.09,5.68,7.09a25.27,25.27,0,0,0,5.11-1,31.92,31.92,0,0,1,6.39-.85q7.8,0,14.69,6.32t6.88,17.38a26.46,26.46,0,0,1-7.09,18.53q-7.11,7.74-19.45,7.73-14.76,0-23.85-11.14T0,72.52Q0,45.13,16.68,29.58T57.06,13.33Zm68.53,0v17q-12.63,0-24.49,8.45T89.25,59.46q0,7.09,5.68,7.09a25.39,25.39,0,0,0,5.11-1,31.92,31.92,0,0,1,6.39-.85q8.22,0,14.9,6.53T128,88.41a26.47,26.47,0,0,1-7.1,18.53q-7.09,7.74-19.44,7.73-14.76,0-23.85-11.14t-9.08-31q0-27.39,16.68-42.94T125.59,13.33Z"/></svg>