<svg xmlns="http://www.w3.org/2000/svg" xmlns:xlink="http://www.w3.org/1999/xlink" viewBox="0 0 751.83 243.81"><defs><style>.cls-1{fill:none;}.cls-2{isolation:isolate;}.cls-3{fill:maroon;}.cls-4{fill:#8e0000;}.cls-5{fill:#930000;}.cls-6{fill:#940000;}.cls-7{fill:#fc0000;}.cls-8{clip-path:url(#clip-path);}.cls-9{fill:#d8d8d8;}.cls-10{fill:#d6d6d6;}.cls-11{clip-path:url(#clip-path-2);}.cls-12{clip-path:url(#clip-path-3);}.cls-13{fill:#d4d4d4;}.cls-14{fill:#fbfbfb;}.cls-15{clip-path:url(#clip-path-4);}.cls-16{clip-path:url(#clip-path-5);}.cls-17{clip-path:url(#clip-path-6);}.cls-18{clip-path:url(#clip-path-7);}.cls-19{clip-path:url(#clip-path-8);}.cls-20{clip-path:url(#clip-path-9);}.cls-21{clip-path:url(#clip-path-10);}.cls-22{clip-path:url(#clip-path-11);}.cls-23{clip-path:url(#clip-path-12);}.cls-24{clip-path:url(#clip-path-13);}.cls-25{clip-path:url(#clip-path-14);}.cls-26{clip-path:url(#clip-path-15);}.cls-27{clip-path:url(#clip-path-16);}.cls-28{clip-path:url(#clip-path-17);}.cls-29{clip-path:url(#clip-path-18);}.cls-30{fill:#c9c9c9;}.cls-31{clip-path:url(#clip-path-19);}.cls-32{clip-path:url(#clip-path-20);}.cls-33{clip-path:url(#clip-path-21);}.cls-34{clip-path:url(#clip-path-22);}.cls-35{fill:#cacaca;}.cls-36{fill:#d7d7d7;}.cls-37{clip-path:url(#clip-path-24);}.cls-38{clip-path:url(#clip-path-25);}.cls-39{clip-path:url(#clip-path-26);}.cls-40{clip-path:url(#clip-path-27);}.cls-41{clip-path:url(#clip-path-28);}.cls-42{clip-path:url(#clip-path-29);}.cls-43{clip-path:url(#clip-path-30);}.cls-44{clip-path:url(#clip-path-31);}.cls-45{clip-path:url(#clip-path-32);}.cls-46{clip-path:url(#clip-path-33);}.cls-47{clip-path:url(#clip-path-34);}.cls-48{clip-path:url(#clip-path-35);}.cls-49{clip-path:url(#clip-path-36);}.cls-50{clip-path:url(#clip-path-37);}.cls-51{clip-path:url(#clip-path-38);}.cls-52{clip-path:url(#clip-path-39);}.cls-53{clip-path:url(#clip-path-40);}.cls-54{clip-path:url(#clip-path-41);}.cls-55{clip-path:url(#clip-path-42);}.cls-56{clip-path:url(#clip-path-43);}.cls-57{clip-path:url(#clip-path-45);}.cls-58{clip-path:url(#clip-path-46);}.cls-59{clip-path:url(#clip-path-47);}.cls-60{clip-path:url(#clip-path-48);}.cls-61{clip-path:url(#clip-path-49);}.cls-62{clip-path:url(#clip-path-50);}.cls-63{clip-path:url(#clip-path-51);}.cls-64{clip-path:url(#clip-path-52);}.cls-65{clip-path:url(#clip-path-53);}.cls-66{clip-path:url(#clip-path-54);}.cls-67{clip-path:url(#clip-path-55);}.cls-68{clip-path:url(#clip-path-56);}.cls-69{clip-path:url(#clip-path-57);}.cls-70{clip-path:url(#clip-path-58);}.cls-71{clip-path:url(#clip-path-59);}.cls-72{clip-path:url(#clip-path-60);}.cls-73{clip-path:url(#clip-path-61);}.cls-74{clip-path:url(#clip-path-62);}.cls-75{clip-path:url(#clip-path-63);}.cls-76{clip-path:url(#clip-path-64);}.cls-77{clip-path:url(#clip-path-65);}.cls-78{clip-path:url(#clip-path-66);}.cls-79{clip-path:url(#clip-path-67);}.cls-80{clip-path:url(#clip-path-68);}.cls-81{clip-path:url(#clip-path-69);}.cls-82{clip-path:url(#clip-path-70);}.cls-83{clip-path:url(#clip-path-71);}.cls-84{clip-path:url(#clip-path-72);}.cls-85{clip-path:url(#clip-path-73);}.cls-86{clip-path:url(#clip-path-74);}.cls-87{clip-path:url(#clip-path-75);}.cls-88{clip-path:url(#clip-path-76);}.cls-89{clip-path:url(#clip-path-77);}.cls-90{clip-path:url(#clip-path-78);}.cls-91{clip-path:url(#clip-path-79);}.cls-92{clip-path:url(#clip-path-80);}.cls-93{clip-path:url(#clip-path-81);}.cls-94{clip-path:url(#clip-path-82);}.cls-95{clip-path:url(#clip-path-83);}.cls-96{clip-path:url(#clip-path-84);}.cls-97{clip-path:url(#clip-path-85);}.cls-98{clip-path:url(#clip-path-86);}.cls-99{clip-path:url(#clip-path-87);}.cls-100{clip-path:url(#clip-path-88);}.cls-101{clip-path:url(#clip-path-89);}.cls-102{clip-path:url(#clip-path-90);}.cls-103{clip-path:url(#clip-path-91);}.cls-104{clip-path:url(#clip-path-92);}.cls-105{clip-path:url(#clip-path-93);}.cls-106{clip-path:url(#clip-path-94);}.cls-107{clip-path:url(#clip-path-95);}.cls-108{clip-path:url(#clip-path-96);}</style><clipPath id="clip-path" transform="translate(-35.79)"><path class="cls-1" d="M279.74,51.19l10.36-4.62-.11,0a8.68,8.68,0,0,0-3.68,3.23,15.21,15.21,0,0,0-2,5.12,29,29,0,0,0-.62,6.21,29.81,29.81,0,0,0,.67,6.17A20.18,20.18,0,0,0,286.41,73a14.12,14.12,0,0,0,3.71,4.37,11.78,11.78,0,0,0,5.54,2.3,10.2,10.2,0,0,0,5.74-.48L291,83.78a10.1,10.1,0,0,1-5.74.49,12,12,0,0,1-5.54-2.3,14.23,14.23,0,0,1-3.71-4.37A20.3,20.3,0,0,1,274,72a29.84,29.84,0,0,1-.67-6.18,29.07,29.07,0,0,1,.62-6.21,15.16,15.16,0,0,1,2-5.11,8.77,8.77,0,0,1,3.68-3.24Z"/></clipPath><clipPath id="clip-path-2" transform="translate(-35.79)"><path class="cls-1" d="M303,87.89,292.63,92.5a12.41,12.41,0,0,0,4.75-4l10.36-4.62A12.54,12.54,0,0,1,303,87.89Z"/></clipPath><clipPath id="clip-path-3" transform="translate(-35.79)"><path class="cls-1" d="M274.63,42.67,285,38.05c.46-.21.94-.39,1.43-.56a18.6,18.6,0,0,1,9.07-.57l-10.36,4.61a18.71,18.71,0,0,0-9.07.58A13.68,13.68,0,0,0,274.63,42.67Z"/></clipPath><clipPath id="clip-path-4" transform="translate(-35.79)"><path class="cls-1" d="M285.13,41.53l10.36-4.61a21.27,21.27,0,0,1,6.57,2.18,22.41,22.41,0,0,1,5.74,4.27,22.6,22.6,0,0,1,6.3,14L303.74,62a22.6,22.6,0,0,0-6.3-14,22.41,22.41,0,0,0-5.74-4.27A21.56,21.56,0,0,0,285.13,41.53Z"/></clipPath><clipPath id="clip-path-5" transform="translate(-35.79)"><path class="cls-1" d="M339.22,72.24l10.36-4.62-.23.12A5.92,5.92,0,0,0,347,70a10,10,0,0,0-1.25,3.48,22.79,22.79,0,0,0-.35,4.17,24.27,24.27,0,0,0,.38,4.26,13.76,13.76,0,0,0,1.28,3.87,9.15,9.15,0,0,0,2.38,3,7.63,7.63,0,0,0,3.7,1.56,6.33,6.33,0,0,0,3.59-.32l-10.37,4.62a6.29,6.29,0,0,1-3.58.31,7.62,7.62,0,0,1-3.7-1.55,9.15,9.15,0,0,1-2.38-3,13.94,13.94,0,0,1-1.28-3.88,24.16,24.16,0,0,1-.38-4.25,22.9,22.9,0,0,1,.35-4.18,10,10,0,0,1,1.25-3.47A6,6,0,0,1,339,72.35Z"/></clipPath><clipPath id="clip-path-6" transform="translate(-35.79)"><path class="cls-1" d="M361.75,96.76l-10.36,4.61a11.47,11.47,0,0,0,3.4-2.32,13.93,13.93,0,0,0,3.3-5.4,22.65,22.65,0,0,0,1.14-7.59,26.28,26.28,0,0,0-1.2-8l10.36-4.61a26.19,26.19,0,0,1,1.2,8A22.55,22.55,0,0,1,368.45,89a13.93,13.93,0,0,1-3.3,5.4A11.5,11.5,0,0,1,361.75,96.76Z"/></clipPath><clipPath id="clip-path-7" transform="translate(-35.79)"><path class="cls-1" d="M334.24,65.39l10.36-4.62a13.84,13.84,0,0,1,1.64-.6,15.62,15.62,0,0,1,6.77-.28A18.63,18.63,0,0,1,365,67a21,21,0,0,1,3.35,6.5L358,78.07a21,21,0,0,0-3.35-6.49,18.63,18.63,0,0,0-12-7.07,15.31,15.31,0,0,0-6.77.28A11,11,0,0,0,334.24,65.39Z"/></clipPath><clipPath id="clip-path-8" transform="translate(-35.79)"><path class="cls-1" d="M377.6,78.28,388,73.66l-.18.09a5.88,5.88,0,0,0-2.33,2.16,10.43,10.43,0,0,0-1.34,3.47,21,21,0,0,0-.42,4.3,22.73,22.73,0,0,0,.45,4.37,14.21,14.21,0,0,0,1.37,3.89,9.34,9.34,0,0,0,2.35,2.9,6.91,6.91,0,0,0,3.33,1.47,5.5,5.5,0,0,0,3.13-.3L384,100.62a5.5,5.5,0,0,1-3.13.3,6.9,6.9,0,0,1-3.33-1.46,9.46,9.46,0,0,1-2.35-2.9,14.27,14.27,0,0,1-1.37-3.9,22.63,22.63,0,0,1-.45-4.36,21.15,21.15,0,0,1,.42-4.31,10.46,10.46,0,0,1,1.34-3.46,5.74,5.74,0,0,1,2.33-2.16Z"/></clipPath><clipPath id="clip-path-9" transform="translate(-35.79)"><path class="cls-1" d="M399.92,103.42,389.56,108a10,10,0,0,0,3.26-2.38,14.54,14.54,0,0,0,3-5.38A26,26,0,0,0,397,92a29.55,29.55,0,0,0-1.2-8.68l10.36-4.62a29.24,29.24,0,0,1,1.2,8.69,25.76,25.76,0,0,1-1.13,8.31,14.71,14.71,0,0,1-3,5.38A10.15,10.15,0,0,1,399.92,103.42Z"/></clipPath><clipPath id="clip-path-10" transform="translate(-35.79)"><path class="cls-1" d="M377.15,71.73l10.36-4.62a8.57,8.57,0,0,1,.89-.33,12.35,12.35,0,0,1,10.43,1.48,15.36,15.36,0,0,1,4.24,4.07,21.64,21.64,0,0,1,3.07,6.34l-10.36,4.62a21.83,21.83,0,0,0-3.07-6.35,15.46,15.46,0,0,0-4.24-4.06A12.59,12.59,0,0,0,383.73,71a12.37,12.37,0,0,0-5.69.39A6.76,6.76,0,0,0,377.15,71.73Z"/></clipPath><clipPath id="clip-path-11" transform="translate(-35.79)"><path class="cls-1" d="M412.13,97.91l10.36-4.61a4.21,4.21,0,0,0-.63.34A3.45,3.45,0,0,0,420.73,95a4.86,4.86,0,0,0-.42,2.22,5.54,5.54,0,0,0,.44,2.29,4.55,4.55,0,0,0,1.17,1.61,5.68,5.68,0,0,0,1.73,1,10.63,10.63,0,0,0,2,.53,6.76,6.76,0,0,0,3.81-.25L419.13,107a6.85,6.85,0,0,1-3.81.25,10.63,10.63,0,0,1-2-.53,5.9,5.9,0,0,1-1.73-1,4.55,4.55,0,0,1-1.17-1.61,5.57,5.57,0,0,1-.44-2.29,4.8,4.8,0,0,1,.42-2.22,3.37,3.37,0,0,1,1.13-1.31A4.25,4.25,0,0,1,412.13,97.91Z"/></clipPath><clipPath id="clip-path-12" transform="translate(-35.79)"><path class="cls-1" d="M430.32,107.91,420,112.52a9.41,9.41,0,0,0,2.82-2l10.36-4.62A9.44,9.44,0,0,1,430.32,107.91Z"/></clipPath><clipPath id="clip-path-13" transform="translate(-35.79)"><path class="cls-1" d="M413.17,83.09l10.36-4.62a4.75,4.75,0,0,0-.59.33c-1,.68-1.55,2-1.71,3.89l-10.36,4.62c.16-1.92.73-3.21,1.71-3.89A3.08,3.08,0,0,1,413.17,83.09Z"/></clipPath><clipPath id="clip-path-14" transform="translate(-35.79)"><path class="cls-1" d="M432.05,92.21l-10.36,4.62a3,3,0,0,0,.67-.42l10.36-4.62A2.71,2.71,0,0,1,432.05,92.21Z"/></clipPath><clipPath id="clip-path-15" transform="translate(-35.79)"><path class="cls-1" d="M405.59,92.64,416,88a9.06,9.06,0,0,1,2.44-.68A31.71,31.71,0,0,1,422.3,87c1.31,0,2.61,0,3.87.06a20.42,20.42,0,0,0,3.39-.09,5.48,5.48,0,0,0,1.61-.42l-10.36,4.62a5.81,5.81,0,0,1-1.61.42,20.42,20.42,0,0,1-3.39.09q-1.9-.11-3.87-.06A31.71,31.71,0,0,0,408,92,9.45,9.45,0,0,0,405.59,92.64Z"/></clipPath><clipPath id="clip-path-16" transform="translate(-35.79)"><path class="cls-1" d="M431.41,112.05l10.36-4.61a10,10,0,0,0,.87,3.46l-10.36,4.62A10,10,0,0,1,431.41,112.05Z"/></clipPath><clipPath id="clip-path-17" transform="translate(-35.79)"><path class="cls-1" d="M431.14,107.37l10.36-4.62a44.32,44.32,0,0,0,.27,4.69l-10.36,4.61A44.13,44.13,0,0,1,431.14,107.37Z"/></clipPath><clipPath id="clip-path-18" transform="translate(-35.79)"><path class="cls-1" d="M407.57,77l10.36-4.61a12.1,12.1,0,0,1,4.21-1,24,24,0,0,1,5.27.25,34.14,34.14,0,0,1,4.86,1.15,16.1,16.1,0,0,1,4.5,2.2,11.66,11.66,0,0,1,3.34,3.61,10.57,10.57,0,0,1,1.32,5.45L431.07,88.7a10.56,10.56,0,0,0-1.32-5.44,11.66,11.66,0,0,0-3.34-3.61,16.12,16.12,0,0,0-4.5-2.21,35.56,35.56,0,0,0-4.86-1.15,23.34,23.34,0,0,0-5.27-.24A12.32,12.32,0,0,0,407.57,77Z"/></clipPath><clipPath id="clip-path-19" transform="translate(-35.79)"><path class="cls-1" d="M469.13,125.45l10.36-4.62,2.52.68c.59.15,1.18.27,1.76.36.28,0,.55.09.83.12l-10.36,4.61c-.28,0-.55-.06-.83-.11-.58-.09-1.17-.22-1.76-.37Z"/></clipPath><clipPath id="clip-path-20" transform="translate(-35.79)"><path class="cls-1" d="M486.11,121.73l-10.36,4.62a3.4,3.4,0,0,1-1.51.25L484.6,122A3.4,3.4,0,0,0,486.11,121.73Z"/></clipPath><clipPath id="clip-path-21" transform="translate(-35.79)"><path class="cls-1" d="M491.29,129.69l-10.36,4.61a11.37,11.37,0,0,1-6.41.46c-.91-.15-1.8-.32-2.68-.53s-1.78-.44-2.68-.67L479.52,129l2.68.66c.88.21,1.77.39,2.68.53A11.47,11.47,0,0,0,491.29,129.69Z"/></clipPath><clipPath id="clip-path-22" transform="translate(-35.79)"><path class="cls-1" d="M491.29,129.69l-10.36,4.61a5.59,5.59,0,0,0,.6-.3q2.5-1.49,3.92-5.62l10.36-4.62c-.94,2.76-2.25,4.64-3.92,5.62C491.7,129.49,491.5,129.59,491.29,129.69Z"/></clipPath><clipPath id="clip-path-24" transform="translate(-35.79)"><path class="cls-1" d="M352.23,151.32l10.36-4.61a1.42,1.42,0,0,0-.25.12,5.92,5.92,0,0,0-2.36,2.22,10,10,0,0,0-1.25,3.48,22.79,22.79,0,0,0-.35,4.17,24.37,24.37,0,0,0,.39,4.26,14.37,14.37,0,0,0,1.27,3.88,9.24,9.24,0,0,0,2.38,3,7.67,7.67,0,0,0,3.7,1.56,6.37,6.37,0,0,0,3.61-.33l-10.36,4.62a6.37,6.37,0,0,1-3.61.33,7.77,7.77,0,0,1-3.7-1.56,9.28,9.28,0,0,1-2.38-3,14.19,14.19,0,0,1-1.27-3.87,24.37,24.37,0,0,1-.39-4.26,22.79,22.79,0,0,1,.35-4.17,9.94,9.94,0,0,1,1.25-3.48,6,6,0,0,1,2.36-2.23Z"/></clipPath><clipPath id="clip-path-25" transform="translate(-35.79)"><path class="cls-1" d="M374.74,175.84l-10.36,4.62a11.34,11.34,0,0,0,3.4-2.32,14,14,0,0,0,3.3-5.4,22.61,22.61,0,0,0,1.14-7.59,26.28,26.28,0,0,0-1.2-8l10.36-4.61a26.24,26.24,0,0,1,1.2,8,22.59,22.59,0,0,1-1.14,7.58,14,14,0,0,1-3.3,5.41A11.31,11.31,0,0,1,374.74,175.84Z"/></clipPath><clipPath id="clip-path-26" transform="translate(-35.79)"><path class="cls-1" d="M347.22,144.49l10.36-4.62a12.44,12.44,0,0,1,1.65-.61A15.62,15.62,0,0,1,366,139a18.9,18.9,0,0,1,6.81,2.43,18.7,18.7,0,0,1,5.22,4.64,20.63,20.63,0,0,1,3.35,6.5L371,157.16a20.9,20.9,0,0,0-3.35-6.49,18.4,18.4,0,0,0-5.22-4.64,18.9,18.9,0,0,0-6.81-2.43,15.46,15.46,0,0,0-6.77.28A12.44,12.44,0,0,0,347.22,144.49Z"/></clipPath><clipPath id="clip-path-27" transform="translate(-35.79)"><path class="cls-1" d="M390,157.23l10.36-4.62a3.75,3.75,0,0,0-.44.24,6.36,6.36,0,0,0-2.3,2.41,10.76,10.76,0,0,0-1.25,3.54,21.48,21.48,0,0,0-.35,4,22.73,22.73,0,0,0,.38,4,15.74,15.74,0,0,0,1.22,3.83,9.4,9.4,0,0,0,2.26,3,6.56,6.56,0,0,0,3.45,1.59,6.2,6.2,0,0,0,3.53-.31l-10.36,4.61a6.2,6.2,0,0,1-3.53.32,6.72,6.72,0,0,1-3.45-1.59,9.33,9.33,0,0,1-2.26-3,15.6,15.6,0,0,1-1.22-3.83,22.53,22.53,0,0,1-.38-4,21.4,21.4,0,0,1,.35-4,10.82,10.82,0,0,1,1.25-3.55,6.36,6.36,0,0,1,2.3-2.41Z"/></clipPath><clipPath id="clip-path-28" transform="translate(-35.79)"><path class="cls-1" d="M385,150.37l10.36-4.62c.4-.17.82-.33,1.25-.47a14.71,14.71,0,0,1,6.89-.37l-10.36,4.62a14.59,14.59,0,0,0-6.89.37A10.37,10.37,0,0,0,385,150.37Z"/></clipPath><clipPath id="clip-path-29" transform="translate(-35.79)"><path class="cls-1" d="M411.61,181.83l-10.36,4.62a10.93,10.93,0,0,0,2.2-1.31q4.05-3.1,4.88-10.11l10.36-4.61c-.56,4.66-2.18,8-4.88,10.11A10.88,10.88,0,0,1,411.61,181.83Z"/></clipPath><clipPath id="clip-path-30" transform="translate(-35.79)"><path class="cls-1" d="M393.09,149.53l10.36-4.62a20,20,0,0,1,5.45,1.7,17.19,17.19,0,0,1,4.69,3.27,16.33,16.33,0,0,1,3.37,4.77,16.64,16.64,0,0,1,1.51,6.23l-10.36,4.62a16.65,16.65,0,0,0-1.51-6.24,16.42,16.42,0,0,0-3.37-4.76,17.19,17.19,0,0,0-4.69-3.27A20,20,0,0,0,393.09,149.53Z"/></clipPath><clipPath id="clip-path-31" transform="translate(-35.79)"><path class="cls-1" d="M422.85,176.63,433.21,172a3.8,3.8,0,0,0-.63.35L422.22,177A3.23,3.23,0,0,1,422.85,176.63Z"/></clipPath><clipPath id="clip-path-32" transform="translate(-35.79)"><path class="cls-1" d="M440.21,181.09l-10.36,4.61A6.85,6.85,0,0,1,426,186a10.92,10.92,0,0,1-2-.53,5.72,5.72,0,0,1-1.72-1,4.58,4.58,0,0,1-1.18-1.61,5.57,5.57,0,0,1-.44-2.29,4.8,4.8,0,0,1,.42-2.22,3.25,3.25,0,0,1,1.14-1.31l10.36-4.62a3.32,3.32,0,0,0-1.14,1.31,4.86,4.86,0,0,0-.42,2.22,5.57,5.57,0,0,0,.44,2.29,4.4,4.4,0,0,0,1.18,1.61,5.52,5.52,0,0,0,1.72,1,10.92,10.92,0,0,0,2,.53A6.86,6.86,0,0,0,440.21,181.09Z"/></clipPath><clipPath id="clip-path-33" transform="translate(-35.79)"><path class="cls-1" d="M441,186.64l-10.36,4.62a9.75,9.75,0,0,0,2.85-2l10.36-4.62A9.39,9.39,0,0,1,441,186.64Z"/></clipPath><clipPath id="clip-path-34" transform="translate(-35.79)"><path class="cls-1" d="M423.88,161.82l10.36-4.62a4.61,4.61,0,0,0-.58.33c-1,.68-1.56,2-1.71,3.89L421.59,166c.15-1.92.72-3.21,1.71-3.89A3,3,0,0,1,423.88,161.82Z"/></clipPath><clipPath id="clip-path-35" transform="translate(-35.79)"><path class="cls-1" d="M442.75,170.94l-10.36,4.62a3.11,3.11,0,0,0,.68-.42l10.36-4.62A2.77,2.77,0,0,1,442.75,170.94Z"/></clipPath><clipPath id="clip-path-36" transform="translate(-35.79)"><path class="cls-1" d="M416.3,171.37l10.36-4.62a9.06,9.06,0,0,1,2.44-.68,28.5,28.5,0,0,1,3.91-.32c1.31,0,2.6,0,3.88.06a20.26,20.26,0,0,0,3.38-.09,5.64,5.64,0,0,0,1.62-.42l-10.36,4.62a6,6,0,0,1-1.62.42,20.26,20.26,0,0,1-3.38.09c-1.28-.07-2.57-.09-3.88-.06a28.49,28.49,0,0,0-3.91.31A9.45,9.45,0,0,0,416.3,171.37Z"/></clipPath><clipPath id="clip-path-37" transform="translate(-35.79)"><path class="cls-1" d="M442.12,190.78l10.36-4.61a10.22,10.22,0,0,0,.88,3.46L443,194.25A10.55,10.55,0,0,1,442.12,190.78Z"/></clipPath><clipPath id="clip-path-38" transform="translate(-35.79)"><path class="cls-1" d="M441.85,186.1l10.36-4.62a42,42,0,0,0,.27,4.69l-10.36,4.61A41.77,41.77,0,0,1,441.85,186.1Z"/></clipPath><clipPath id="clip-path-39" transform="translate(-35.79)"><path class="cls-1" d="M418.29,155.77l10.36-4.61a12,12,0,0,1,4.21-1,23.29,23.29,0,0,1,5.26.25,33.25,33.25,0,0,1,4.87,1.15,16,16,0,0,1,4.5,2.2,11.59,11.59,0,0,1,3.34,3.62,10.6,10.6,0,0,1,1.31,5.44l-10.36,4.61a10.66,10.66,0,0,0-1.31-5.44,11.66,11.66,0,0,0-3.34-3.61,16.26,16.26,0,0,0-4.5-2.21,34.59,34.59,0,0,0-4.87-1.15,23.31,23.31,0,0,0-5.26-.24A12.21,12.21,0,0,0,418.29,155.77Z"/></clipPath><clipPath id="clip-path-40" transform="translate(-35.79)"><path class="cls-1" d="M479.84,204.18l10.36-4.62,2.53.68c.58.15,1.17.27,1.76.37l.82.11L485,205.33c-.27,0-.55-.06-.82-.11a15.29,15.29,0,0,1-1.76-.37Z"/></clipPath><clipPath id="clip-path-41" transform="translate(-35.79)"><path class="cls-1" d="M496.82,200.46l-10.36,4.62a3.4,3.4,0,0,1-1.51.25l10.36-4.61A3.4,3.4,0,0,0,496.82,200.46Z"/></clipPath><clipPath id="clip-path-42" transform="translate(-35.79)"><path class="cls-1" d="M502,208.42,491.64,213a11.37,11.37,0,0,1-6.41.46c-.91-.15-1.8-.32-2.68-.53l-2.68-.67,10.36-4.61,2.68.66c.88.21,1.77.39,2.68.53A11.47,11.47,0,0,0,502,208.42Z"/></clipPath><clipPath id="clip-path-43" transform="translate(-35.79)"><path class="cls-1" d="M502,208.42,491.64,213a5.59,5.59,0,0,0,.6-.3q2.52-1.48,3.92-5.62l10.36-4.62c-.93,2.76-2.24,4.64-3.91,5.62Z"/></clipPath><clipPath id="clip-path-45" transform="translate(-35.79)"><path class="cls-1" d="M71.1,43.44,60.74,48.05a2.36,2.36,0,0,1-.28.12,8.11,8.11,0,0,1-2.77.5,16.26,16.26,0,0,1-2.77-.2,14.59,14.59,0,0,1-3.7-1.1,10.75,10.75,0,0,1-3.11-2.09A9.7,9.7,0,0,1,46,42.13a11,11,0,0,1-.82-4.36l10.36-4.61a11,11,0,0,0,.82,4.36,9.76,9.76,0,0,0,2.14,3.14,10.75,10.75,0,0,0,3.11,2.09,14.59,14.59,0,0,0,3.7,1.1,16.26,16.26,0,0,0,2.77.2,7.87,7.87,0,0,0,2.77-.5Z"/></clipPath><clipPath id="clip-path-46" transform="translate(-35.79)"><path class="cls-1" d="M49.15,13.58,59.51,9l-.43.22a4.42,4.42,0,0,0-1.56,1.48,4.53,4.53,0,0,0-.61,2.54,5.52,5.52,0,0,0,.5,2.44,5.72,5.72,0,0,0,2,2,26.9,26.9,0,0,0,4,2.16q2.55,1.17,6.69,3L59.7,27.39c-2.76-1.23-5-2.22-6.69-3a27.32,27.32,0,0,1-4-2.16,5.8,5.8,0,0,1-2-2,5.52,5.52,0,0,1-.5-2.44,4.51,4.51,0,0,1,.61-2.54,4.25,4.25,0,0,1,1.56-1.48A3.48,3.48,0,0,1,49.15,13.58Z"/></clipPath><clipPath id="clip-path-47" transform="translate(-35.79)"><path class="cls-1" d="M44.07,5.85,54.43,1.23a13.5,13.5,0,0,1,3.6-1,19.52,19.52,0,0,1,5.91,0L53.58,4.86a19.85,19.85,0,0,0-5.91,0A13.51,13.51,0,0,0,44.07,5.85Z"/></clipPath><clipPath id="clip-path-48" transform="translate(-35.79)"><path class="cls-1" d="M76.28,51.23,65.92,55.84a11.31,11.31,0,0,0,2.29-1.35A11,11,0,0,0,71.67,50a15.35,15.35,0,0,0,1.14-6.12,14.88,14.88,0,0,0-1.59-7.09A18.05,18.05,0,0,0,67.47,32a18.84,18.84,0,0,0-4.35-3c-1.46-.72-2.6-1.24-3.42-1.55l10.36-4.62c.82.31,2,.83,3.42,1.55a19.48,19.48,0,0,1,4.35,3,18.11,18.11,0,0,1,3.75,4.86,14.84,14.84,0,0,1,1.59,7.08A15.43,15.43,0,0,1,82,45.4a11,11,0,0,1-3.46,4.48A12.32,12.32,0,0,1,76.28,51.23Z"/></clipPath><clipPath id="clip-path-49" transform="translate(-35.79)"><path class="cls-1" d="M53.58,4.86,63.94.24a27.62,27.62,0,0,1,6.62,1.92,19.46,19.46,0,0,1,5.65,3.7,17.48,17.48,0,0,1,3.93,5.58A18.62,18.62,0,0,1,81.62,19L71.26,23.6a18.57,18.57,0,0,0-1.48-7.54,17.48,17.48,0,0,0-3.93-5.58A19.49,19.49,0,0,0,60.2,6.77,27.6,27.6,0,0,0,53.58,4.86Z"/></clipPath><clipPath id="clip-path-50" transform="translate(-35.79)"><path class="cls-1" d="M53.07,92.3l10.36-4.61-.13.06A8.57,8.57,0,0,0,59.62,91a15,15,0,0,0-2,5.12,28.94,28.94,0,0,0-.62,6.21,29.81,29.81,0,0,0,.67,6.17,20.6,20.6,0,0,0,2.08,5.63,14.35,14.35,0,0,0,3.71,4.37,11.77,11.77,0,0,0,5.55,2.3,8.44,8.44,0,0,0,4.83-.46l-10.36,4.62a8.53,8.53,0,0,1-4.83.46,12,12,0,0,1-5.55-2.3,14.35,14.35,0,0,1-3.71-4.37,20.85,20.85,0,0,1-2.08-5.63,29.84,29.84,0,0,1-.67-6.18,29,29,0,0,1,.62-6.21,15.09,15.09,0,0,1,2-5.12,8.7,8.7,0,0,1,3.68-3.23Z"/></clipPath><clipPath id="clip-path-51" transform="translate(-35.79)"><path class="cls-1" d="M47.91,83.8l10.36-4.61c.47-.21,1-.4,1.46-.57a18.59,18.59,0,0,1,9.07-.57L58.44,82.66a18.7,18.7,0,0,0-9.07.58A14.2,14.2,0,0,0,47.91,83.8Z"/></clipPath><clipPath id="clip-path-52" transform="translate(-35.79)"><path class="cls-1" d="M78.83,128.84l-10.36,4.62A13.77,13.77,0,0,0,72,131.19a16.26,16.26,0,0,0,4-5.74,25.24,25.24,0,0,0,1.88-8.09l10.36-4.62a25.36,25.36,0,0,1-1.88,8.1,16.31,16.31,0,0,1-4,5.73A13.51,13.51,0,0,1,78.83,128.84Z"/></clipPath><clipPath id="clip-path-53" transform="translate(-35.79)"><path class="cls-1" d="M58.44,82.66,68.8,78.05a22,22,0,0,1,6.87,2.26,22.32,22.32,0,0,1,5.81,4.35,23,23,0,0,1,4.24,6.26,24.76,24.76,0,0,1,2.12,8L77.48,103.5a24.89,24.89,0,0,0-2.12-8,23.11,23.11,0,0,0-4.24-6.25,22.5,22.5,0,0,0-12.68-6.62Z"/></clipPath><clipPath id="clip-path-54" transform="translate(-35.79)"><path class="cls-1" d="M90.23,32.78l10.36-4.61-.27.12A6,6,0,0,0,98,30.53,10.17,10.17,0,0,0,96.75,34a24.17,24.17,0,0,0-.36,4.24,23.14,23.14,0,0,0,.43,4.3,13.64,13.64,0,0,0,1.3,3.85,9.28,9.28,0,0,0,2.38,2.9,7.32,7.32,0,0,0,3.58,1.54,6,6,0,0,0,3.38-.29L97.1,55.15a6,6,0,0,1-3.38.3,7.32,7.32,0,0,1-3.58-1.54A9.32,9.32,0,0,1,87.76,51a13.46,13.46,0,0,1-1.3-3.84,23.22,23.22,0,0,1-.43-4.3,24.17,24.17,0,0,1,.36-4.24,10,10,0,0,1,1.25-3.48A6.05,6.05,0,0,1,90,32.91Z"/></clipPath><clipPath id="clip-path-55" transform="translate(-35.79)"><path class="cls-1" d="M112.76,57.92,102.4,62.53a10.57,10.57,0,0,0,4.16-3.31,15.35,15.35,0,0,0,2.6-5.49,25.71,25.71,0,0,0,.83-6.8,31.84,31.84,0,0,0-.89-7.45l10.36-4.62a32,32,0,0,1,.89,7.46,25.81,25.81,0,0,1-.83,6.8,15.23,15.23,0,0,1-2.6,5.48A10.51,10.51,0,0,1,112.76,57.92Z"/></clipPath><clipPath id="clip-path-56" transform="translate(-35.79)"><path class="cls-1" d="M89.64,26,100,21.36l.39-.16a10.46,10.46,0,0,1,5.41-.46,14.45,14.45,0,0,1,6.48,2.62,17.46,17.46,0,0,1,4.51,4.94,22.38,22.38,0,0,1,2.67,6.56L109.1,39.48a22.27,22.27,0,0,0-2.67-6.56,17.63,17.63,0,0,0-4.51-5,14.45,14.45,0,0,0-6.48-2.62,10.57,10.57,0,0,0-5.41.46Z"/></clipPath><clipPath id="clip-path-57" transform="translate(-35.79)"><path class="cls-1" d="M128.17,40.78l10.36-4.62a5.75,5.75,0,0,0-2.35,1.9,9.15,9.15,0,0,0-1.43,3.42,21.09,21.09,0,0,0-.41,4.44L124,50.53a21.16,21.16,0,0,1,.41-4.44,9,9,0,0,1,1.43-3.41A5.67,5.67,0,0,1,128.17,40.78Z"/></clipPath><clipPath id="clip-path-58" transform="translate(-35.79)"><path class="cls-1" d="M128.6,32.09,139,27.47a9.42,9.42,0,0,1,1.95-.62,8.8,8.8,0,0,1,3.2,0l-10.36,4.61a9,9,0,0,0-3.2,0A8.86,8.86,0,0,0,128.6,32.09Z"/></clipPath><clipPath id="clip-path-59" transform="translate(-35.79)"><path class="cls-1" d="M133.75,31.42l10.36-4.61a6.7,6.7,0,0,1,1.91.64l-10.36,4.62A6.75,6.75,0,0,0,133.75,31.42Z"/></clipPath><clipPath id="clip-path-60" transform="translate(-35.79)"><path class="cls-1" d="M168.47,60l-10.36,4.62a6.72,6.72,0,0,1-3.86.4A8.71,8.71,0,0,1,148.58,62c-1.31-1.64-2.05-4.07-2.18-7.28l10.36-4.62c.13,3.21.87,5.64,2.18,7.28a8.71,8.71,0,0,0,5.68,3.05A6.7,6.7,0,0,0,168.47,60Z"/></clipPath><clipPath id="clip-path-61" transform="translate(-35.79)"><path class="cls-1" d="M150,42.3l10.36-4.62a5.34,5.34,0,0,0-2.06,1.56,6.45,6.45,0,0,0-1.16,2.31,12.71,12.71,0,0,0-.39,2.3l-10.36,4.62a12.71,12.71,0,0,1,.39-2.3,6.45,6.45,0,0,1,1.16-2.31A5.34,5.34,0,0,1,150,42.3Z"/></clipPath><clipPath id="clip-path-62" transform="translate(-35.79)"><path class="cls-1" d="M172.57,66.91l-10.36,4.62c.34-.15.67-.32,1-.5q3.81-2.16,5.63-8.33l10.36-4.62q-1.81,6.17-5.63,8.33A9.18,9.18,0,0,1,172.57,66.91Z"/></clipPath><clipPath id="clip-path-63" transform="translate(-35.79)"><path class="cls-1" d="M168.72,50.27l10.36-4.61a29,29,0,0,1,.65,8.07l-10.36,4.62A29.07,29.07,0,0,0,168.72,50.27Z"/></clipPath><clipPath id="clip-path-64" transform="translate(-35.79)"><path class="cls-1" d="M146,35.5l10.37-4.62c.4-.18.82-.34,1.25-.49a14,14,0,0,1,6.62-.4,15.73,15.73,0,0,1,7.09,2.89,18.67,18.67,0,0,1,5,5.53,24.35,24.35,0,0,1,2.83,7.25l-10.36,4.61A24.4,24.4,0,0,0,165.89,43a18.71,18.71,0,0,0-5-5.54,16,16,0,0,0-7.09-2.89,14,14,0,0,0-6.62.41C146.78,35.15,146.36,35.32,146,35.5Z"/></clipPath><clipPath id="clip-path-65" transform="translate(-35.79)"><path class="cls-1" d="M184.14,61.8l10.36-4.61a4.21,4.21,0,0,0-.63.34,3.53,3.53,0,0,0-1.13,1.31,4.85,4.85,0,0,0-.43,2.22,5.88,5.88,0,0,0,.44,2.29A4.74,4.74,0,0,0,193.93,65a5.57,5.57,0,0,0,1.73,1,11,11,0,0,0,2,.53,6.91,6.91,0,0,0,3.8-.24l-10.36,4.62a6.91,6.91,0,0,1-3.8.24,11,11,0,0,1-2-.53,5.77,5.77,0,0,1-1.73-1A4.84,4.84,0,0,1,182.39,68a5.91,5.91,0,0,1-.44-2.29,4.79,4.79,0,0,1,.43-2.22,3.46,3.46,0,0,1,1.13-1.31A4.25,4.25,0,0,1,184.14,61.8Z"/></clipPath><clipPath id="clip-path-66" transform="translate(-35.79)"><path class="cls-1" d="M202.33,71.8,192,76.41a9.41,9.41,0,0,0,2.82-2l10.36-4.62A9.26,9.26,0,0,1,202.33,71.8Z"/></clipPath><clipPath id="clip-path-67" transform="translate(-35.79)"><path class="cls-1" d="M185.18,47l10.36-4.62a4.75,4.75,0,0,0-.59.33c-1,.68-1.55,2-1.71,3.89L182.88,51.2c.16-1.92.73-3.22,1.71-3.89A3.08,3.08,0,0,1,185.18,47Z"/></clipPath><clipPath id="clip-path-68" transform="translate(-35.79)"><path class="cls-1" d="M204.05,56.1l-10.36,4.62a3.54,3.54,0,0,0,.68-.42l10.36-4.62A2.77,2.77,0,0,1,204.05,56.1Z"/></clipPath><clipPath id="clip-path-69" transform="translate(-35.79)"><path class="cls-1" d="M177.6,56.53,188,51.91a9.06,9.06,0,0,1,2.44-.68,31.87,31.87,0,0,1,3.9-.32c1.32,0,2.61,0,3.88.06a20.38,20.38,0,0,0,3.39-.09,6,6,0,0,0,1.62-.42l-10.36,4.62a6,6,0,0,1-1.62.42,20.38,20.38,0,0,1-3.39.09c-1.27-.07-2.56-.09-3.88-.06a31.86,31.86,0,0,0-3.9.31A9.45,9.45,0,0,0,177.6,56.53Z"/></clipPath><clipPath id="clip-path-70" transform="translate(-35.79)"><path class="cls-1" d="M203.41,75.94l10.36-4.61a10.57,10.57,0,0,0,.88,3.46l-10.36,4.62A10.64,10.64,0,0,1,203.41,75.94Z"/></clipPath><clipPath id="clip-path-71" transform="translate(-35.79)"><path class="cls-1" d="M203.15,71.25l10.36-4.61c0,1.62.1,3.18.26,4.69l-10.36,4.61A44.22,44.22,0,0,1,203.15,71.25Z"/></clipPath><clipPath id="clip-path-72" transform="translate(-35.79)"><path class="cls-1" d="M179.56,40.94l10.36-4.61a12.27,12.27,0,0,1,4.23-1,24.45,24.45,0,0,1,5.26.24,35.4,35.4,0,0,1,4.87,1.16,16.1,16.1,0,0,1,4.5,2.2,11.66,11.66,0,0,1,3.34,3.61A10.47,10.47,0,0,1,213.43,48l-10.36,4.61a10.46,10.46,0,0,0-1.31-5.44,11.66,11.66,0,0,0-3.34-3.61,16.4,16.4,0,0,0-4.5-2.21,34.27,34.27,0,0,0-4.87-1.15,23.23,23.23,0,0,0-5.26-.24A12.27,12.27,0,0,0,179.56,40.94Z"/></clipPath><clipPath id="clip-path-73" transform="translate(-35.79)"><path class="cls-1" d="M239.36,78.06,229,82.67a7.72,7.72,0,0,0,3.54-3.36l10.36-4.62A7.79,7.79,0,0,1,239.36,78.06Z"/></clipPath><clipPath id="clip-path-74" transform="translate(-35.79)"><path class="cls-1" d="M221.48,53.59,231.84,49l-.18.09a5.6,5.6,0,0,0-2.36,2.19A10.47,10.47,0,0,0,228,54.69a21,21,0,0,0-.39,4.2,22,22,0,0,0,.45,4.23,14,14,0,0,0,1.4,3.93,10.6,10.6,0,0,0,2.41,3,7,7,0,0,0,3.49,1.56,6,6,0,0,0,3.38-.3L228.4,76a6,6,0,0,1-3.38.29,6.92,6.92,0,0,1-3.49-1.55,10.43,10.43,0,0,1-2.41-3,14.1,14.1,0,0,1-1.4-3.93,22,22,0,0,1-.45-4.23,20.88,20.88,0,0,1,.39-4.2,10.39,10.39,0,0,1,1.28-3.44,5.6,5.6,0,0,1,2.36-2.19Z"/></clipPath><clipPath id="clip-path-75" transform="translate(-35.79)"><path class="cls-1" d="M216.29,46.12l10.36-4.61.11,0a11,11,0,0,1,6.16-.59,13.11,13.11,0,0,1,5.39,2.21,12.37,12.37,0,0,1,4.05,4.63L232,52.32A12.53,12.53,0,0,0,228,47.69a13.09,13.09,0,0,0-5.39-2.2,11,11,0,0,0-6.16.58Z"/></clipPath><clipPath id="clip-path-76" transform="translate(-35.79)"><path class="cls-1" d="M513.88,128.1l-10.36,4.61a3.77,3.77,0,0,1-1.31.33l10.36-4.61A4,4,0,0,0,513.88,128.1Z"/></clipPath><clipPath id="clip-path-77" transform="translate(-35.79)"><path class="cls-1" d="M516.83,132.51l-10.36,4.62a8.54,8.54,0,0,0,2.52-1.7,9.22,9.22,0,0,0,2.05-3.1,11.22,11.22,0,0,0,.75-4.22l10.36-4.61a11.2,11.2,0,0,1-.75,4.21,9.26,9.26,0,0,1-2,3.11A8.71,8.71,0,0,1,516.83,132.51Z"/></clipPath><clipPath id="clip-path-78" transform="translate(-35.79)"><path class="cls-1" d="M95.55,110.67l10.36-4.62-.25.12a6,6,0,0,0-2.36,2.23,9.75,9.75,0,0,0-1.25,3.48,22.71,22.71,0,0,0-.35,4.17,24.16,24.16,0,0,0,.38,4.25,13.72,13.72,0,0,0,1.28,3.88,9.15,9.15,0,0,0,2.38,3,7.62,7.62,0,0,0,3.7,1.55,6.3,6.3,0,0,0,3.61-.32L102.69,133a6.3,6.3,0,0,1-3.61.33,7.63,7.63,0,0,1-3.7-1.56,9,9,0,0,1-2.38-3,13.72,13.72,0,0,1-1.28-3.88,24.25,24.25,0,0,1-.38-4.25,22.9,22.9,0,0,1,.35-4.18A9.69,9.69,0,0,1,92.94,113a5.82,5.82,0,0,1,2.36-2.23Z"/></clipPath><clipPath id="clip-path-79" transform="translate(-35.79)"><path class="cls-1" d="M118.05,135.19l-10.36,4.62a11.39,11.39,0,0,0,3.41-2.32,14.29,14.29,0,0,0,3.3-5.41,22.59,22.59,0,0,0,1.14-7.58,26.24,26.24,0,0,0-1.2-8l10.36-4.62a26.28,26.28,0,0,1,1.2,8,22.69,22.69,0,0,1-1.14,7.59,14.32,14.32,0,0,1-3.3,5.4A11.39,11.39,0,0,1,118.05,135.19Z"/></clipPath><clipPath id="clip-path-80" transform="translate(-35.79)"><path class="cls-1" d="M90.52,103.83l10.36-4.61a12.72,12.72,0,0,1,1.67-.61,15.46,15.46,0,0,1,6.77-.28,19,19,0,0,1,6.81,2.43,18.53,18.53,0,0,1,5.22,4.64,21.33,21.33,0,0,1,3.35,6.49l-10.36,4.62A21.1,21.1,0,0,0,111,110,18.63,18.63,0,0,0,99,103a15.31,15.31,0,0,0-6.77.28A12.69,12.69,0,0,0,90.52,103.83Z"/></clipPath><clipPath id="clip-path-81" transform="translate(-35.79)"><path class="cls-1" d="M133.09,117l10.37-4.61a3.86,3.86,0,0,0-1.59,1.27c-1.06,1.43-1.58,4-1.57,7.62l-10.36,4.62c0-3.66.51-6.19,1.57-7.62A3.92,3.92,0,0,1,133.09,117Z"/></clipPath><clipPath id="clip-path-82" transform="translate(-35.79)"><path class="cls-1" d="M133.54,110.07l10.36-4.61.4-.17a10.32,10.32,0,0,1,5.41-.56l-10.36,4.61a10.31,10.31,0,0,0-5.41.57Z"/></clipPath><clipPath id="clip-path-83" transform="translate(-35.79)"><path class="cls-1" d="M139.35,109.34l10.36-4.61a15.06,15.06,0,0,1,5.76,2,11,11,0,0,1,3.56,3.55,14.19,14.19,0,0,1,1.83,4.93,33.68,33.68,0,0,1,.55,6.16L151.05,126a33.57,33.57,0,0,0-.55-6.15,14.52,14.52,0,0,0-1.83-4.94,11,11,0,0,0-3.56-3.54A14.9,14.9,0,0,0,139.35,109.34Z"/></clipPath><clipPath id="clip-path-84" transform="translate(-35.79)"><path class="cls-1" d="M169.62,122.77,180,118.15a3.89,3.89,0,0,0-1.59,1.28q-1.59,2.13-1.57,7.62l-10.36,4.61c0-3.66.51-6.19,1.57-7.62A3.86,3.86,0,0,1,169.62,122.77Z"/></clipPath><clipPath id="clip-path-85" transform="translate(-35.79)"><path class="cls-1" d="M170.06,115.86l10.36-4.62.4-.16a10.33,10.33,0,0,1,5.41-.57l-10.36,4.62a10.43,10.43,0,0,0-5.41.56Z"/></clipPath><clipPath id="clip-path-86" transform="translate(-35.79)"><path class="cls-1" d="M175.87,115.13l10.36-4.62a15,15,0,0,1,5.77,2,11,11,0,0,1,3.55,3.54,14.24,14.24,0,0,1,1.83,4.94,32.71,32.71,0,0,1,.55,6.15l-10.36,4.62a33.68,33.68,0,0,0-.55-6.16,14.19,14.19,0,0,0-1.83-4.93,10.92,10.92,0,0,0-3.55-3.54A15,15,0,0,0,175.87,115.13Z"/></clipPath><clipPath id="clip-path-87" transform="translate(-35.79)"><path class="cls-1" d="M223.53,145.77l-10.36,4.62a6.8,6.8,0,0,1-3.86.4,8.71,8.71,0,0,1-5.67-3q-2-2.46-2.19-7.28l10.36-4.61c.14,3.21.87,5.63,2.19,7.28a8.7,8.7,0,0,0,5.67,3A6.71,6.71,0,0,0,223.53,145.77Z"/></clipPath><clipPath id="clip-path-88" transform="translate(-35.79)"><path class="cls-1" d="M205,128.06l10.36-4.62a5.31,5.31,0,0,0-2,1.56,6.29,6.29,0,0,0-1.16,2.31,11.93,11.93,0,0,0-.39,2.29l-10.36,4.62a12,12,0,0,1,.39-2.3,6.45,6.45,0,0,1,1.16-2.31A5.19,5.19,0,0,1,205,128.06Z"/></clipPath><clipPath id="clip-path-89" transform="translate(-35.79)"><path class="cls-1" d="M227.63,152.67l-10.36,4.61a9.18,9.18,0,0,0,1-.5q3.81-2.17,5.63-8.33l10.36-4.61q-1.83,6.15-5.63,8.33C228.3,152.35,228,152.52,227.63,152.67Z"/></clipPath><clipPath id="clip-path-90" transform="translate(-35.79)"><path class="cls-1" d="M223.78,136l10.36-4.62a29.45,29.45,0,0,1,.65,8.08l-10.36,4.61A29.38,29.38,0,0,0,223.78,136Z"/></clipPath><clipPath id="clip-path-91" transform="translate(-35.79)"><path class="cls-1" d="M201,121.25l10.36-4.62q.62-.27,1.26-.48a13.92,13.92,0,0,1,6.61-.41,15.8,15.8,0,0,1,7.09,2.89,18.62,18.62,0,0,1,5,5.54,24.29,24.29,0,0,1,2.83,7.24L223.78,136a24.35,24.35,0,0,0-2.83-7.25,18.58,18.58,0,0,0-5-5.53,15.68,15.68,0,0,0-7.09-2.89,13.92,13.92,0,0,0-6.61.4C201.84,120.91,201.42,121.07,201,121.25Z"/></clipPath><clipPath id="clip-path-92" transform="translate(-35.79)"><path class="cls-1" d="M241.69,133.75l10.36-4.62a3.68,3.68,0,0,0-.44.23,6.43,6.43,0,0,0-2.3,2.41,11,11,0,0,0-1.25,3.54,21.55,21.55,0,0,0-.35,4,22.68,22.68,0,0,0,.39,4,15.3,15.3,0,0,0,1.21,3.83,9.55,9.55,0,0,0,2.26,3,6.63,6.63,0,0,0,3.45,1.58,6.2,6.2,0,0,0,3.53-.31l-10.36,4.62a6.2,6.2,0,0,1-3.53.31,6.64,6.64,0,0,1-3.45-1.59,9.4,9.4,0,0,1-2.26-3,15.25,15.25,0,0,1-1.21-3.84,21.86,21.86,0,0,1,0-8,11.14,11.14,0,0,1,1.25-3.55,6.4,6.4,0,0,1,2.3-2.4A2.64,2.64,0,0,1,241.69,133.75Z"/></clipPath><clipPath id="clip-path-93" transform="translate(-35.79)"><path class="cls-1" d="M236.66,126.88,247,122.27a12.25,12.25,0,0,1,1.24-.48,14.72,14.72,0,0,1,6.89-.36L244.79,126a14.59,14.59,0,0,0-6.89.37A11.37,11.37,0,0,0,236.66,126.88Z"/></clipPath><clipPath id="clip-path-94" transform="translate(-35.79)"><path class="cls-1" d="M263.31,158.34,253,163a10.93,10.93,0,0,0,2.2-1.31c2.7-2.06,4.32-5.44,4.88-10.11l10.36-4.61q-.84,7-4.88,10.11A10.88,10.88,0,0,1,263.31,158.34Z"/></clipPath><clipPath id="clip-path-95" transform="translate(-35.79)"><path class="cls-1" d="M244.79,126l10.36-4.61a20,20,0,0,1,5.45,1.69,17,17,0,0,1,4.69,3.28,16.37,16.37,0,0,1,3.38,4.76,16.83,16.83,0,0,1,1.5,6.23L259.81,142a16.79,16.79,0,0,0-1.5-6.23,16.55,16.55,0,0,0-3.38-4.77,17.19,17.19,0,0,0-4.69-3.27A20,20,0,0,0,244.79,126Z"/></clipPath><clipPath id="clip-path-96" transform="translate(-35.79)"><path class="cls-1" d="M276.05,156.3l10.36-4.62a5.93,5.93,0,0,0,.75,3.45,4.6,4.6,0,0,0,3,1.3c.5.08,1,.13,1.42.16s.88,0,1.29,0l-10.36,4.62q-.62,0-1.29,0c-.46,0-.92-.07-1.42-.15a4.65,4.65,0,0,1-3-1.3A6,6,0,0,1,276.05,156.3Z"/></clipPath></defs><g id="レイヤー_2" data-name="レイヤー 2"><g id="レイヤー_1-2" data-name="レイヤー 1"><g class="cls-2"><polygon class="cls-3" points="617.28 184.21 662.86 159.41 636.63 202.82 591.04 227.62 617.28 184.21"/><polygon class="cls-4" points="529.7 32.68 575.29 7.88 638.52 16.76 592.93 41.56 529.7 32.68"/><polygon class="cls-5" points="592.93 41.56 638.52 16.76 662.69 65.19 617.1 89.99 592.93 41.56"/><polygon class="cls-6" points="646.06 140.12 691.64 115.33 751.83 219.01 706.25 243.81 646.06 140.12"/><polygon class="cls-7" points="703.67 57.13 646.06 140.12 706.25 243.81 643.03 234.93 617.28 184.21 591.04 227.62 527.81 218.73 587.64 131.91 529.7 32.68 592.93 41.56 617.1 89.99 640.43 48.24 703.67 57.13"/><polygon class="cls-3" points="703.67 57.13 749.26 32.33 691.64 115.33 646.06 140.12 703.67 57.13"/><polygon class="cls-4" points="640.43 48.24 686.02 23.44 749.26 32.33 703.67 57.13 640.43 48.24"/></g><g class="cls-2"><g class="cls-2"><g class="cls-8"><g class="cls-2"><path class="cls-9" d="M279.74,51.19l10.36-4.62-.11,0q-.35.16-.69.36l-10.36,4.61.69-.36.11,0" transform="translate(-35.79)"/><path class="cls-10" d="M278.94,51.59,289.3,47a8.81,8.81,0,0,0-3,2.87,15.21,15.21,0,0,0-2,5.12,29,29,0,0,0-.62,6.21,29.81,29.81,0,0,0,.67,6.17A20.18,20.18,0,0,0,286.41,73a14.12,14.12,0,0,0,3.71,4.37,11.78,11.78,0,0,0,5.54,2.3,10.2,10.2,0,0,0,5.74-.48L291,83.78a10.1,10.1,0,0,1-5.74.49,12,12,0,0,1-5.54-2.3,14.23,14.23,0,0,1-3.71-4.37A20.3,20.3,0,0,1,274,72a29.84,29.84,0,0,1-.67-6.18,29.07,29.07,0,0,1,.62-6.21,15.16,15.16,0,0,1,2-5.11,8.93,8.93,0,0,1,3-2.88" transform="translate(-35.79)"/></g></g></g><g class="cls-2"><g class="cls-11"><g class="cls-2"><path class="cls-10" d="M297.38,88.54l10.36-4.62a13.25,13.25,0,0,1-3.83,3.5L293.55,92a13.25,13.25,0,0,0,3.83-3.5" transform="translate(-35.79)"/><path class="cls-9" d="M293.55,92l10.36-4.62c-.3.17-.61.33-.92.47L292.63,92.5a8.77,8.77,0,0,0,.92-.46" transform="translate(-35.79)"/></g></g></g><g class="cls-2"><g class="cls-12"><g class="cls-2"><path class="cls-10" d="M274.63,42.67,285,38.05c.46-.21.94-.39,1.43-.56a18.6,18.6,0,0,1,9.07-.57l-10.36,4.61a18.71,18.71,0,0,0-9.07.58,13.68,13.68,0,0,0-1.43.56" transform="translate(-35.79)"/></g></g></g><polygon class="cls-13" points="250.18 65.58 260.54 60.97 279.01 63.89 268.65 68.51 250.18 65.58"/><polygon class="cls-10" points="268.65 68.51 279.01 63.89 279.12 90.67 268.76 95.29 268.65 68.51"/><path class="cls-14" d="M285.13,41.53a21.56,21.56,0,0,1,6.57,2.19A22.41,22.41,0,0,1,297.44,48a22.6,22.6,0,0,1,6.3,14l-9.24-1.46a12.91,12.91,0,0,0-3.35-6.77,10.55,10.55,0,0,0-6-3,9.55,9.55,0,0,0-5.54.54A8.77,8.77,0,0,0,276,54.47a15.16,15.16,0,0,0-2,5.11,29.07,29.07,0,0,0-.62,6.21A29.84,29.84,0,0,0,274,72a20.3,20.3,0,0,0,2.09,5.63A14.23,14.23,0,0,0,279.76,82a12,12,0,0,0,5.54,2.3c3.21.5,5.67,0,7.41-1.57s2.75-4,3-7.46L286,73.7l0-8.12,18.47,2.93.11,26.78-6.16-1-1-5.77a11.89,11.89,0,0,1-5.7,4.33,13.8,13.8,0,0,1-6.34.49,23.38,23.38,0,0,1-9.09-3.42,25.09,25.09,0,0,1-6.83-6.52,30.55,30.55,0,0,1-4.28-8.83,35.9,35.9,0,0,1-1.52-10.33,32.34,32.34,0,0,1,1.44-10.06,20.91,20.91,0,0,1,4.22-7.62,15.57,15.57,0,0,1,6.78-4.47A18.71,18.71,0,0,1,285.13,41.53Z" transform="translate(-35.79)"/><g class="cls-2"><g class="cls-15"><g class="cls-2"><path class="cls-10" d="M285.13,41.53l10.36-4.61a21.27,21.27,0,0,1,6.57,2.18,22.41,22.41,0,0,1,5.74,4.27,22.6,22.6,0,0,1,6.3,14L303.74,62a22.6,22.6,0,0,0-6.3-14,22.41,22.41,0,0,0-5.74-4.27,21.56,21.56,0,0,0-6.57-2.19" transform="translate(-35.79)"/></g></g></g></g><g class="cls-2"><polygon class="cls-14" points="284.45 48.27 284.65 97.81 275.9 96.42 275.71 46.89 284.45 48.27"/><polygon class="cls-10" points="284.45 48.27 294.81 43.66 295.01 93.19 284.65 97.81 284.45 48.27"/><polygon class="cls-13" points="275.71 46.89 286.07 42.27 294.81 43.66 284.45 48.27 275.71 46.89"/></g><g class="cls-2"><g class="cls-2"><g class="cls-16"><g class="cls-2"><path class="cls-9" d="M339.22,72.24l10.36-4.62-.23.12-.24.13-10.36,4.61.24-.13.23-.11" transform="translate(-35.79)"/><path class="cls-10" d="M338.75,72.48l10.36-4.61A5.89,5.89,0,0,0,347,70a10,10,0,0,0-1.25,3.48,22.79,22.79,0,0,0-.35,4.17,24.27,24.27,0,0,0,.38,4.26,13.76,13.76,0,0,0,1.28,3.87,9.15,9.15,0,0,0,2.38,3,7.63,7.63,0,0,0,3.7,1.56,6.33,6.33,0,0,0,3.59-.32l-10.37,4.62a6.29,6.29,0,0,1-3.58.31,7.62,7.62,0,0,1-3.7-1.55,9.15,9.15,0,0,1-2.38-3,13.94,13.94,0,0,1-1.28-3.88,24.16,24.16,0,0,1-.38-4.25,22.9,22.9,0,0,1,.35-4.18,10,10,0,0,1,1.25-3.47,6,6,0,0,1,2.12-2.1" transform="translate(-35.79)"/></g></g></g><g class="cls-2"><g class="cls-17"><g class="cls-2"><path class="cls-10" d="M358,78.07l10.36-4.61a26.19,26.19,0,0,1,1.2,8A22.55,22.55,0,0,1,368.45,89a13.93,13.93,0,0,1-3.3,5.4,11,11,0,0,1-2.32,1.77l-10.36,4.62a11.68,11.68,0,0,0,2.32-1.77,13.93,13.93,0,0,0,3.3-5.4,22.65,22.65,0,0,0,1.14-7.59,26.28,26.28,0,0,0-1.2-8" transform="translate(-35.79)"/><path class="cls-9" d="M352.47,100.82l10.36-4.62a11,11,0,0,1-1.08.56l-10.36,4.61a11,11,0,0,0,1.08-.55" transform="translate(-35.79)"/></g></g></g><path class="cls-14" d="M358,78.07a26.28,26.28,0,0,1,1.2,8,22.65,22.65,0,0,1-1.14,7.59,13.93,13.93,0,0,1-3.3,5.4,11.68,11.68,0,0,1-5.19,3,16.29,16.29,0,0,1-6.8.24A19.14,19.14,0,0,1,336,99.86a18.69,18.69,0,0,1-5.19-4.6,21.18,21.18,0,0,1-3.35-6.46,26.3,26.3,0,0,1-1.2-8,22.87,22.87,0,0,1,1.14-7.62,14,14,0,0,1,3.3-5.44,12,12,0,0,1,5.16-3,15.31,15.31,0,0,1,6.77-.28,18.63,18.63,0,0,1,12,7.07A21,21,0,0,1,358,78.07Zm-7.9,10.75a22.39,22.39,0,0,0,.35-4.14,24.7,24.7,0,0,0-.38-4.29,13.41,13.41,0,0,0-1.28-3.88,9.29,9.29,0,0,0-2.41-3,7.67,7.67,0,0,0-3.73-1.6,5.5,5.5,0,0,0-6.05,2.65,10,10,0,0,0-1.25,3.47,22.9,22.9,0,0,0-.35,4.18,24.16,24.16,0,0,0,.38,4.25,13.94,13.94,0,0,0,1.28,3.88,9.15,9.15,0,0,0,2.38,3,7.62,7.62,0,0,0,3.7,1.55,6.12,6.12,0,0,0,3.72-.38,5.51,5.51,0,0,0,2.39-2.22,10.35,10.35,0,0,0,1.25-3.47" transform="translate(-35.79)"/><g class="cls-2"><g class="cls-18"><g class="cls-2"><path class="cls-10" d="M334.24,65.39l10.36-4.62a13.84,13.84,0,0,1,1.64-.6,15.62,15.62,0,0,1,6.77-.28A18.63,18.63,0,0,1,365,67a21,21,0,0,1,3.35,6.5L358,78.07a21,21,0,0,0-3.35-6.49,18.63,18.63,0,0,0-12-7.07,15.31,15.31,0,0,0-6.77.28,11,11,0,0,0-1.64.6" transform="translate(-35.79)"/></g></g></g></g><g class="cls-2"><polygon class="cls-10" points="337.47 101.6 347.83 96.98 347.85 101.56 337.49 106.17 337.47 101.6"/><polygon class="cls-13" points="337.8 74.75 348.16 70.13 348.28 70.15 337.92 74.77 337.8 74.75"/><g class="cls-2"><g class="cls-19"><g class="cls-2"><path class="cls-9" d="M377.6,78.28,388,73.66l-.18.09a2.69,2.69,0,0,0-.29.16l-10.36,4.62a2.69,2.69,0,0,1,.29-.16l.18-.09" transform="translate(-35.79)"/><path class="cls-10" d="M377.13,78.53l10.36-4.62a5.9,5.9,0,0,0-2,2,10.43,10.43,0,0,0-1.34,3.47,21,21,0,0,0-.42,4.3,22.73,22.73,0,0,0,.45,4.37,14.21,14.21,0,0,0,1.37,3.89,9.34,9.34,0,0,0,2.35,2.9,6.91,6.91,0,0,0,3.33,1.47,5.5,5.5,0,0,0,3.13-.3L384,100.62a5.5,5.5,0,0,1-3.13.3,6.9,6.9,0,0,1-3.33-1.46,9.46,9.46,0,0,1-2.35-2.9,14.27,14.27,0,0,1-1.37-3.9,22.63,22.63,0,0,1-.45-4.36,21.15,21.15,0,0,1,.42-4.31,10.46,10.46,0,0,1,1.34-3.46,5.82,5.82,0,0,1,2-2" transform="translate(-35.79)"/></g></g></g><polygon class="cls-10" points="337.72 56.71 348.08 52.09 348.16 70.13 337.8 74.75 337.72 56.71"/><polygon class="cls-13" points="328.98 55.33 339.34 50.71 348.08 52.09 337.72 56.71 328.98 55.33"/><g class="cls-2"><g class="cls-20"><g class="cls-2"><path class="cls-10" d="M395.78,83.29l10.36-4.62a29.24,29.24,0,0,1,1.2,8.69,25.76,25.76,0,0,1-1.13,8.31,14.71,14.71,0,0,1-3,5.38,10.87,10.87,0,0,1-2.41,1.94l-10.36,4.61a10.33,10.33,0,0,0,2.41-1.94,14.54,14.54,0,0,0,3-5.38A26,26,0,0,0,397,92a29.55,29.55,0,0,0-1.2-8.68" transform="translate(-35.79)"/><path class="cls-9" d="M390.41,107.6,400.77,103c-.28.16-.56.3-.85.43L389.56,108c.29-.13.57-.28.85-.44" transform="translate(-35.79)"/></g></g></g><path class="cls-14" d="M395.78,83.29A29.55,29.55,0,0,1,397,92a26,26,0,0,1-1.13,8.31,14.54,14.54,0,0,1-3,5.38,9.64,9.64,0,0,1-4.2,2.73,10.17,10.17,0,0,1-4.74.36,17,17,0,0,1-6.29-2.24,10.63,10.63,0,0,1-4.2-4.89l-.13,0,0,4.57L365,104.86l-.2-49.54,8.75,1.39.07,18,.12,0A7.69,7.69,0,0,1,378,71.4a12.37,12.37,0,0,1,5.69-.39,12.59,12.59,0,0,1,4.74,1.87,15.46,15.46,0,0,1,4.24,4.06A21.83,21.83,0,0,1,395.78,83.29Zm-8,11.6a20.64,20.64,0,0,0,.42-4.23,23,23,0,0,0-.45-4.44,14.09,14.09,0,0,0-1.37-3.89,9.43,9.43,0,0,0-2.32-2.9A6.82,6.82,0,0,0,380.74,78a5.41,5.41,0,0,0-3.32.41,5.74,5.74,0,0,0-2.33,2.16A10.46,10.46,0,0,0,373.75,84a21.15,21.15,0,0,0-.42,4.31,22.63,22.63,0,0,0,.45,4.36,14.27,14.27,0,0,0,1.37,3.9,9.46,9.46,0,0,0,2.35,2.9,6.9,6.9,0,0,0,3.33,1.46,5.29,5.29,0,0,0,3.35-.4,6,6,0,0,0,2.3-2.17,10.46,10.46,0,0,0,1.34-3.46" transform="translate(-35.79)"/><g class="cls-2"><g class="cls-21"><g class="cls-2"><path class="cls-10" d="M377.15,71.73l10.36-4.62a8.57,8.57,0,0,1,.89-.33,12.35,12.35,0,0,1,10.43,1.48,15.36,15.36,0,0,1,4.24,4.07,21.64,21.64,0,0,1,3.07,6.34l-10.36,4.62a21.83,21.83,0,0,0-3.07-6.35,15.46,15.46,0,0,0-4.24-4.06A12.59,12.59,0,0,0,383.73,71a12.37,12.37,0,0,0-5.69.39,6.76,6.76,0,0,0-.89.33" transform="translate(-35.79)"/></g></g></g></g><g class="cls-2"><g class="cls-2"><g class="cls-22"><g class="cls-2"><path class="cls-9" d="M412.13,97.91l10.36-4.61a3,3,0,0,0-.4.2l-10.36,4.61.4-.2" transform="translate(-35.79)"/><path class="cls-10" d="M411.73,98.11l10.36-4.61-.23.14A3.45,3.45,0,0,0,420.73,95a4.86,4.86,0,0,0-.42,2.22,5.54,5.54,0,0,0,.44,2.29,4.55,4.55,0,0,0,1.17,1.61,5.68,5.68,0,0,0,1.73,1,10.63,10.63,0,0,0,2,.53,6.76,6.76,0,0,0,3.81-.25L419.13,107a6.85,6.85,0,0,1-3.81.25,10.63,10.63,0,0,1-2-.53,5.9,5.9,0,0,1-1.73-1,4.55,4.55,0,0,1-1.17-1.61,5.57,5.57,0,0,1-.44-2.29,4.8,4.8,0,0,1,.42-2.22,3.37,3.37,0,0,1,1.13-1.31l.23-.15" transform="translate(-35.79)"/></g></g></g><g class="cls-2"><g class="cls-23"><g class="cls-2"><path class="cls-10" d="M422.78,110.55l10.36-4.62a9.38,9.38,0,0,1-2,1.55l-10.36,4.62a9.38,9.38,0,0,0,2-1.55" transform="translate(-35.79)"/><path class="cls-9" d="M420.79,112.1l10.36-4.62a9.33,9.33,0,0,1-.83.43L420,112.52a9.23,9.23,0,0,0,.83-.42" transform="translate(-35.79)"/></g></g></g><g class="cls-2"><g class="cls-24"><g class="cls-2"><path class="cls-9" d="M413.17,83.09l10.36-4.62-.35.18-10.36,4.62a2.31,2.31,0,0,1,.35-.18" transform="translate(-35.79)"/><path class="cls-10" d="M412.82,83.27l10.36-4.62-.24.15c-1,.68-1.55,2-1.71,3.89l-10.36,4.62c.16-1.92.73-3.21,1.71-3.89l.24-.15" transform="translate(-35.79)"/></g></g></g><g class="cls-2"><g class="cls-25"><g class="cls-2"><path class="cls-10" d="M422.36,96.41l10.36-4.62a2.86,2.86,0,0,1-.4.28L422,96.69a4,4,0,0,0,.4-.28" transform="translate(-35.79)"/><path class="cls-9" d="M422,96.69l10.36-4.62-.27.14-10.36,4.62.27-.14" transform="translate(-35.79)"/></g></g></g><g class="cls-2"><g class="cls-26"><g class="cls-2"><path class="cls-10" d="M405.59,92.64,416,88a9.06,9.06,0,0,1,2.44-.68A31.71,31.71,0,0,1,422.3,87c1.31,0,2.61,0,3.87.06a20.42,20.42,0,0,0,3.39-.09,5.48,5.48,0,0,0,1.61-.42l-10.36,4.62a5.81,5.81,0,0,1-1.61.42,20.42,20.42,0,0,1-3.39.09q-1.9-.11-3.87-.06A31.71,31.71,0,0,0,408,92a9.45,9.45,0,0,0-2.44.69" transform="translate(-35.79)"/></g></g></g><g class="cls-2"><g class="cls-27"><g class="cls-2"><path class="cls-10" d="M431.41,112.05l10.36-4.61a10,10,0,0,0,.87,3.46l-10.36,4.62a10,10,0,0,1-.87-3.47" transform="translate(-35.79)"/></g></g></g><g class="cls-2"><g class="cls-28"><g class="cls-2"><path class="cls-10" d="M431.14,107.37l10.36-4.62a44.32,44.32,0,0,0,.27,4.69l-10.36,4.61a44.13,44.13,0,0,1-.27-4.68" transform="translate(-35.79)"/></g></g></g><polygon class="cls-10" points="395.27 88.7 405.63 84.09 405.71 102.75 395.35 107.36 395.27 88.7"/><g class="cls-2"><g class="cls-29"><g class="cls-2"><path class="cls-10" d="M407.57,77l10.36-4.61a12.1,12.1,0,0,1,4.21-1,24,24,0,0,1,5.27.25,34.14,34.14,0,0,1,4.86,1.15,16.1,16.1,0,0,1,4.5,2.2,11.66,11.66,0,0,1,3.34,3.61,10.57,10.57,0,0,1,1.32,5.45L431.07,88.7a10.56,10.56,0,0,0-1.32-5.44,11.66,11.66,0,0,0-3.34-3.61,16.12,16.12,0,0,0-4.5-2.21,35.56,35.56,0,0,0-4.86-1.15,23.34,23.34,0,0,0-5.27-.24,12.32,12.32,0,0,0-4.21,1" transform="translate(-35.79)"/></g></g></g><path class="cls-14" d="M431.41,112.05a10,10,0,0,0,.87,3.47l-8.87-1.41a17.26,17.26,0,0,1-.4-1.76,15.82,15.82,0,0,1-.23-1.8,9.1,9.1,0,0,1-4.91,2.62,17.29,17.29,0,0,1-5.79,0,15.44,15.44,0,0,1-4.25-1.3,11.42,11.42,0,0,1-3.45-2.48,11.25,11.25,0,0,1-2.33-3.7,13.63,13.63,0,0,1-.85-4.92,10.42,10.42,0,0,1,.94-4.88,6.9,6.9,0,0,1,2.45-2.76A8.78,8.78,0,0,1,408,92a31.71,31.71,0,0,1,3.91-.31q2,0,3.87.06a20.42,20.42,0,0,0,3.39-.09,4.7,4.7,0,0,0,2.33-.85,2.43,2.43,0,0,0,.8-2.19,6.44,6.44,0,0,0-.48-2.61,4.7,4.7,0,0,0-1.23-1.65,5.37,5.37,0,0,0-1.79-1,15.27,15.27,0,0,0-2.19-.52,5.49,5.49,0,0,0-4.06.61c-1,.68-1.55,2-1.71,3.89l-8.74-1.39a11.06,11.06,0,0,1,1.51-5.51,8.89,8.89,0,0,1,3.44-3.13,11.88,11.88,0,0,1,4.7-1.23,23.34,23.34,0,0,1,5.27.24,35.56,35.56,0,0,1,4.86,1.15,16.12,16.12,0,0,1,4.5,2.21,11.66,11.66,0,0,1,3.34,3.61,10.56,10.56,0,0,1,1.32,5.44l.07,18.67A44.13,44.13,0,0,0,431.41,112.05Zm-9-12V96.41a3.14,3.14,0,0,1-1.39.64,12,12,0,0,1-1.78.24c-.64,0-1.3,0-2,0s-1.39,0-2.09,0a12.54,12.54,0,0,0-1.94.24,4.68,4.68,0,0,0-1.66.68,3.37,3.37,0,0,0-1.13,1.31,4.8,4.8,0,0,0-.42,2.22,5.57,5.57,0,0,0,.44,2.29,4.55,4.55,0,0,0,1.17,1.61,5.9,5.9,0,0,0,1.73,1,10.63,10.63,0,0,0,2,.53,6.56,6.56,0,0,0,4-.34,4.86,4.86,0,0,0,2.09-2,7,7,0,0,0,.82-2.61c.09-.91.14-1.64.14-2.2" transform="translate(-35.79)"/></g><g class="cls-2"><polygon class="cls-14" points="410.95 68.31 411.15 117.84 402.4 116.45 402.2 66.92 410.95 68.31"/><polygon class="cls-10" points="410.95 68.31 421.31 63.69 421.51 113.22 411.15 117.84 410.95 68.31"/><polygon class="cls-13" points="402.2 66.92 412.56 62.31 421.31 63.69 410.95 68.31 402.2 66.92"/></g><g class="cls-2"><polygon class="cls-14" points="426.84 70.83 427.04 120.36 418.29 118.97 418.09 69.44 426.84 70.83"/><polygon class="cls-10" points="426.84 70.83 437.2 66.21 437.4 115.74 427.04 120.36 426.84 70.83"/><polygon class="cls-13" points="418.09 69.44 428.45 64.82 437.2 66.21 426.84 70.83 418.09 69.44"/></g><g class="cls-2"><polygon class="cls-30" points="433.33 125.44 443.69 120.83 443.73 128.94 433.37 133.56 433.33 125.44"/><g class="cls-2"><g class="cls-31"><g class="cls-2"><path class="cls-10" d="M469.13,125.45l10.36-4.62,2.52.68c.59.15,1.18.27,1.76.36.28,0,.55.09.83.12l-10.36,4.61c-.28,0-.55-.06-.83-.11-.58-.09-1.17-.22-1.76-.37l-2.52-.67" transform="translate(-35.79)"/></g></g></g><g class="cls-2"><g class="cls-32"><g class="cls-2"><path class="cls-10" d="M474.24,126.6,484.6,122a3.4,3.4,0,0,0,1.51-.26l-10.36,4.62a3.4,3.4,0,0,1-1.51.25" transform="translate(-35.79)"/></g></g></g><g class="cls-2"><g class="cls-33"><g class="cls-2"><path class="cls-30" d="M469.16,133.56,479.52,129l2.68.66c.88.21,1.77.39,2.68.53a11.47,11.47,0,0,0,6.41-.45l-10.36,4.61a11.37,11.37,0,0,1-6.41.46c-.91-.15-1.8-.32-2.68-.53s-1.78-.44-2.68-.67" transform="translate(-35.79)"/></g></g></g><g class="cls-2"><g class="cls-34"><g class="cls-2"><path class="cls-10" d="M485.45,128.38l10.36-4.62c-.94,2.76-2.25,4.64-3.92,5.62h0L481.51,134h0q2.5-1.49,3.92-5.62" transform="translate(-35.79)"/><path class="cls-9" d="M481.51,134l10.36-4.62a6.36,6.36,0,0,1-.58.3l-10.36,4.61a6.27,6.27,0,0,0,.58-.29" transform="translate(-35.79)"/></g></g></g><g class="cls-2"><g class="cls-34"><g class="cls-2"><path class="cls-30" d="M485.45,128.38l10.36-4.62c-.94,2.76-2.25,4.64-3.92,5.62h0L481.51,134h0q2.5-1.49,3.92-5.62" transform="translate(-35.79)"/><path class="cls-35" d="M481.51,134l10.36-4.62a6.36,6.36,0,0,1-.58.3l-10.36,4.61a6.27,6.27,0,0,0,.58-.29" transform="translate(-35.79)"/></g></g></g><polygon class="cls-13" points="446.76 112.18 457.12 107.56 457.24 107.58 446.88 112.2 446.76 112.18"/><polygon class="cls-10" points="439.46 86.48 449.82 81.86 457.12 107.56 446.76 112.18 439.46 86.48"/><polygon class="cls-13" points="430.16 85.01 440.52 80.39 449.82 81.86 439.46 86.48 430.16 85.01"/><polygon class="cls-13" points="453.75 88.74 464.11 84.13 473.16 85.56 462.8 90.18 453.75 88.74"/><path class="cls-14" d="M498.59,90.18l-13.14,38.2q-1.41,4.14-3.92,5.62t-7,.76c-.91-.15-1.8-.32-2.68-.53s-1.78-.44-2.68-.67l0-8.11,2.52.67c.59.15,1.18.28,1.76.37.28.05.55.08.83.11a2.77,2.77,0,0,0,2.55-1.12,4.77,4.77,0,0,0,.82-2.78,7.27,7.27,0,0,0-.38-2.28L466,85l9.3,1.47,7.3,25.7.12,0,6.87-23.46Z" transform="translate(-35.79)"/><polygon class="cls-36" points="462.8 90.18 473.16 85.56 460.02 123.76 449.66 128.38 462.8 90.18"/><polygon class="cls-35" points="462.8 90.18 473.16 85.56 460.02 123.76 449.66 128.38 462.8 90.18"/></g><g class="cls-2"><polygon class="cls-10" points="278.42 124.35 288.77 119.73 288.94 160.11 278.57 164.73 278.42 124.35"/><polygon class="cls-13" points="268.75 122.82 279.11 118.2 288.77 119.73 278.42 124.35 268.75 122.82"/><polygon class="cls-14" points="278.42 124.35 278.57 164.73 300.01 168.12 300.04 177.28 268.94 172.35 268.75 122.82 278.42 124.35"/><polygon class="cls-13" points="278.57 164.73 288.94 160.11 310.37 163.5 300.01 168.12 278.57 164.73"/><polygon class="cls-10" points="300.01 168.12 310.37 163.5 310.4 172.66 300.04 177.28 300.01 168.12"/></g><g class="cls-2"><g class="cls-2"><g class="cls-37"><g class="cls-2"><path class="cls-9" d="M352.23,151.32l10.36-4.61a1.42,1.42,0,0,0-.25.12l-.24.13-10.36,4.61.24-.13.25-.12" transform="translate(-35.79)"/><path class="cls-10" d="M351.74,151.57,362.1,147a5.89,5.89,0,0,0-2.12,2.09,10,10,0,0,0-1.25,3.48,22.79,22.79,0,0,0-.35,4.17,24.37,24.37,0,0,0,.39,4.26,14.37,14.37,0,0,0,1.27,3.88,9.24,9.24,0,0,0,2.38,3,7.67,7.67,0,0,0,3.7,1.56,6.37,6.37,0,0,0,3.61-.33l-10.36,4.62a6.37,6.37,0,0,1-3.61.33,7.77,7.77,0,0,1-3.7-1.56,9.28,9.28,0,0,1-2.38-3,14.19,14.19,0,0,1-1.27-3.87,24.37,24.37,0,0,1-.39-4.26,22.79,22.79,0,0,1,.35-4.17,9.94,9.94,0,0,1,1.25-3.48,6,6,0,0,1,2.12-2.1" transform="translate(-35.79)"/></g></g></g><g class="cls-2"><g class="cls-38"><g class="cls-2"><path class="cls-10" d="M371,157.16l10.36-4.61a26.24,26.24,0,0,1,1.2,8,22.59,22.59,0,0,1-1.14,7.58,14,14,0,0,1-3.3,5.41,12,12,0,0,1-2.31,1.76l-10.36,4.61a11.21,11.21,0,0,0,2.31-1.76,14,14,0,0,0,3.3-5.4,22.61,22.61,0,0,0,1.14-7.59,26.28,26.28,0,0,0-1.2-8" transform="translate(-35.79)"/><path class="cls-9" d="M365.47,179.9l10.36-4.61a10.1,10.1,0,0,1-1.09.55l-10.36,4.62a11.2,11.2,0,0,0,1.09-.56" transform="translate(-35.79)"/></g></g></g><path class="cls-14" d="M371,157.16a26.28,26.28,0,0,1,1.2,8,22.61,22.61,0,0,1-1.14,7.59,14,14,0,0,1-3.3,5.4,11.68,11.68,0,0,1-5.19,3,16.12,16.12,0,0,1-6.8.24A19.2,19.2,0,0,1,349,179a18.69,18.69,0,0,1-5.19-4.6,21.16,21.16,0,0,1-3.34-6.46,26.3,26.3,0,0,1-1.21-8,23.07,23.07,0,0,1,1.14-7.61,13.77,13.77,0,0,1,3.31-5.44,11.88,11.88,0,0,1,5.15-3,15.46,15.46,0,0,1,6.77-.28,18.9,18.9,0,0,1,6.81,2.43,18.4,18.4,0,0,1,5.22,4.64A20.9,20.9,0,0,1,371,157.16Zm-7.9,10.75a22.38,22.38,0,0,0,.36-4.14,25.73,25.73,0,0,0-.39-4.29,13.31,13.31,0,0,0-1.28-3.88,9.27,9.27,0,0,0-2.41-3,7.58,7.58,0,0,0-3.73-1.6,5.85,5.85,0,0,0-3.69.42,6,6,0,0,0-2.36,2.23,9.94,9.94,0,0,0-1.25,3.48,22.79,22.79,0,0,0-.35,4.17,24.37,24.37,0,0,0,.39,4.26,14.19,14.19,0,0,0,1.27,3.87,9.28,9.28,0,0,0,2.38,3,7.77,7.77,0,0,0,3.7,1.56,6.24,6.24,0,0,0,3.73-.39,5.62,5.62,0,0,0,2.39-2.22,10.42,10.42,0,0,0,1.24-3.47" transform="translate(-35.79)"/><g class="cls-2"><g class="cls-39"><g class="cls-2"><path class="cls-10" d="M347.22,144.49l10.36-4.62a12.44,12.44,0,0,1,1.65-.61A15.62,15.62,0,0,1,366,139a18.9,18.9,0,0,1,6.81,2.43,18.7,18.7,0,0,1,5.22,4.64,20.63,20.63,0,0,1,3.35,6.5L371,157.16a20.9,20.9,0,0,0-3.35-6.49,18.4,18.4,0,0,0-5.22-4.64,18.9,18.9,0,0,0-6.81-2.43,15.46,15.46,0,0,0-6.77.28,12.44,12.44,0,0,0-1.65.61" transform="translate(-35.79)"/></g></g></g></g><g class="cls-2"><g class="cls-2"><g class="cls-40"><g class="cls-2"><path class="cls-9" d="M390,157.23l10.36-4.62-.38.2-10.36,4.62.38-.2" transform="translate(-35.79)"/><path class="cls-10" d="M389.61,157.43,400,152.81l-.06,0a6.36,6.36,0,0,0-2.3,2.41,10.76,10.76,0,0,0-1.25,3.54,21.48,21.48,0,0,0-.35,4,22.73,22.73,0,0,0,.38,4,15.74,15.74,0,0,0,1.22,3.83,9.4,9.4,0,0,0,2.26,3,6.56,6.56,0,0,0,3.45,1.59,6.2,6.2,0,0,0,3.53-.31l-10.36,4.61a6.2,6.2,0,0,1-3.53.32,6.72,6.72,0,0,1-3.45-1.59,9.33,9.33,0,0,1-2.26-3,15.6,15.6,0,0,1-1.22-3.83,22.53,22.53,0,0,1-.38-4,21.4,21.4,0,0,1,.35-4,10.82,10.82,0,0,1,1.25-3.55,6.36,6.36,0,0,1,2.3-2.41l.06,0" transform="translate(-35.79)"/></g></g></g><g class="cls-2"><g class="cls-41"><g class="cls-2"><path class="cls-10" d="M385,150.37l10.36-4.62c.4-.17.82-.33,1.25-.47a14.71,14.71,0,0,1,6.89-.37l-10.36,4.62a14.59,14.59,0,0,0-6.89.37,10.37,10.37,0,0,0-1.25.47" transform="translate(-35.79)"/></g></g></g><polygon class="cls-13" points="364.1 173.7 374.46 169.08 382.9 170.42 372.54 175.03 364.1 173.7"/><g class="cls-2"><g class="cls-42"><g class="cls-2"><path class="cls-10" d="M408.33,175l10.36-4.61c-.56,4.66-2.18,8-4.88,10.11a11.69,11.69,0,0,1-1.19.79l-10.36,4.61a10.23,10.23,0,0,0,1.19-.79q4.05-3.1,4.88-10.11" transform="translate(-35.79)"/><path class="cls-9" d="M402.26,185.93l10.36-4.61a8.68,8.68,0,0,1-1,.51l-10.36,4.62c.35-.16.68-.33,1-.52" transform="translate(-35.79)"/></g></g></g><path class="cls-14" d="M393.09,149.53a20,20,0,0,1,5.45,1.7,17.19,17.19,0,0,1,4.69,3.27,16.42,16.42,0,0,1,3.37,4.76,16.65,16.65,0,0,1,1.51,6.24l-8.56-1.36c-.6-4.21-2.76-6.6-6.5-7.2a5.05,5.05,0,0,0-3.5.52,6.36,6.36,0,0,0-2.3,2.41,10.82,10.82,0,0,0-1.25,3.55,21.4,21.4,0,0,0-.35,4,22.53,22.53,0,0,0,.38,4,15.6,15.6,0,0,0,1.22,3.83,9.33,9.33,0,0,0,2.26,3,6.72,6.72,0,0,0,3.45,1.59c2.1.33,3.7-.07,4.83-1.21a8.36,8.36,0,0,0,2.1-5l8.44,1.33q-.84,7-4.88,10.11t-10.4,2.1a17.78,17.78,0,0,1-6.56-2.39,18.36,18.36,0,0,1-5.1-4.59A21.74,21.74,0,0,1,378.1,174a24.05,24.05,0,0,1-1.19-7.57,24.91,24.91,0,0,1,1-7.56,14.76,14.76,0,0,1,3.15-5.68,11.7,11.7,0,0,1,5.1-3.24A14.59,14.59,0,0,1,393.09,149.53Z" transform="translate(-35.79)"/><g class="cls-2"><g class="cls-43"><g class="cls-2"><path class="cls-10" d="M393.09,149.53l10.36-4.62a20,20,0,0,1,5.45,1.7,17.19,17.19,0,0,1,4.69,3.27,16.33,16.33,0,0,1,3.37,4.77,16.64,16.64,0,0,1,1.51,6.23l-10.36,4.62a16.65,16.65,0,0,0-1.51-6.24,16.42,16.42,0,0,0-3.37-4.76,17.19,17.19,0,0,0-4.69-3.27,20,20,0,0,0-5.45-1.7" transform="translate(-35.79)"/></g></g></g></g><g class="cls-2"><g class="cls-2"><g class="cls-44"><g class="cls-2"><path class="cls-9" d="M422.85,176.63,433.21,172a2.58,2.58,0,0,0-.37.19l-10.36,4.61.37-.19" transform="translate(-35.79)"/><path class="cls-10" d="M422.48,176.82l10.36-4.61a2.26,2.26,0,0,0-.26.16L422.22,177l.26-.17" transform="translate(-35.79)"/></g></g></g><g class="cls-2"><g class="cls-45"><g class="cls-2"><path class="cls-10" d="M422.22,177l10.36-4.62a3.32,3.32,0,0,0-1.14,1.31,4.86,4.86,0,0,0-.42,2.22,5.57,5.57,0,0,0,.44,2.29,4.4,4.4,0,0,0,1.18,1.61,5.52,5.52,0,0,0,1.72,1,10.92,10.92,0,0,0,2,.53,6.86,6.86,0,0,0,3.81-.24l-10.36,4.61A6.85,6.85,0,0,1,426,186a10.92,10.92,0,0,1-2-.53,5.72,5.72,0,0,1-1.72-1,4.58,4.58,0,0,1-1.18-1.61,5.57,5.57,0,0,1-.44-2.29,4.8,4.8,0,0,1,.42-2.22,3.25,3.25,0,0,1,1.14-1.31" transform="translate(-35.79)"/></g></g></g><g class="cls-2"><g class="cls-46"><g class="cls-2"><path class="cls-10" d="M433.5,189.28l10.36-4.62a9.49,9.49,0,0,1-2,1.55l-10.36,4.62a9.49,9.49,0,0,0,2-1.55" transform="translate(-35.79)"/><path class="cls-9" d="M431.49,190.83l10.36-4.62a8.29,8.29,0,0,1-.84.43l-10.36,4.62a8.29,8.29,0,0,0,.84-.43" transform="translate(-35.79)"/></g></g></g><g class="cls-2"><g class="cls-47"><g class="cls-2"><path class="cls-9" d="M423.88,161.82l10.36-4.62-.34.18L423.54,162a2.21,2.21,0,0,1,.34-.18" transform="translate(-35.79)"/><path class="cls-10" d="M423.54,162l10.36-4.62-.24.15c-1,.68-1.56,2-1.71,3.89L421.59,166c.15-1.92.72-3.21,1.71-3.89l.24-.15" transform="translate(-35.79)"/></g></g></g><g class="cls-2"><g class="cls-48"><g class="cls-2"><path class="cls-10" d="M433.07,175.14l10.36-4.62a3.13,3.13,0,0,1-.4.28l-10.36,4.61a2.33,2.33,0,0,0,.4-.27" transform="translate(-35.79)"/><path class="cls-9" d="M432.67,175.41,443,170.8a2.44,2.44,0,0,1-.28.14l-10.36,4.62a1.51,1.51,0,0,0,.28-.15" transform="translate(-35.79)"/></g></g></g><g class="cls-2"><g class="cls-49"><g class="cls-2"><path class="cls-10" d="M416.3,171.37l10.36-4.62a9.06,9.06,0,0,1,2.44-.68,28.5,28.5,0,0,1,3.91-.32c1.31,0,2.6,0,3.88.06a20.26,20.26,0,0,0,3.38-.09,5.64,5.64,0,0,0,1.62-.42l-10.36,4.62a6,6,0,0,1-1.62.42,20.26,20.26,0,0,1-3.38.09c-1.28-.07-2.57-.09-3.88-.06a28.49,28.49,0,0,0-3.91.31,9.45,9.45,0,0,0-2.44.69" transform="translate(-35.79)"/></g></g></g><g class="cls-2"><g class="cls-50"><g class="cls-2"><path class="cls-10" d="M442.12,190.78l10.36-4.61a10.22,10.22,0,0,0,.88,3.46L443,194.25a10.55,10.55,0,0,1-.87-3.47" transform="translate(-35.79)"/></g></g></g><g class="cls-2"><g class="cls-51"><g class="cls-2"><path class="cls-10" d="M441.85,186.1l10.36-4.62a42,42,0,0,0,.27,4.69l-10.36,4.61a41.77,41.77,0,0,1-.27-4.68" transform="translate(-35.79)"/></g></g></g><polygon class="cls-10" points="405.99 167.44 416.35 162.82 416.42 181.48 406.06 186.1 405.99 167.44"/><g class="cls-2"><g class="cls-52"><g class="cls-2"><path class="cls-10" d="M418.29,155.77l10.36-4.61a12,12,0,0,1,4.21-1,23.29,23.29,0,0,1,5.26.25,33.25,33.25,0,0,1,4.87,1.15,16,16,0,0,1,4.5,2.2,11.59,11.59,0,0,1,3.34,3.62,10.6,10.6,0,0,1,1.31,5.44l-10.36,4.61a10.66,10.66,0,0,0-1.31-5.44,11.66,11.66,0,0,0-3.34-3.61,16.26,16.26,0,0,0-4.5-2.21,34.59,34.59,0,0,0-4.87-1.15,23.31,23.31,0,0,0-5.26-.24,12.21,12.21,0,0,0-4.21,1" transform="translate(-35.79)"/></g></g></g><path class="cls-14" d="M442.12,190.78a10.55,10.55,0,0,0,.87,3.47l-8.86-1.4a14.13,14.13,0,0,1-.41-1.77,15.79,15.79,0,0,1-.22-1.8,9.23,9.23,0,0,1-4.92,2.62,17.24,17.24,0,0,1-5.78,0,15.13,15.13,0,0,1-4.25-1.3,11.59,11.59,0,0,1-3.46-2.48,11.33,11.33,0,0,1-2.32-3.7,13.42,13.42,0,0,1-.85-4.92,10.55,10.55,0,0,1,.93-4.88,6.91,6.91,0,0,1,2.45-2.76,8.78,8.78,0,0,1,3.44-1.23,28.49,28.49,0,0,1,3.91-.31c1.31,0,2.6,0,3.88.06a20.26,20.26,0,0,0,3.38-.09,4.84,4.84,0,0,0,2.34-.84,2.5,2.5,0,0,0,.79-2.2,6.28,6.28,0,0,0-.47-2.61,4.72,4.72,0,0,0-1.24-1.65,5.37,5.37,0,0,0-1.79-1,15.45,15.45,0,0,0-2.18-.52,5.48,5.48,0,0,0-4.06.61c-1,.68-1.56,2-1.71,3.89l-8.75-1.39a11.06,11.06,0,0,1,1.52-5.51,8.72,8.72,0,0,1,3.43-3.13,11.88,11.88,0,0,1,4.71-1.23,23.31,23.31,0,0,1,5.26.24,34.59,34.59,0,0,1,4.87,1.15,16.26,16.26,0,0,1,4.5,2.21,11.66,11.66,0,0,1,3.34,3.61,10.66,10.66,0,0,1,1.31,5.44l.07,18.67A41.77,41.77,0,0,0,442.12,190.78Zm-9-12,0-3.67a3.4,3.4,0,0,1-1.38.65,12,12,0,0,1-1.78.23q-1,.06-2,0c-.7,0-1.4,0-2.09,0a11.31,11.31,0,0,0-1.94.25,4.13,4.13,0,0,0-1.65.67,3.25,3.25,0,0,0-1.14,1.31,4.8,4.8,0,0,0-.42,2.22,5.57,5.57,0,0,0,.44,2.29,4.58,4.58,0,0,0,1.18,1.61,5.72,5.72,0,0,0,1.72,1,10.92,10.92,0,0,0,2,.53,6.58,6.58,0,0,0,4-.34,5,5,0,0,0,2.08-2,7.29,7.29,0,0,0,.82-2.61,21,21,0,0,0,.15-2.2" transform="translate(-35.79)"/></g><g class="cls-2"><polygon class="cls-14" points="421.66 147.04 421.86 196.57 413.12 195.19 412.92 145.65 421.66 147.04"/><polygon class="cls-10" points="421.66 147.04 432.02 142.42 432.22 191.96 421.86 196.57 421.66 147.04"/><polygon class="cls-13" points="412.92 145.65 423.28 141.04 432.02 142.42 421.66 147.04 412.92 145.65"/></g><g class="cls-2"><polygon class="cls-14" points="437.55 149.56 437.75 199.09 429 197.7 428.81 148.17 437.55 149.56"/><polygon class="cls-10" points="437.55 149.56 447.91 144.94 448.11 194.47 437.75 199.09 437.55 149.56"/><polygon class="cls-13" points="428.81 148.17 439.17 143.55 447.91 144.94 437.55 149.56 428.81 148.17"/></g><g class="cls-2"><polygon class="cls-30" points="444.05 204.18 454.41 199.56 454.44 207.68 444.08 212.29 444.05 204.18"/><g class="cls-2"><g class="cls-53"><g class="cls-2"><path class="cls-10" d="M479.84,204.18l10.36-4.62,2.53.68c.58.15,1.17.27,1.76.37l.82.11L485,205.33c-.27,0-.55-.06-.82-.11a15.29,15.29,0,0,1-1.76-.37l-2.53-.67" transform="translate(-35.79)"/></g></g></g><g class="cls-2"><g class="cls-54"><g class="cls-2"><path class="cls-10" d="M485,205.33l10.36-4.61a3.4,3.4,0,0,0,1.51-.26l-10.36,4.62a3.4,3.4,0,0,1-1.51.25" transform="translate(-35.79)"/></g></g></g><g class="cls-2"><g class="cls-55"><g class="cls-2"><path class="cls-30" d="M479.87,212.29l10.36-4.61,2.68.66c.88.21,1.77.39,2.68.53a11.47,11.47,0,0,0,6.41-.45L491.64,213a11.37,11.37,0,0,1-6.41.46c-.91-.15-1.8-.32-2.68-.53l-2.68-.67" transform="translate(-35.79)"/></g></g></g><g class="cls-2"><g class="cls-56"><g class="cls-2"><path class="cls-10" d="M496.16,207.11l10.36-4.62c-.93,2.76-2.24,4.64-3.91,5.62h0l-10.36,4.62h0q2.52-1.48,3.92-5.62" transform="translate(-35.79)"/><path class="cls-9" d="M492.22,212.74l10.36-4.62a5.28,5.28,0,0,1-.58.3L491.64,213a3.92,3.92,0,0,0,.58-.29" transform="translate(-35.79)"/></g></g></g><g class="cls-2"><g class="cls-56"><g class="cls-2"><path class="cls-30" d="M496.16,207.11l10.36-4.62c-.93,2.76-2.24,4.64-3.91,5.62h0l-10.36,4.62h0q2.52-1.48,3.92-5.62" transform="translate(-35.79)"/><path class="cls-35" d="M492.22,212.74l10.36-4.62a5.28,5.28,0,0,1-.58.3L491.64,213a3.92,3.92,0,0,0,.58-.29" transform="translate(-35.79)"/></g></g></g><polygon class="cls-13" points="457.48 190.91 467.83 186.29 467.96 186.31 457.6 190.93 457.48 190.91"/><polygon class="cls-10" points="450.17 165.21 460.53 160.59 467.83 186.29 457.48 190.91 450.17 165.21"/><polygon class="cls-13" points="440.87 163.74 451.23 159.12 460.53 160.59 450.17 165.21 440.87 163.74"/><polygon class="cls-13" points="464.46 167.47 474.82 162.86 483.87 164.29 473.51 168.91 464.46 167.47"/><path class="cls-14" d="M509.3,168.91l-13.14,38.2q-1.4,4.14-3.92,5.62c-1.68,1-4,1.23-7,.76-.91-.15-1.8-.32-2.68-.53l-2.68-.67,0-8.11,2.53.67a15.29,15.29,0,0,0,1.76.37c.27.05.55.08.82.11a2.74,2.74,0,0,0,2.55-1.12,4.7,4.7,0,0,0,.82-2.78,7,7,0,0,0-.38-2.28l-11.28-35.41,9.3,1.47,7.31,25.7.12,0,6.86-23.46Z" transform="translate(-35.79)"/><polygon class="cls-36" points="473.51 168.91 483.87 164.29 470.73 202.49 460.37 207.11 473.51 168.91"/><polygon class="cls-35" points="473.51 168.91 483.87 164.29 470.73 202.49 460.37 207.11 473.51 168.91"/></g><g class="cls-2"><polygon class="cls-13" points="0 36.29 10.36 31.67 19.72 33.16 9.36 37.77 0 36.29"/><g class="cls-2"><g class="cls-57"><g class="cls-2"><path class="cls-10" d="M45.15,37.77l10.36-4.61a11,11,0,0,0,.82,4.36,9.76,9.76,0,0,0,2.14,3.14,10.75,10.75,0,0,0,3.11,2.09,14.59,14.59,0,0,0,3.7,1.1,16.26,16.26,0,0,0,2.77.2,7.87,7.87,0,0,0,2.77-.5l.28-.11L60.74,48.05a2.36,2.36,0,0,1-.28.12,8.11,8.11,0,0,1-2.77.5,16.26,16.26,0,0,1-2.77-.2,14.59,14.59,0,0,1-3.7-1.1,10.75,10.75,0,0,1-3.11-2.09A9.7,9.7,0,0,1,46,42.13a11,11,0,0,1-.82-4.36" transform="translate(-35.79)"/></g></g></g><g class="cls-2"><g class="cls-58"><g class="cls-2"><path class="cls-9" d="M49.15,13.58,59.51,9l-.43.22h0L48.69,13.81h0a3.48,3.48,0,0,1,.43-.22" transform="translate(-35.79)"/><path class="cls-10" d="M48.69,13.81,59.05,9.19a4.48,4.48,0,0,0-1.53,1.47,4.53,4.53,0,0,0-.61,2.54,5.52,5.52,0,0,0,.5,2.44,5.72,5.72,0,0,0,2,2,26.9,26.9,0,0,0,4,2.16q2.55,1.17,6.69,3L59.7,27.39c-2.76-1.23-5-2.22-6.69-3a27.32,27.32,0,0,1-4-2.16,5.8,5.8,0,0,1-2-2,5.52,5.52,0,0,1-.5-2.44,4.21,4.21,0,0,1,2.14-4" transform="translate(-35.79)"/></g></g></g><g class="cls-2"><g class="cls-59"><g class="cls-2"><path class="cls-10" d="M44.07,5.85,54.43,1.23a13.5,13.5,0,0,1,3.6-1,19.52,19.52,0,0,1,5.91,0L53.58,4.86a19.85,19.85,0,0,0-5.91,0,13.51,13.51,0,0,0-3.6,1" transform="translate(-35.79)"/></g></g></g><g class="cls-2"><g class="cls-60"><g class="cls-2"><path class="cls-10" d="M59.7,27.39l10.36-4.62c.82.31,2,.83,3.42,1.55a19.48,19.48,0,0,1,4.35,3,18.11,18.11,0,0,1,3.75,4.86,14.84,14.84,0,0,1,1.59,7.08A15.43,15.43,0,0,1,82,45.4a11,11,0,0,1-3.46,4.48,11.81,11.81,0,0,1-1.17.77L67,55.27a11.89,11.89,0,0,0,1.17-.78A11,11,0,0,0,71.67,50a15.35,15.35,0,0,0,1.14-6.12,14.88,14.88,0,0,0-1.59-7.09A18.05,18.05,0,0,0,67.47,32a18.84,18.84,0,0,0-4.35-3c-1.46-.72-2.6-1.24-3.42-1.55" transform="translate(-35.79)"/><path class="cls-9" d="M67,55.27,77.4,50.65c-.36.21-.73.4-1.12.58L65.92,55.84A10.7,10.7,0,0,0,67,55.27" transform="translate(-35.79)"/></g></g></g><path class="cls-14" d="M53.58,4.86A27.6,27.6,0,0,1,60.2,6.77a19.49,19.49,0,0,1,5.65,3.71,17.48,17.48,0,0,1,3.93,5.58,18.57,18.57,0,0,1,1.48,7.54l-9.37-1.48a10.93,10.93,0,0,0-.84-3.81,7.48,7.48,0,0,0-1.89-2.58,9.42,9.42,0,0,0-2.68-1.61,16.26,16.26,0,0,0-3.3-.87,9.66,9.66,0,0,0-2.34-.09,5,5,0,0,0-2.12.64,4.25,4.25,0,0,0-1.56,1.48,4.51,4.51,0,0,0-.61,2.54,5.52,5.52,0,0,0,.5,2.44,5.8,5.8,0,0,0,2,2,27.32,27.32,0,0,0,4,2.16c1.7.78,3.93,1.77,6.69,3,.82.31,2,.83,3.42,1.55a18.84,18.84,0,0,1,4.35,3,18.05,18.05,0,0,1,3.75,4.85,14.88,14.88,0,0,1,1.59,7.09A15.35,15.35,0,0,1,71.67,50a11,11,0,0,1-3.46,4.48,13.38,13.38,0,0,1-5.72,2.39,23.66,23.66,0,0,1-7.91-.07,27.8,27.8,0,0,1-7-2.13,20.69,20.69,0,0,1-6.05-4.11,19.14,19.14,0,0,1-4.18-6.14,19.64,19.64,0,0,1-1.51-8.14l9.36,1.48A11,11,0,0,0,46,42.13a9.7,9.7,0,0,0,2.14,3.15,10.75,10.75,0,0,0,3.11,2.09,14.59,14.59,0,0,0,3.7,1.1,16.26,16.26,0,0,0,2.77.2,8.11,8.11,0,0,0,2.77-.5,4.93,4.93,0,0,0,2.15-1.57,4.66,4.66,0,0,0,.85-3,5.41,5.41,0,0,0-1.16-3.44,11.32,11.32,0,0,0-3-2.55,32.69,32.69,0,0,0-4.19-2.12q-2.35-1-4.75-2.14a46.34,46.34,0,0,1-4.81-2.46,19.81,19.81,0,0,1-4.2-3.27,14.82,14.82,0,0,1-3-4.46,14.61,14.61,0,0,1-1.17-6,12.79,12.79,0,0,1,1.43-6.4,11.22,11.22,0,0,1,3.76-4.08,13.19,13.19,0,0,1,5.29-1.94A19.85,19.85,0,0,1,53.58,4.86Z" transform="translate(-35.79)"/><g class="cls-2"><g class="cls-61"><g class="cls-2"><path class="cls-10" d="M53.58,4.86,63.94.24a27.62,27.62,0,0,1,6.62,1.92,19.46,19.46,0,0,1,5.65,3.7,17.48,17.48,0,0,1,3.93,5.58A18.62,18.62,0,0,1,81.62,19L71.26,23.6a18.57,18.57,0,0,0-1.48-7.54,17.48,17.48,0,0,0-3.93-5.58A19.49,19.49,0,0,0,60.2,6.77a27.6,27.6,0,0,0-6.62-1.91" transform="translate(-35.79)"/></g></g></g></g><g class="cls-2"><g class="cls-2"><g class="cls-62"><g class="cls-2"><path class="cls-9" d="M53.07,92.3l10.36-4.61-.13.06a6.85,6.85,0,0,0-.71.37L52.23,92.73c.23-.13.47-.25.71-.37l.13-.06" transform="translate(-35.79)"/><path class="cls-10" d="M52.23,92.73l10.36-4.61a8.63,8.63,0,0,0-3,2.86,15,15,0,0,0-2,5.12,28.94,28.94,0,0,0-.62,6.21,29.81,29.81,0,0,0,.67,6.17,20.6,20.6,0,0,0,2.08,5.63,14.35,14.35,0,0,0,3.71,4.37,11.77,11.77,0,0,0,5.55,2.3,8.44,8.44,0,0,0,4.83-.46l-10.36,4.62a8.53,8.53,0,0,1-4.83.46,12,12,0,0,1-5.55-2.3,14.35,14.35,0,0,1-3.71-4.37,20.85,20.85,0,0,1-2.08-5.63,29.84,29.84,0,0,1-.67-6.18,29,29,0,0,1,.62-6.21,15.09,15.09,0,0,1,2-5.12,8.72,8.72,0,0,1,3-2.86" transform="translate(-35.79)"/></g></g></g><g class="cls-2"><g class="cls-63"><g class="cls-2"><path class="cls-10" d="M47.91,83.8l10.36-4.61c.47-.21,1-.4,1.46-.57a18.59,18.59,0,0,1,9.07-.57L58.44,82.66a18.7,18.7,0,0,0-9.07.58,14.2,14.2,0,0,0-1.46.56" transform="translate(-35.79)"/></g></g></g><polygon class="cls-13" points="32.75 115.88 43.11 111.26 52.48 112.74 42.11 117.36 32.75 115.88"/><g class="cls-2"><g class="cls-64"><g class="cls-2"><path class="cls-10" d="M77.91,117.36l10.36-4.62a25.36,25.36,0,0,1-1.88,8.1,16.31,16.31,0,0,1-4,5.73,13.57,13.57,0,0,1-2.24,1.62L69.75,132.8A13.51,13.51,0,0,0,72,131.19a16.26,16.26,0,0,0,4-5.74,25.24,25.24,0,0,0,1.88-8.09" transform="translate(-35.79)"/><path class="cls-9" d="M69.75,132.8l10.36-4.61a11.82,11.82,0,0,1-1.28.65l-10.36,4.62a14,14,0,0,0,1.28-.66" transform="translate(-35.79)"/></g></g></g><path class="cls-14" d="M58.44,82.66a22.5,22.5,0,0,1,12.68,6.62,23.11,23.11,0,0,1,4.24,6.25,24.89,24.89,0,0,1,2.12,8L68.12,102A11.32,11.32,0,0,0,67,98.4a13.28,13.28,0,0,0-2.17-3.08A12.06,12.06,0,0,0,61.9,93a10.21,10.21,0,0,0-3.42-1.2,9.38,9.38,0,0,0-5.54.54,8.7,8.7,0,0,0-3.68,3.23,15.09,15.09,0,0,0-2,5.12,29,29,0,0,0-.62,6.21,29.84,29.84,0,0,0,.67,6.18,20.85,20.85,0,0,0,2.08,5.63,14.35,14.35,0,0,0,3.71,4.37,12,12,0,0,0,5.55,2.3c3,.46,5.26-.19,6.92-2a12.77,12.77,0,0,0,3-7.56l9.37,1.48A25.24,25.24,0,0,1,76,125.45a16.26,16.26,0,0,1-4,5.74,14,14,0,0,1-5.9,3.09,18.59,18.59,0,0,1-7.44.2,23.16,23.16,0,0,1-9.09-3.41,25.13,25.13,0,0,1-6.83-6.53,30.12,30.12,0,0,1-4.28-8.82,35.55,35.55,0,0,1-1.52-10.33,31.87,31.87,0,0,1,1.44-10.07,20.85,20.85,0,0,1,4.21-7.61,15.52,15.52,0,0,1,6.79-4.47A18.7,18.7,0,0,1,58.44,82.66Z" transform="translate(-35.79)"/><g class="cls-2"><g class="cls-65"><g class="cls-2"><path class="cls-10" d="M58.44,82.66,68.8,78.05a22,22,0,0,1,6.87,2.26,22.32,22.32,0,0,1,5.81,4.35,23,23,0,0,1,4.24,6.26,24.76,24.76,0,0,1,2.12,8L77.48,103.5a24.89,24.89,0,0,0-2.12-8,23.11,23.11,0,0,0-4.24-6.25,22.5,22.5,0,0,0-12.68-6.62" transform="translate(-35.79)"/></g></g></g></g><g class="cls-2"><polygon class="cls-10" points="50.6 56.3 60.96 51.68 61.03 68.68 50.67 73.3 50.6 56.3"/><polygon class="cls-13" points="50.07 29.38 60.43 24.77 60.55 24.79 50.19 29.4 50.07 29.38"/><polygon class="cls-10" points="50.05 24.8 60.41 20.19 60.43 24.77 50.07 29.38 50.05 24.8"/><polygon class="cls-13" points="41.74 23.49 52.1 18.87 60.41 20.19 50.05 24.8 41.74 23.49"/><g class="cls-2"><g class="cls-66"><g class="cls-2"><path class="cls-9" d="M90.23,32.78l10.36-4.61-.27.12-.16.1L89.8,33l.16-.09.27-.13" transform="translate(-35.79)"/><path class="cls-10" d="M89.8,33l10.36-4.61A6,6,0,0,0,98,30.53,10.17,10.17,0,0,0,96.75,34a24.17,24.17,0,0,0-.36,4.24,23.14,23.14,0,0,0,.43,4.3,13.64,13.64,0,0,0,1.3,3.85,9.28,9.28,0,0,0,2.38,2.9,7.32,7.32,0,0,0,3.58,1.54,6,6,0,0,0,3.38-.29L97.1,55.15a6,6,0,0,1-3.38.3,7.32,7.32,0,0,1-3.58-1.54A9.32,9.32,0,0,1,87.76,51a13.46,13.46,0,0,1-1.3-3.84,23.22,23.22,0,0,1-.43-4.3,24.17,24.17,0,0,1,.36-4.24,10,10,0,0,1,1.25-3.48A6.06,6.06,0,0,1,89.8,33" transform="translate(-35.79)"/></g></g></g><g class="cls-2"><g class="cls-67"><g class="cls-2"><path class="cls-10" d="M109.1,39.48l10.36-4.62a32,32,0,0,1,.89,7.46,25.81,25.81,0,0,1-.83,6.8,15.23,15.23,0,0,1-2.6,5.48,10.5,10.5,0,0,1-3.15,2.8L103.41,62a10.64,10.64,0,0,0,3.15-2.8,15.35,15.35,0,0,0,2.6-5.49,25.71,25.71,0,0,0,.83-6.8,31.84,31.84,0,0,0-.89-7.45" transform="translate(-35.79)"/><path class="cls-9" d="M103.41,62l10.36-4.62c-.33.19-.66.36-1,.52L102.4,62.53a9.55,9.55,0,0,0,1-.51" transform="translate(-35.79)"/></g></g></g><g class="cls-2"><g class="cls-68"><g class="cls-2"><path class="cls-10" d="M89.64,26,100,21.36l.39-.16a10.46,10.46,0,0,1,5.41-.46,14.45,14.45,0,0,1,6.48,2.62,17.46,17.46,0,0,1,4.51,4.94,22.38,22.38,0,0,1,2.67,6.56L109.1,39.48a22.27,22.27,0,0,0-2.67-6.56,17.63,17.63,0,0,0-4.51-5,14.45,14.45,0,0,0-6.48-2.62,10.57,10.57,0,0,0-5.41.46l-.39.16" transform="translate(-35.79)"/></g></g></g><path class="cls-14" d="M109.1,39.48a31.84,31.84,0,0,1,.89,7.45,25.71,25.71,0,0,1-.83,6.8,15.35,15.35,0,0,1-2.6,5.49,10.57,10.57,0,0,1-4.35,3.4,11,11,0,0,1-6.12.55A13,13,0,0,1,90.63,61a13.72,13.72,0,0,1-4.11-4.64l-.12,0,.06,17-8.73-1.39-.2-48.42,8.31,1.31,0,4.58.12,0a8.06,8.06,0,0,1,4-3.59,10.57,10.57,0,0,1,5.41-.46A14.45,14.45,0,0,1,101.92,28a17.63,17.63,0,0,1,4.51,5A22.27,22.27,0,0,1,109.1,39.48Zm-8.21,10a23.7,23.7,0,0,0,.36-4.17,24,24,0,0,0-.42-4.29,13.82,13.82,0,0,0-1.34-3.93,9.83,9.83,0,0,0-2.38-3,7.07,7.07,0,0,0-3.55-1.56,5.67,5.67,0,0,0-3.6.43,6.05,6.05,0,0,0-2.32,2.23,10,10,0,0,0-1.25,3.48A24.17,24.17,0,0,0,86,42.86a23.22,23.22,0,0,0,.43,4.3A13.46,13.46,0,0,0,87.76,51a9.32,9.32,0,0,0,2.38,2.91,7.32,7.32,0,0,0,3.58,1.54,5.76,5.76,0,0,0,3.59-.4,5.93,5.93,0,0,0,2.34-2.16,9.7,9.7,0,0,0,1.24-3.45" transform="translate(-35.79)"/></g><g class="cls-2"><polygon class="cls-10" points="88.19 50.53 98.55 45.92 98.61 62.08 88.25 66.7 88.19 50.53"/><polygon class="cls-13" points="87.7 37.42 98.06 32.81 98.19 32.83 87.83 37.44 87.7 37.42"/><polygon class="cls-13" points="79.36 29.45 89.72 24.83 98.04 26.15 87.68 30.76 79.36 29.45"/><polygon class="cls-10" points="87.68 30.76 98.04 26.15 98.06 32.81 87.7 37.42 87.68 30.76"/><g class="cls-2"><g class="cls-69"><g class="cls-2"><path class="cls-9" d="M128.17,40.78l10.36-4.62a5.93,5.93,0,0,0-.56.29l-10.36,4.61a5.85,5.85,0,0,1,.56-.28" transform="translate(-35.79)"/><path class="cls-10" d="M127.61,41.06,138,36.45a5.62,5.62,0,0,0-1.79,1.61,9.15,9.15,0,0,0-1.43,3.42,21.09,21.09,0,0,0-.41,4.44L124,50.53a21.16,21.16,0,0,1,.41-4.44,9,9,0,0,1,1.43-3.41,5.77,5.77,0,0,1,1.79-1.62" transform="translate(-35.79)"/></g></g></g><g class="cls-2"><g class="cls-70"><g class="cls-2"><path class="cls-10" d="M128.6,32.09,139,27.47a9.42,9.42,0,0,1,1.95-.62,8.8,8.8,0,0,1,3.2,0l-10.36,4.61a9,9,0,0,0-3.2,0,8.86,8.86,0,0,0-2,.62" transform="translate(-35.79)"/></g></g></g><polygon class="cls-10" points="99.87 32.07 110.23 27.45 110.27 36.61 99.91 41.23 99.87 32.07"/><g class="cls-2"><g class="cls-71"><g class="cls-2"><path class="cls-10" d="M133.75,31.42l10.36-4.61a6.7,6.7,0,0,1,1.91.64l-10.36,4.62a6.75,6.75,0,0,0-1.91-.65" transform="translate(-35.79)"/></g></g></g><path class="cls-14" d="M133.75,31.42a6.75,6.75,0,0,1,1.91.65l0,9.16c-.41-.16-.91-.32-1.48-.48a15.77,15.77,0,0,0-1.67-.37,8,8,0,0,0-4.06.26,5.89,5.89,0,0,0-2.67,2,9,9,0,0,0-1.43,3.41,21.16,21.16,0,0,0-.41,4.44L124,66.7l-8.74-1.39-.15-35.86,8.32,1.31,0,6.66.13,0a10.45,10.45,0,0,1,1.65-2.82,9.08,9.08,0,0,1,5.28-3.15A9,9,0,0,1,133.75,31.42Z" transform="translate(-35.79)"/></g><g class="cls-2"><g class="cls-2"><g class="cls-72"><g class="cls-2"><path class="cls-10" d="M146.4,54.71l10.36-4.62c.13,3.21.87,5.64,2.18,7.28a8.71,8.71,0,0,0,5.68,3.05,6.7,6.7,0,0,0,3.85-.4l-10.36,4.62a6.72,6.72,0,0,1-3.86.4A8.71,8.71,0,0,1,148.58,62c-1.31-1.64-2.05-4.07-2.18-7.28" transform="translate(-35.79)"/></g></g></g><g class="cls-2"><g class="cls-73"><g class="cls-2"><path class="cls-9" d="M150,42.3l10.36-4.62a4.51,4.51,0,0,0-.58.3L149.4,42.59a6.27,6.27,0,0,1,.58-.29" transform="translate(-35.79)"/><path class="cls-10" d="M149.4,42.59,159.76,38a5.18,5.18,0,0,0-1.48,1.26,6.45,6.45,0,0,0-1.16,2.31,12.71,12.71,0,0,0-.39,2.3l-10.36,4.62a12.71,12.71,0,0,1,.39-2.3,6.45,6.45,0,0,1,1.16-2.31,5.06,5.06,0,0,1,1.48-1.27" transform="translate(-35.79)"/></g></g></g><polygon class="cls-13" points="110.58 48.47 120.94 43.85 135.17 46.1 124.81 50.72 110.58 48.47"/><g class="cls-2"><g class="cls-74"><g class="cls-2"><path class="cls-10" d="M168.83,62.7l10.36-4.62q-1.8,6.14-5.58,8.31L163.25,71c2.52-1.45,4.37-4.22,5.58-8.3" transform="translate(-35.79)"/><path class="cls-9" d="M163.25,71l10.36-4.61-.05,0a9.18,9.18,0,0,1-1,.5l-10.36,4.62c.34-.15.67-.32,1-.5l.05,0" transform="translate(-35.79)"/></g></g></g><polygon class="cls-13" points="125.34 61.48 135.7 56.86 143.4 58.08 133.04 62.7 125.34 61.48"/><g class="cls-2"><g class="cls-75"><g class="cls-2"><path class="cls-10" d="M168.72,50.27l10.36-4.61a29,29,0,0,1,.65,8.07l-10.36,4.62a29.07,29.07,0,0,0-.65-8.08" transform="translate(-35.79)"/></g></g></g><g class="cls-2"><g class="cls-76"><g class="cls-2"><path class="cls-10" d="M146,35.5l10.37-4.62c.4-.18.82-.34,1.25-.49a14,14,0,0,1,6.62-.4,15.73,15.73,0,0,1,7.09,2.89,18.67,18.67,0,0,1,5,5.53,24.35,24.35,0,0,1,2.83,7.25l-10.36,4.61A24.4,24.4,0,0,0,165.89,43a18.71,18.71,0,0,0-5-5.54,16,16,0,0,0-7.09-2.89,14,14,0,0,0-6.62.41c-.43.14-.85.31-1.26.49" transform="translate(-35.79)"/></g></g></g><path class="cls-14" d="M168.72,50.27a29.07,29.07,0,0,1,.65,8.08l-23-3.64c.13,3.21.87,5.64,2.18,7.28A8.71,8.71,0,0,0,154.25,65a6.45,6.45,0,0,0,4.56-.77,4.84,4.84,0,0,0,2.32-2.79l7.7,1.22Q167,68.87,163.2,71A13.85,13.85,0,0,1,154,72.34a18.61,18.61,0,0,1-6.78-2.42,18,18,0,0,1-5.13-4.66,21.92,21.92,0,0,1-3.26-6.48A26.43,26.43,0,0,1,137.64,51a21.69,21.69,0,0,1,1.14-7.31,14.87,14.87,0,0,1,3.31-5.48A12.65,12.65,0,0,1,147.21,35a14,14,0,0,1,6.62-.41,16,16,0,0,1,7.09,2.89,18.71,18.71,0,0,1,5,5.54A24.4,24.4,0,0,1,168.72,50.27Zm-22.35-1.8,14.23,2.25a14.28,14.28,0,0,0-2.21-6A6.87,6.87,0,0,0,153.61,42a6.4,6.4,0,0,0-3.48.24,5.51,5.51,0,0,0-2.21,1.63,6.45,6.45,0,0,0-1.16,2.31,12.71,12.71,0,0,0-.39,2.3" transform="translate(-35.79)"/></g><g class="cls-2"><g class="cls-2"><g class="cls-77"><g class="cls-2"><path class="cls-9" d="M184.14,61.8l10.36-4.61a3.29,3.29,0,0,0-.42.21L183.72,62l.42-.21" transform="translate(-35.79)"/><path class="cls-10" d="M183.72,62l10.36-4.61-.21.13a3.53,3.53,0,0,0-1.13,1.31,4.85,4.85,0,0,0-.43,2.22,5.88,5.88,0,0,0,.44,2.29A4.74,4.74,0,0,0,193.93,65a5.57,5.57,0,0,0,1.73,1,11,11,0,0,0,2,.53,6.91,6.91,0,0,0,3.8-.24l-10.36,4.62a6.91,6.91,0,0,1-3.8.24,11,11,0,0,1-2-.53,5.77,5.77,0,0,1-1.73-1A4.84,4.84,0,0,1,182.39,68a5.91,5.91,0,0,1-.44-2.29,4.79,4.79,0,0,1,.43-2.22,3.46,3.46,0,0,1,1.13-1.31l.21-.14" transform="translate(-35.79)"/></g></g></g><g class="cls-2"><g class="cls-78"><g class="cls-2"><path class="cls-10" d="M194.79,74.44l10.36-4.62a9.43,9.43,0,0,1-2,1.55L192.79,76a9.43,9.43,0,0,0,2-1.55" transform="translate(-35.79)"/><path class="cls-9" d="M192.79,76l10.36-4.62a9.16,9.16,0,0,1-.82.43L192,76.41a7.05,7.05,0,0,0,.82-.42" transform="translate(-35.79)"/></g></g></g><g class="cls-2"><g class="cls-79"><g class="cls-2"><path class="cls-9" d="M185.18,47l10.36-4.62-.35.18-10.36,4.62a2.31,2.31,0,0,1,.35-.18" transform="translate(-35.79)"/><path class="cls-10" d="M184.83,47.16l10.36-4.62-.24.15c-1,.68-1.55,2-1.71,3.89L182.88,51.2c.16-1.92.73-3.22,1.71-3.89a1.58,1.58,0,0,1,.24-.15" transform="translate(-35.79)"/></g></g></g><g class="cls-2"><g class="cls-80"><g class="cls-2"><path class="cls-10" d="M194.37,60.3l10.36-4.62a3.6,3.6,0,0,1-.4.28L194,60.58l.4-.28" transform="translate(-35.79)"/><path class="cls-9" d="M194,60.58,204.33,56l-.28.14-10.36,4.62.28-.14" transform="translate(-35.79)"/></g></g></g><g class="cls-2"><g class="cls-81"><g class="cls-2"><path class="cls-10" d="M177.6,56.53,188,51.91a9.06,9.06,0,0,1,2.44-.68,31.87,31.87,0,0,1,3.9-.32c1.32,0,2.61,0,3.88.06a20.38,20.38,0,0,0,3.39-.09,6,6,0,0,0,1.62-.42l-10.36,4.62a6,6,0,0,1-1.62.42,20.38,20.38,0,0,1-3.39.09c-1.27-.07-2.56-.09-3.88-.06a31.86,31.86,0,0,0-3.9.31,9.45,9.45,0,0,0-2.44.69" transform="translate(-35.79)"/></g></g></g><g class="cls-2"><g class="cls-82"><g class="cls-2"><path class="cls-10" d="M203.41,75.94l10.36-4.61a10.57,10.57,0,0,0,.88,3.46l-10.36,4.62a10.64,10.64,0,0,1-.88-3.47" transform="translate(-35.79)"/></g></g></g><g class="cls-2"><g class="cls-83"><g class="cls-2"><path class="cls-10" d="M203.15,71.25l10.36-4.61c0,1.62.1,3.18.26,4.69l-10.36,4.61a44.22,44.22,0,0,1-.26-4.69" transform="translate(-35.79)"/></g></g></g><polygon class="cls-10" points="167.28 52.59 177.64 47.98 177.72 66.64 167.36 71.25 167.28 52.59"/><g class="cls-2"><g class="cls-84"><g class="cls-2"><path class="cls-10" d="M179.56,40.94l10.36-4.61a12.27,12.27,0,0,1,4.23-1,24.45,24.45,0,0,1,5.26.24,35.4,35.4,0,0,1,4.87,1.16,16.1,16.1,0,0,1,4.5,2.2,11.66,11.66,0,0,1,3.34,3.61A10.47,10.47,0,0,1,213.43,48l-10.36,4.61a10.46,10.46,0,0,0-1.31-5.44,11.66,11.66,0,0,0-3.34-3.61,16.4,16.4,0,0,0-4.5-2.21,34.27,34.27,0,0,0-4.87-1.15,23.23,23.23,0,0,0-5.26-.24,12.27,12.27,0,0,0-4.23,1" transform="translate(-35.79)"/></g></g></g><path class="cls-14" d="M203.41,75.94a10.64,10.64,0,0,0,.88,3.47L195.42,78c-.16-.58-.3-1.16-.41-1.76s-.17-1.2-.22-1.8a9.1,9.1,0,0,1-4.91,2.62,17.3,17.3,0,0,1-5.79,0,15.44,15.44,0,0,1-4.25-1.3,11.57,11.57,0,0,1-3.46-2.49,11.08,11.08,0,0,1-2.32-3.69,13.63,13.63,0,0,1-.85-4.92,10.68,10.68,0,0,1,.93-4.88,7.07,7.07,0,0,1,2.46-2.76A8.78,8.78,0,0,1,180,55.84a31.86,31.86,0,0,1,3.9-.31c1.32,0,2.61,0,3.88.06a20.38,20.38,0,0,0,3.39-.09,4.66,4.66,0,0,0,2.33-.85,2.4,2.4,0,0,0,.79-2.19,6.25,6.25,0,0,0-.47-2.61,4.61,4.61,0,0,0-1.24-1.65,5.32,5.32,0,0,0-1.78-1,15.27,15.27,0,0,0-2.19-.52,5.48,5.48,0,0,0-4.06.61c-1,.67-1.55,2-1.71,3.89l-8.74-1.39a11.06,11.06,0,0,1,1.51-5.51,8.89,8.89,0,0,1,3.44-3.13,11.88,11.88,0,0,1,4.7-1.23,23.23,23.23,0,0,1,5.26.24,34.27,34.27,0,0,1,4.87,1.15,16.4,16.4,0,0,1,4.5,2.21,11.66,11.66,0,0,1,3.34,3.61,10.46,10.46,0,0,1,1.31,5.44l.08,18.66A44.22,44.22,0,0,0,203.41,75.94Zm-9-12V60.3a3.14,3.14,0,0,1-1.39.64,11.78,11.78,0,0,1-1.78.24c-.63,0-1.3,0-2,0s-1.39,0-2.09,0a12.54,12.54,0,0,0-1.94.24,4.84,4.84,0,0,0-1.66.68,3.46,3.46,0,0,0-1.13,1.31,4.79,4.79,0,0,0-.43,2.22,5.91,5.91,0,0,0,.44,2.29,4.84,4.84,0,0,0,1.18,1.61,5.77,5.77,0,0,0,1.73,1,11,11,0,0,0,2,.53,6.57,6.57,0,0,0,4-.34,4.83,4.83,0,0,0,2.08-2,6.86,6.86,0,0,0,.82-2.61,18.6,18.6,0,0,0,.15-2.2" transform="translate(-35.79)"/></g><g class="cls-2"><g class="cls-2"><g class="cls-85"><g class="cls-2"><path class="cls-10" d="M232.54,79.31l10.36-4.62a8,8,0,0,1-2.9,3l-10.36,4.62a8,8,0,0,0,2.9-3" transform="translate(-35.79)"/><path class="cls-9" d="M229.64,82.35,240,77.73c-.21.12-.42.23-.64.33L229,82.67c.22-.1.43-.2.64-.32" transform="translate(-35.79)"/></g></g></g><g class="cls-2"><g class="cls-86"><g class="cls-2"><path class="cls-9" d="M221.48,53.59,231.84,49l-.18.09a3.07,3.07,0,0,0-.31.17L221,53.84l.31-.16.18-.09" transform="translate(-35.79)"/><path class="cls-10" d="M221,53.84l10.36-4.61a5.59,5.59,0,0,0-2,2A10.47,10.47,0,0,0,228,54.69a21,21,0,0,0-.39,4.2,22,22,0,0,0,.45,4.23,14,14,0,0,0,1.4,3.93,10.6,10.6,0,0,0,2.41,3,7,7,0,0,0,3.49,1.56,6,6,0,0,0,3.38-.3L228.4,76a6,6,0,0,1-3.38.29,6.92,6.92,0,0,1-3.49-1.55,10.43,10.43,0,0,1-2.41-3,14.1,14.1,0,0,1-1.4-3.93,22,22,0,0,1-.45-4.23,20.88,20.88,0,0,1,.39-4.2,10.39,10.39,0,0,1,1.28-3.44,5.7,5.7,0,0,1,2.05-2" transform="translate(-35.79)"/></g></g></g><g class="cls-2"><g class="cls-87"><g class="cls-2"><path class="cls-10" d="M216.29,46.12l10.36-4.61.11,0a11,11,0,0,1,6.16-.59,13.11,13.11,0,0,1,5.39,2.21,12.37,12.37,0,0,1,4.05,4.63L232,52.32A12.53,12.53,0,0,0,228,47.69a13.09,13.09,0,0,0-5.39-2.2,11,11,0,0,0-6.16.58l-.11,0" transform="translate(-35.79)"/></g></g></g><polygon class="cls-13" points="196.21 52.32 206.57 47.7 206.69 47.73 196.33 52.34 196.21 52.32"/><path class="cls-14" d="M232.05,34.3l8.75,1.39L241,85.22l-8.31-1.32,0-4.57-.12,0a7.58,7.58,0,0,1-4,3.56,11.46,11.46,0,0,1-5.63.39,14.29,14.29,0,0,1-6.29-2.56,16.83,16.83,0,0,1-4.48-4.94,23.78,23.78,0,0,1-2.67-6.56,30.83,30.83,0,0,1-.92-7.35,25.67,25.67,0,0,1,.86-6.83A15.81,15.81,0,0,1,212,49.5a10.44,10.44,0,0,1,10.54-4,13.09,13.09,0,0,1,5.39,2.2A12.53,12.53,0,0,1,232,52.32l.12,0Zm.08,35.79a23.26,23.26,0,0,0,.35-4.24,24.64,24.64,0,0,0-.38-4.33,12.8,12.8,0,0,0-1.28-3.8,9.56,9.56,0,0,0-2.32-2.9,7.14,7.14,0,0,0-3.57-1.54,5.84,5.84,0,0,0-3.63.4,5.6,5.6,0,0,0-2.36,2.19,10.39,10.39,0,0,0-1.28,3.44,20.88,20.88,0,0,0-.39,4.2,22,22,0,0,0,.45,4.23,14.1,14.1,0,0,0,1.4,3.93,10.43,10.43,0,0,0,2.41,3A6.92,6.92,0,0,0,225,76.24a5.73,5.73,0,0,0,3.6-.4,5.6,5.6,0,0,0,2.3-2.23,10.9,10.9,0,0,0,1.21-3.52" transform="translate(-35.79)"/><polygon class="cls-13" points="196.26 34.3 206.62 29.69 215.37 31.07 205.01 35.69 196.26 34.3"/><polygon class="cls-10" points="205.01 35.69 215.37 31.07 215.56 80.61 205.2 85.22 205.01 35.69"/></g><g class="cls-2"><g class="cls-2"><g class="cls-88"><g class="cls-2"><path class="cls-10" d="M502.21,133l10.36-4.61a4,4,0,0,0,1.31-.33l-10.36,4.61a3.77,3.77,0,0,1-1.31.33" transform="translate(-35.79)"/></g></g></g><g class="cls-2"><g class="cls-89"><g class="cls-2"><path class="cls-10" d="M511.79,128.11l10.36-4.61a11.2,11.2,0,0,1-.75,4.21,9.26,9.26,0,0,1-2,3.11,9,9,0,0,1-1.68,1.27l-10.36,4.61a8.63,8.63,0,0,0,1.68-1.27,9.22,9.22,0,0,0,2.05-3.1,11.22,11.22,0,0,0,.75-4.22" transform="translate(-35.79)"/><path class="cls-9" d="M507.31,136.7l10.36-4.61q-.4.22-.84.42l-10.36,4.62a8.29,8.29,0,0,0,.84-.43" transform="translate(-35.79)"/></g></g></g><path class="cls-14" d="M511.75,117.43l0,10.68a11.22,11.22,0,0,1-.75,4.22,9.22,9.22,0,0,1-2.05,3.1,8.72,8.72,0,0,1-3,1.91,11.27,11.27,0,0,1-3.72.7l0-5a3.86,3.86,0,0,0,1.75-.55,5.44,5.44,0,0,0,1.44-1.27,5.33,5.33,0,0,0,.92-1.79,6.67,6.67,0,0,0,.23-2.15l-4.43-.7,0-10.68Z" transform="translate(-35.79)"/><polygon class="cls-10" points="475.95 117.43 486.31 112.81 486.36 123.5 476 128.11 475.95 117.43"/><polygon class="cls-13" points="466.29 115.9 476.65 111.28 486.31 112.81 475.95 117.43 466.29 115.9"/></g><g class="cls-2"><g class="cls-2"><g class="cls-90"><g class="cls-2"><path class="cls-9" d="M95.55,110.67l10.36-4.62-.25.12-.24.13-10.36,4.62.24-.13.25-.12" transform="translate(-35.79)"/><path class="cls-10" d="M95.06,110.92l10.36-4.62a6,6,0,0,0-2.12,2.1,9.75,9.75,0,0,0-1.25,3.48,22.71,22.71,0,0,0-.35,4.17,24.16,24.16,0,0,0,.38,4.25,13.72,13.72,0,0,0,1.28,3.88,9.15,9.15,0,0,0,2.38,3,7.62,7.62,0,0,0,3.7,1.55,6.3,6.3,0,0,0,3.61-.32L102.69,133a6.3,6.3,0,0,1-3.61.33,7.63,7.63,0,0,1-3.7-1.56,9,9,0,0,1-2.38-3,13.72,13.72,0,0,1-1.28-3.88,24.25,24.25,0,0,1-.38-4.25,22.9,22.9,0,0,1,.35-4.18A9.69,9.69,0,0,1,92.94,113a5.84,5.84,0,0,1,2.12-2.1" transform="translate(-35.79)"/></g></g></g><g class="cls-2"><g class="cls-91"><g class="cls-2"><path class="cls-10" d="M114.34,116.51l10.36-4.62a26.28,26.28,0,0,1,1.2,8,22.69,22.69,0,0,1-1.14,7.59,14.32,14.32,0,0,1-3.3,5.4,11.21,11.21,0,0,1-2.31,1.76l-10.36,4.62a11.57,11.57,0,0,0,2.31-1.76,14.29,14.29,0,0,0,3.3-5.41,22.59,22.59,0,0,0,1.14-7.58,26.24,26.24,0,0,0-1.2-8" transform="translate(-35.79)"/><path class="cls-9" d="M108.79,139.25l10.36-4.62a10.32,10.32,0,0,1-1.1.56l-10.36,4.62c.38-.17.75-.36,1.1-.56" transform="translate(-35.79)"/></g></g></g><path class="cls-14" d="M114.34,116.51a26.24,26.24,0,0,1,1.2,8,22.59,22.59,0,0,1-1.14,7.58,14.29,14.29,0,0,1-3.3,5.41,11.67,11.67,0,0,1-5.19,2.95,16,16,0,0,1-6.8.24,18.69,18.69,0,0,1-6.78-2.39,18.26,18.26,0,0,1-5.19-4.6,21,21,0,0,1-3.35-6.45,26,26,0,0,1-1.2-8,22.62,22.62,0,0,1,1.14-7.62,13.87,13.87,0,0,1,3.3-5.44,11.84,11.84,0,0,1,5.16-3A15.31,15.31,0,0,1,99,103,18.63,18.63,0,0,1,111,110,21.1,21.1,0,0,1,114.34,116.51Zm-7.9,10.74a22.39,22.39,0,0,0,.35-4.14,24.79,24.79,0,0,0-.38-4.29,13.35,13.35,0,0,0-1.28-3.87,9.47,9.47,0,0,0-2.41-3A7.57,7.57,0,0,0,99,110.37a5.5,5.5,0,0,0-6,2.65,9.69,9.69,0,0,0-1.25,3.47,22.9,22.9,0,0,0-.35,4.18,24.25,24.25,0,0,0,.38,4.25A13.72,13.72,0,0,0,93,128.8a9,9,0,0,0,2.38,3,7.63,7.63,0,0,0,3.7,1.56,6.2,6.2,0,0,0,3.72-.38,5.62,5.62,0,0,0,2.39-2.22,10.48,10.48,0,0,0,1.25-3.48" transform="translate(-35.79)"/><g class="cls-2"><g class="cls-92"><g class="cls-2"><path class="cls-10" d="M90.52,103.83l10.36-4.61a12.72,12.72,0,0,1,1.67-.61,15.46,15.46,0,0,1,6.77-.28,19,19,0,0,1,6.81,2.43,18.53,18.53,0,0,1,5.22,4.64,21.33,21.33,0,0,1,3.35,6.49l-10.36,4.62A21.1,21.1,0,0,0,111,110,18.63,18.63,0,0,0,99,103a15.31,15.31,0,0,0-6.77.28,12.69,12.69,0,0,0-1.67.6" transform="translate(-35.79)"/></g></g></g></g><g class="cls-2"><polygon class="cls-10" points="94.15 125.88 104.51 121.26 104.58 140.06 94.22 144.68 94.15 125.88"/><polygon class="cls-13" points="93.67 113.74 104.03 109.12 104.21 109.15 93.85 113.77 93.67 113.74"/><g class="cls-2"><g class="cls-93"><g class="cls-2"><path class="cls-9" d="M133.09,117l10.37-4.61a2.69,2.69,0,0,0-.38.19l-10.36,4.61.37-.19" transform="translate(-35.79)"/><path class="cls-10" d="M132.72,117.17l10.36-4.61a4,4,0,0,0-1.21,1.08c-1.06,1.43-1.58,4-1.57,7.62l-10.36,4.62c0-3.66.51-6.19,1.57-7.62a4,4,0,0,1,1.21-1.09" transform="translate(-35.79)"/></g></g></g><polygon class="cls-13" points="85.33 107.43 95.69 102.81 104.01 104.13 93.65 108.74 85.33 107.43"/><polygon class="cls-10" points="93.65 108.74 104.01 104.13 104.03 109.12 93.67 113.74 93.65 108.74"/><g class="cls-2"><g class="cls-94"><g class="cls-2"><path class="cls-10" d="M133.54,110.07l10.36-4.61.4-.17a10.32,10.32,0,0,1,5.41-.56l-10.36,4.61a10.31,10.31,0,0,0-5.41.57l-.4.16" transform="translate(-35.79)"/></g></g></g><polygon class="cls-10" points="115.26 125.96 125.62 121.35 125.71 143.41 115.35 148.02 115.26 125.96"/><g class="cls-2"><g class="cls-95"><g class="cls-2"><path class="cls-10" d="M139.35,109.34l10.36-4.61a15.06,15.06,0,0,1,5.76,2,11,11,0,0,1,3.56,3.55,14.19,14.19,0,0,1,1.83,4.93,33.68,33.68,0,0,1,.55,6.16L151.05,126a33.57,33.57,0,0,0-.55-6.15,14.52,14.52,0,0,0-1.83-4.94,11,11,0,0,0-3.56-3.54,14.9,14.9,0,0,0-5.76-2" transform="translate(-35.79)"/></g></g></g><path class="cls-14" d="M139.35,109.34a14.9,14.9,0,0,1,5.76,2,11,11,0,0,1,3.56,3.54,14.52,14.52,0,0,1,1.83,4.94,33.57,33.57,0,0,1,.55,6.15l.09,22.06-8.75-1.38-.08-20.26a15.14,15.14,0,0,0-1.26-6.82,5.58,5.58,0,0,0-4.38-2.88c-2.38-.37-4.1.15-5.16,1.58s-1.59,4-1.57,7.62l.07,18.8-8.74-1.39-.14-35.86,8.31,1.31,0,5,.19,0a8.34,8.34,0,0,1,4.29-3.86A10.31,10.31,0,0,1,139.35,109.34Z" transform="translate(-35.79)"/></g><g class="cls-2"><polygon class="cls-10" points="130.67 131.66 141.03 127.05 141.1 145.85 130.74 150.46 130.67 131.66"/><polygon class="cls-13" points="130.19 119.52 140.55 114.91 140.74 114.94 130.37 119.55 130.19 119.52"/><g class="cls-2"><g class="cls-96"><g class="cls-2"><path class="cls-9" d="M169.62,122.77,180,118.15c-.13.06-.26.12-.38.19L169.24,123a2.69,2.69,0,0,1,.38-.19" transform="translate(-35.79)"/><path class="cls-10" d="M169.24,123l10.36-4.62a3.92,3.92,0,0,0-1.21,1.09q-1.59,2.13-1.57,7.62l-10.36,4.61c0-3.66.51-6.19,1.57-7.62a4,4,0,0,1,1.21-1.08" transform="translate(-35.79)"/></g></g></g><polygon class="cls-13" points="121.86 113.21 132.22 108.59 140.53 109.91 130.17 114.53 121.86 113.21"/><polygon class="cls-10" points="130.17 114.53 140.53 109.91 140.55 114.91 130.19 119.52 130.17 114.53"/><g class="cls-2"><g class="cls-97"><g class="cls-2"><path class="cls-10" d="M170.06,115.86l10.36-4.62.4-.16a10.33,10.33,0,0,1,5.41-.57l-10.36,4.62a10.43,10.43,0,0,0-5.41.56l-.4.17" transform="translate(-35.79)"/></g></g></g><polygon class="cls-10" points="151.78 131.75 162.14 127.13 162.23 149.19 151.87 153.81 151.78 131.75"/><g class="cls-2"><g class="cls-98"><g class="cls-2"><path class="cls-10" d="M175.87,115.13l10.36-4.62a15,15,0,0,1,5.77,2,11,11,0,0,1,3.55,3.54,14.24,14.24,0,0,1,1.83,4.94,32.71,32.71,0,0,1,.55,6.15l-10.36,4.62a33.68,33.68,0,0,0-.55-6.16,14.19,14.19,0,0,0-1.83-4.93,10.92,10.92,0,0,0-3.55-3.54,15,15,0,0,0-5.77-2" transform="translate(-35.79)"/></g></g></g><path class="cls-14" d="M175.87,115.13a15,15,0,0,1,5.77,2,10.92,10.92,0,0,1,3.55,3.54,14.19,14.19,0,0,1,1.83,4.93,33.68,33.68,0,0,1,.55,6.16l.09,22.06-8.75-1.39-.08-20.25a15.24,15.24,0,0,0-1.25-6.82,5.57,5.57,0,0,0-4.39-2.88c-2.38-.38-4.1.15-5.16,1.57s-1.58,4-1.57,7.62l.07,18.8-8.74-1.38-.14-35.87,8.31,1.32,0,5,.19,0a8.43,8.43,0,0,1,4.29-3.86A10.43,10.43,0,0,1,175.87,115.13Z" transform="translate(-35.79)"/></g><g class="cls-2"><g class="cls-2"><g class="cls-99"><g class="cls-2"><path class="cls-10" d="M201.45,140.46l10.36-4.61c.14,3.21.87,5.63,2.19,7.28a8.7,8.7,0,0,0,5.67,3,6.71,6.71,0,0,0,3.86-.4l-10.36,4.62a6.8,6.8,0,0,1-3.86.4,8.71,8.71,0,0,1-5.67-3q-2-2.46-2.19-7.28" transform="translate(-35.79)"/></g></g></g><g class="cls-2"><g class="cls-100"><g class="cls-2"><path class="cls-9" d="M205,128.06l10.36-4.62c-.2.09-.39.19-.57.29l-10.36,4.62a3.81,3.81,0,0,1,.57-.29" transform="translate(-35.79)"/><path class="cls-10" d="M204.46,128.35l10.36-4.62a5.06,5.06,0,0,0-1.48,1.27,6.29,6.29,0,0,0-1.16,2.31,11.93,11.93,0,0,0-.39,2.29l-10.36,4.62a12,12,0,0,1,.39-2.3,6.45,6.45,0,0,1,1.16-2.31,5.18,5.18,0,0,1,1.48-1.26" transform="translate(-35.79)"/></g></g></g><polygon class="cls-13" points="165.64 134.22 176 129.6 190.22 131.86 179.86 136.47 165.64 134.22"/><g class="cls-2"><g class="cls-101"><g class="cls-2"><path class="cls-10" d="M223.89,148.45l10.36-4.61q-1.81,6.12-5.59,8.3l-10.36,4.62c2.52-1.46,4.38-4.22,5.59-8.31" transform="translate(-35.79)"/><path class="cls-9" d="M218.3,156.76l10.36-4.62,0,0c-.32.18-.65.35-1,.5l-10.36,4.61a9.18,9.18,0,0,0,1-.5l0,0" transform="translate(-35.79)"/></g></g></g><polygon class="cls-13" points="180.4 147.24 190.76 142.62 198.46 143.84 188.1 148.45 180.4 147.24"/><g class="cls-2"><g class="cls-102"><g class="cls-2"><path class="cls-10" d="M223.78,136l10.36-4.62a29.45,29.45,0,0,1,.65,8.08l-10.36,4.61a29.38,29.38,0,0,0-.65-8.07" transform="translate(-35.79)"/></g></g></g><g class="cls-2"><g class="cls-103"><g class="cls-2"><path class="cls-10" d="M201,121.25l10.36-4.62q.62-.27,1.26-.48a13.92,13.92,0,0,1,6.61-.41,15.8,15.8,0,0,1,7.09,2.89,18.62,18.62,0,0,1,5,5.54,24.29,24.29,0,0,1,2.83,7.24L223.78,136a24.35,24.35,0,0,0-2.83-7.25,18.58,18.58,0,0,0-5-5.53,15.68,15.68,0,0,0-7.09-2.89,13.92,13.92,0,0,0-6.61.4c-.43.15-.85.31-1.26.49" transform="translate(-35.79)"/></g></g></g><path class="cls-14" d="M223.78,136a29.38,29.38,0,0,1,.65,8.07l-23-3.64q.21,4.81,2.19,7.28a8.71,8.71,0,0,0,5.67,3,6.42,6.42,0,0,0,4.55-.77,4.79,4.79,0,0,0,2.33-2.79l7.7,1.22q-1.83,6.17-5.63,8.33a13.75,13.75,0,0,1-9.23,1.31,18.49,18.49,0,0,1-6.78-2.42,17.8,17.8,0,0,1-5.12-4.66,21.92,21.92,0,0,1-3.26-6.48,26.38,26.38,0,0,1-1.17-7.81,21.65,21.65,0,0,1,1.14-7.31,14.78,14.78,0,0,1,3.3-5.47,12.7,12.7,0,0,1,5.13-3.18,13.92,13.92,0,0,1,6.61-.4,15.68,15.68,0,0,1,7.09,2.89,18.58,18.58,0,0,1,5,5.53A24.35,24.35,0,0,1,223.78,136Zm-22.35-1.81,14.23,2.25a14.23,14.23,0,0,0-2.21-6,6.9,6.9,0,0,0-4.78-2.7,6.38,6.38,0,0,0-3.48.25,5.33,5.33,0,0,0-2.21,1.62,6.45,6.45,0,0,0-1.16,2.31,12,12,0,0,0-.39,2.3" transform="translate(-35.79)"/></g><g class="cls-2"><g class="cls-2"><g class="cls-104"><g class="cls-2"><path class="cls-9" d="M241.69,133.75l10.36-4.62c-.14.06-.26.13-.39.2L241.3,134a2.87,2.87,0,0,1,.39-.2" transform="translate(-35.79)"/><path class="cls-10" d="M241.3,134l10.36-4.62,0,0a6.43,6.43,0,0,0-2.3,2.41,11,11,0,0,0-1.25,3.54,21.55,21.55,0,0,0-.35,4,22.68,22.68,0,0,0,.39,4,15.3,15.3,0,0,0,1.21,3.83,9.55,9.55,0,0,0,2.26,3,6.63,6.63,0,0,0,3.45,1.58,6.2,6.2,0,0,0,3.53-.31l-10.36,4.62a6.2,6.2,0,0,1-3.53.31,6.64,6.64,0,0,1-3.45-1.59,9.4,9.4,0,0,1-2.26-3,15.25,15.25,0,0,1-1.21-3.84,21.86,21.86,0,0,1,0-8,11.14,11.14,0,0,1,1.25-3.55,6.4,6.4,0,0,1,2.3-2.4l.05,0" transform="translate(-35.79)"/></g></g></g><g class="cls-2"><g class="cls-105"><g class="cls-2"><path class="cls-10" d="M236.66,126.88,247,122.27a12.25,12.25,0,0,1,1.24-.48,14.72,14.72,0,0,1,6.89-.36L244.79,126a14.59,14.59,0,0,0-6.89.37,11.37,11.37,0,0,0-1.24.47" transform="translate(-35.79)"/></g></g></g><polygon class="cls-13" points="215.8 150.21 226.16 145.59 234.6 146.93 224.24 151.54 215.8 150.21"/><g class="cls-2"><g class="cls-106"><g class="cls-2"><path class="cls-10" d="M260,151.54l10.36-4.61q-.84,7-4.88,10.11a11.69,11.69,0,0,1-1.19.79L254,162.45a10.31,10.31,0,0,0,1.19-.8c2.7-2.06,4.32-5.44,4.88-10.11" transform="translate(-35.79)"/><path class="cls-9" d="M254,162.45l10.36-4.62a8.68,8.68,0,0,1-1,.51L253,163a10.6,10.6,0,0,0,1-.51" transform="translate(-35.79)"/></g></g></g><path class="cls-14" d="M244.79,126a20,20,0,0,1,5.45,1.7,17.19,17.19,0,0,1,4.69,3.27,16.55,16.55,0,0,1,3.38,4.77,16.79,16.79,0,0,1,1.5,6.23l-8.56-1.36q-.9-6.32-6.49-7.19a5.08,5.08,0,0,0-3.51.52,6.4,6.4,0,0,0-2.3,2.4,11.14,11.14,0,0,0-1.25,3.55,21.86,21.86,0,0,0,0,8,15.25,15.25,0,0,0,1.21,3.84,9.4,9.4,0,0,0,2.26,3,6.64,6.64,0,0,0,3.45,1.59c2.1.33,3.7-.07,4.83-1.21a8.3,8.3,0,0,0,2.1-5l8.44,1.33c-.56,4.67-2.18,8.05-4.88,10.11s-6.17,2.77-10.4,2.1a17.67,17.67,0,0,1-6.56-2.39,18.48,18.48,0,0,1-5.1-4.58,21.61,21.61,0,0,1-3.28-6.31,24.12,24.12,0,0,1-1.2-7.58,24.91,24.91,0,0,1,1-7.56,14.71,14.71,0,0,1,3.15-5.67,11.63,11.63,0,0,1,5.1-3.25A14.59,14.59,0,0,1,244.79,126Z" transform="translate(-35.79)"/><g class="cls-2"><g class="cls-107"><g class="cls-2"><path class="cls-10" d="M244.79,126l10.36-4.61a20,20,0,0,1,5.45,1.69,17,17,0,0,1,4.69,3.28,16.37,16.37,0,0,1,3.38,4.76,16.83,16.83,0,0,1,1.5,6.23L259.81,142a16.79,16.79,0,0,0-1.5-6.23,16.55,16.55,0,0,0-3.38-4.77,17.19,17.19,0,0,0-4.69-3.27,20,20,0,0,0-5.45-1.7" transform="translate(-35.79)"/></g></g></g></g><g class="cls-2"><polygon class="cls-13" points="226.12 129.73 236.48 125.11 241.78 125.95 231.42 130.56 226.12 129.73"/><g class="cls-2"><g class="cls-108"><g class="cls-2"><path class="cls-10" d="M276.05,156.3l10.36-4.62a5.93,5.93,0,0,0,.75,3.45,4.6,4.6,0,0,0,3,1.3c.5.08,1,.13,1.42.16s.88,0,1.29,0l-10.36,4.62q-.62,0-1.29,0c-.46,0-.92-.07-1.42-.15a4.65,4.65,0,0,1-3-1.3,6,6,0,0,1-.75-3.45" transform="translate(-35.79)"/></g></g></g><polygon class="cls-10" points="246.68 161.2 257.04 156.58 257.07 164.21 246.71 168.83 246.68 161.2"/><polygon class="cls-10" points="240.19 138.54 250.55 133.92 250.62 151.68 240.26 156.3 240.19 138.54"/><polygon class="cls-13" points="231.38 119.81 241.74 115.19 250.48 116.58 240.12 121.2 231.38 119.81"/><polygon class="cls-10" points="240.12 121.2 250.48 116.58 250.52 127.33 240.16 131.95 240.12 121.2"/><polygon class="cls-10" points="246.57 132.96 256.93 128.35 256.95 134.94 246.59 139.56 246.57 132.96"/><polygon class="cls-13" points="240.16 131.95 250.52 127.33 256.93 128.35 246.57 132.96 240.16 131.95"/><path class="cls-14" d="M275.91,121.2,276,132l6.41,1,0,6.59-6.41-1,.07,17.76a6,6,0,0,0,.75,3.45,4.65,4.65,0,0,0,3,1.3c.5.08,1,.12,1.42.15s.88,0,1.29,0l0,7.63a19.64,19.64,0,0,1-2.46-.11c-.9-.1-1.79-.22-2.65-.35a25.19,25.19,0,0,1-3.85-.92,10.13,10.13,0,0,1-3.21-1.73,7.7,7.7,0,0,1-2.19-2.91,11.07,11.07,0,0,1-.82-4.5l-.09-21.15-5.29-.84,0-6.59,5.3.83,0-10.75Z" transform="translate(-35.79)"/></g><g class="cls-2"><polygon class="cls-14" points="486.61 196.15 486.65 206.83 476.98 205.3 476.94 194.62 486.61 196.15"/><polygon class="cls-10" points="486.61 196.15 496.97 191.53 497.01 202.22 486.65 206.83 486.61 196.15"/><polygon class="cls-13" points="476.94 194.62 487.3 190 496.97 191.53 486.61 196.15 476.94 194.62"/></g></g></g></svg>