<?xml version="1.0" encoding="utf-8"?>
<!-- Generator: Adobe Illustrator 25.3.1, SVG Export Plug-In . SVG Version: 6.00 Build 0)  -->
<svg version="1.1" id="レイヤー_1" xmlns="http://www.w3.org/2000/svg" xmlns:xlink="http://www.w3.org/1999/xlink" x="0px"
	 y="0px" viewBox="0 0 929.7 173" style="enable-background:new 0 0 929.7 173;" xml:space="preserve">
<style type="text/css">
	.st0{fill:#FF2B06;}
</style>
<path class="st0" d="M10.6,152.1L3,141.2h7.2l4.1,6l4-6h7L17.7,152l8.5,12.2H19l-4.8-7.2l-4.8,7.2H2.3L10.6,152.1z"/>
<path d="M56.2,150.6H33.7v-4.8h22.5V150.6z M56.2,160.2H33.7v-4.8h22.5V160.2z"/>
<path d="M73.4,137.7h-6.3v-5.2h6.3V137.7z M67.1,141.2h6.3v23h-6.3V141.2z"/>
<path d="M77.5,141.2h6v3.2h0.1c1.5-2.4,4.2-3.8,7-3.8c6.7,0,8.4,3.8,8.4,9.5v14.2h-6.3v-13c0-3.8-1.1-5.6-4.1-5.6
	c-3.4,0-4.9,1.9-4.9,6.6v12.1h-6.3V141.2z"/>
<path d="M119.4,161.3L119.4,161.3c-1.5,2.5-4.1,3.6-7.1,3.6c-6.9,0-10.3-6-10.3-12.3c0-6.2,3.4-11.9,10.2-11.9
	c2.7-0.1,5.3,1.2,6.9,3.4l0,0v-11.6h6.3v31.8h-6L119.4,161.3z M113.9,145.4c-4.1,0-5.6,3.6-5.6,7.4c0,3.6,1.7,7.4,5.6,7.4
	c4.2,0,5.4-3.6,5.4-7.4S118,145.4,113.9,145.4z"/>
<path d="M134.5,154.3c0.2,4,2.1,5.8,5.6,5.8c2.5,0,4.6-1.6,5-3h5.6c-1.8,5.4-5.6,7.8-10.8,7.8c-7.2,0-11.8-5-11.8-12.1
	c0-6.9,4.8-12.1,11.8-12.1c7.8,0,11.6,6.6,11.2,13.7L134.5,154.3z M144.8,150.3c-0.6-3.2-2-4.9-5-4.9c-2.8-0.1-5.1,2-5.2,4.7
	c0,0.1,0,0.1,0,0.2H144.8z"/>
<path d="M154,141.2h6v2.9h0.1c1.5-2.3,4.1-3.7,6.9-3.6c7.2,0,10.5,5.8,10.5,12.4c0,6.1-3.4,11.9-10.1,11.9c-2.7,0.1-5.3-1.2-6.9-3.5
	h-0.1v10.9H154V141.2z M171.1,152.8c0-3.6-1.5-7.4-5.5-7.4s-5.5,3.7-5.5,7.4s1.4,7.3,5.5,7.3S171.1,156.6,171.1,152.8L171.1,152.8z"
	/>
<path d="M185.5,154.3c0.2,4,2.1,5.8,5.6,5.8c2.5,0,4.6-1.6,5-3h5.6c-1.8,5.4-5.6,7.8-10.8,7.8c-7.2,0-11.8-5-11.8-12.1
	c0-6.9,4.8-12.1,11.8-12.1c7.8,0,11.6,6.6,11.2,13.7L185.5,154.3z M195.8,150.3c-0.6-3.2-2-4.9-5-4.9c-2.8-0.1-5.1,2-5.2,4.7
	c0,0.1,0,0.1,0,0.2H195.8z"/>
<path d="M204.9,141.2h6v3.2h0.1c1.5-2.4,4.2-3.8,7-3.8c6.7,0,8.4,3.8,8.4,9.5v14.2h-6.3v-13c0-3.8-1.1-5.6-4.1-5.6
	c-3.4,0-4.9,1.9-4.9,6.6v12.1h-6.3L204.9,141.2z"/>
<path d="M246.9,161.3L246.9,161.3c-1.6,2.5-4.1,3.6-7.1,3.6c-6.9,0-10.3-6-10.3-12.3c0-6.2,3.4-11.9,10.2-11.9
	c2.7-0.1,5.3,1.2,6.9,3.4l0,0v-11.6h6.3v31.8h-6L246.9,161.3z M241.3,145.4c-4.1,0-5.6,3.6-5.6,7.4c0,3.6,1.6,7.4,5.6,7.4
	c4.2,0,5.4-3.6,5.4-7.4S245.4,145.4,241.3,145.4z"/>
<path d="M261.9,154.3c0.2,4,2.1,5.8,5.7,5.8c2.5,0,4.6-1.6,5-3h5.6c-1.8,5.4-5.6,7.8-10.8,7.8c-7.2,0-11.8-5-11.8-12.1
	c0-6.9,4.8-12.1,11.8-12.1c7.8,0,11.6,6.6,11.2,13.7L261.9,154.3z M272.2,150.3c-0.6-3.2-2-4.9-5-4.9c-2.8-0.1-5.1,2-5.2,4.7
	c0,0.1,0,0.1,0,0.2H272.2z"/>
<path d="M281.4,141.2h6v3.2h0.1c1.5-2.4,4.2-3.8,7-3.8c6.7,0,8.4,3.8,8.4,9.5v14.2h-6.3v-13c0-3.8-1.1-5.6-4-5.6
	c-3.4,0-4.9,1.9-4.9,6.6v12.1h-6.3V141.2z"/>
<path d="M314.9,141.2h4.6v4.2h-4.6v11.4c0,2.1,0.5,2.7,2.7,2.7c0.7,0,1.3-0.1,2-0.2v4.9c-1.2,0.2-2.5,0.2-3.7,0.2
	c-3.9,0-7.3-0.9-7.3-5.5v-13.6h-3.8v-4.2h3.8v-6.9h6.3V141.2z"/>
<path d="M321.8,132.5h6.3v31.8h-6.3V132.5z"/>
<path d="M343.6,167.1c-1.4,3.7-3.6,5.2-7.9,5.2c-1.3,0-2.6-0.1-3.9-0.2v-5.2c1.2,0.1,2.5,0.2,3.7,0.2c2.2-0.2,2.9-2.5,2.2-4.3
	l-8.1-21.6h6.8l5.2,15.8h0.1l5-15.8h6.5L343.6,167.1z"/>
<path d="M377.1,140.6c7.2,0,11.9,4.8,11.9,12.1s-4.7,12.1-11.9,12.1s-11.9-4.8-11.9-12.1S369.9,140.6,377.1,140.6z M377.1,160.1
	c4.3,0,5.6-3.7,5.6-7.4s-1.3-7.4-5.6-7.4s-5.6,3.7-5.6,7.4S372.8,160.1,377.1,160.1z"/>
<path d="M391.4,141.2h6v4.3h0.1c1.3-2.9,4.1-4.9,7.4-4.9c0.5,0,0.9,0.1,1.4,0.2v5.9c-0.7-0.1-1.5-0.2-2.3-0.2
	c-4.6,0-6.2,3.3-6.2,7.4v10.4h-6.3L391.4,141.2z"/>
<path d="M429.9,162.8c0,3.8-1.3,10.2-11.9,10.2c-4.5,0-9.8-2.1-10.1-7.4h6.3c0.6,2.4,2.5,3.2,4.7,3.2c3.5,0,5.1-2.4,5.1-5.7v-3h-0.1
	c-1.5,2.3-4.1,3.7-6.9,3.6c-6.9,0-9.8-5.2-9.8-11.6c0-6,3.4-11.4,9.9-11.4c3,0,5.3,1,6.9,3.7h0.1v-3.1h6L429.9,162.8z M423.9,152.4
	c0-3.7-1.3-7.1-5.4-7.1c-3.6,0-5.1,3.1-5.1,6.6s1.2,6.9,5.1,6.9C422.1,158.8,423.9,155.7,423.9,152.4L423.9,152.4z"/>
<path d="M432.9,148.3c0.4-5.9,5.6-7.7,10.8-7.7c4.6,0,10.1,1,10.1,6.5v12c0,2.1,0.2,4.2,0.8,5.1h-6.4c-0.2-0.7-0.4-1.5-0.5-2.2
	c-2.1,2-4.9,3-7.7,2.9c-4.4,0-7.8-2.2-7.8-6.9c0-5.2,3.9-6.4,7.8-7s7.5-0.4,7.5-3s-1.9-3.1-4.1-3.1c-2.4,0-4,1-4.2,3.5L432.9,148.3z
	 M447.5,153c-1.1,0.9-3.3,1-5.3,1.3s-3.7,1.1-3.7,3.4s1.8,2.9,3.9,2.9c4.9,0,5.1-3.9,5.1-5.3V153z"/>
<path d="M457.9,141.2h6v3.2h0.1c1.5-2.4,4.2-3.8,7-3.8c6.7,0,8.4,3.8,8.4,9.5v14.2h-6.3v-13c0-3.8-1.1-5.6-4-5.6
	c-3.4,0-4.9,1.9-4.9,6.6v12.1h-6.3L457.9,141.2z"/>
<path d="M489,137.7h-6.3v-5.2h6.3V137.7z M482.7,141.2h6.3v23h-6.3V141.2z"/>
<path d="M491.6,159.5l12-13.5h-11.1v-4.8h19.4v4.8l-12,13.5h12.8v4.8h-21.1V159.5z"/>
<path d="M520.5,154.3c0.2,4,2.1,5.8,5.7,5.8c2.5,0,4.6-1.6,5-3h5.6c-1.8,5.4-5.6,7.8-10.8,7.8c-7.2,0-11.8-5-11.8-12.1
	c0-6.9,4.8-12.1,11.8-12.1c7.8,0,11.6,6.6,11.2,13.7L520.5,154.3z M530.8,150.3c-0.6-3.2-2-4.9-5-4.9c-2.8-0.1-5.1,2-5.2,4.7
	c0,0.1,0,0.1,0,0.2H530.8z"/>
<path d="M556.3,161.3L556.3,161.3c-1.6,2.5-4.1,3.6-7.1,3.6c-7,0-10.3-6-10.3-12.3c0-6.2,3.4-11.9,10.2-11.9
	c2.7-0.1,5.3,1.2,6.9,3.4l0,0v-11.5h6.3v31.8h-6L556.3,161.3z M550.8,145.4c-4.1,0-5.6,3.6-5.6,7.4c0,3.6,1.7,7.4,5.6,7.4
	c4.2,0,5.4-3.6,5.4-7.4S554.9,145.4,550.8,145.4L550.8,145.4z"/>
<path d="M585.4,138.3h-9.5v-5.9h26v5.9h-9.5v25.9h-7L585.4,138.3z"/>
<path d="M604.7,132.5h23.8v5.9h-16.8v6.8h15.4v5.4h-15.4v7.8h17.1v5.9h-24.1V132.5z"/>
<path d="M631.7,132.5h13.7c8.2,0,14.4,5.2,14.4,15.7c0,9.2-4.7,16.1-14.4,16.1h-13.7V132.5z M638.7,158.4h6.3c4,0,7.9-2.5,7.9-9.5
	c0-6.4-2.2-10.5-9.2-10.5h-5L638.7,158.4z"/>
<path d="M679.8,154.3c0.2,4,2.1,5.8,5.7,5.8c2.5,0,4.6-1.6,5-3h5.6c-1.8,5.4-5.6,7.8-10.8,7.8c-7.3,0-11.8-5-11.8-12.1
	c0-6.9,4.8-12.1,11.8-12.1c7.8,0,11.6,6.6,11.2,13.7L679.8,154.3z M690.1,150.3c-0.6-3.2-2-4.9-5-4.9c-2.8-0.1-5.1,2-5.2,4.7
	c0,0.1,0,0.1,0,0.2H690.1z"/>
<path d="M711.1,164.2h-7l-7.9-23h6.6l4.8,15.8h0.1l4.8-15.7h6.3L711.1,164.2z"/>
<path d="M725,154.3c0.2,4,2.1,5.8,5.7,5.8c2.5,0,4.6-1.6,5-3h5.6c-1.8,5.4-5.6,7.8-10.8,7.8c-7.3,0-11.8-5-11.8-12.1
	c0-6.9,4.8-12.1,11.8-12.1c7.8,0,11.6,6.6,11.2,13.7L725,154.3z M735.3,150.3c-0.6-3.2-2-4.9-5-4.9c-2.8-0.1-5.1,2-5.2,4.7
	c0,0.1,0,0.1,0,0.2H735.3z"/>
<path d="M744.4,141.2h6v3.2h0.1c1.5-2.4,4.2-3.8,7-3.8c6.7,0,8.4,3.8,8.4,9.5v14.2h-6.3v-13c0-3.8-1.1-5.6-4-5.6
	c-3.4,0-4.9,1.9-4.9,6.6v12.1h-6.3V141.2z"/>
<path d="M777.9,141.2h4.6v4.2h-4.6v11.4c0,2.1,0.5,2.7,2.7,2.7c0.7,0,1.3-0.1,2-0.2v4.9c-1.2,0.2-2.5,0.2-3.7,0.2
	c-3.9,0-7.3-0.9-7.3-5.5v-13.6h-3.8v-4.2h3.8v-6.9h6.3L777.9,141.2z"/>
<path class="st0" d="M29.6,27.3H0V0.2h91.9v27.1H62.2V106H29.6V27.3z"/>
<path class="st0" d="M96.9,0.2h89.2v27.1h-56.6v13.2h56.6v25.2h-56.6v13.2h56.6V106H96.9V0.2z"/>
<path class="st0" d="M191.6,0.2h53.5c35.3,0,47.7,26.1,47.7,52.8c0,32.5-17.2,53.1-54.1,53.1h-47.1V0.2z M224.2,78.9H237
	c20.3,0,23.3-16.5,23.3-26.4c0-6.7-2.1-25.2-25.6-25.2h-10.4V78.9z"/>
<path class="st0" d="M339.7,65.2l-10-16.5L320,65.2h-23.9l22.7-33.3L297,0h23.9l8.9,15.8L338.9,0h23.9l-21.8,31.9l22.7,33.3H339.7z"
	/>
<g>
	<path d="M473.4,0.7v12.6h-35.5V106h-14.4V13.2H388V0.7H473.4z"/>
	<path d="M476.2,81.9c0.4,4.3,1.5,7.6,3.3,9.9c3.3,4.2,9.1,6.2,17.3,6.2c4.5,0.1,9-0.9,12.9-3.1c3.6-1.9,5.7-5.6,5.6-9.6
		c0.1-3.2-1.6-6.1-4.4-7.5c-1.9-1.1-5.6-2.3-11.2-3.7l-10.4-2.6c-6.7-1.6-11.6-3.4-14.7-5.4c-5.6-3.5-8.5-8.3-8.5-14.5
		c-0.2-6.8,2.7-13.3,8-17.6c5.3-4.5,12.5-6.8,21.4-6.8c11.7,0,20.2,3.4,25.4,10.2c3.1,4,4.8,8.9,4.7,13.9h-12.3
		c-0.2-2.9-1.3-5.7-3.2-7.9c-3-3.4-8.3-5.1-15.8-5.1c-5,0-8.8,0.9-11.3,2.8c-2.5,1.6-3.9,4.4-3.9,7.4c0,3.3,1.7,6,5.1,8
		c2.7,1.5,5.6,2.5,8.6,3.2l8.7,2.1c9.5,2.2,15.8,4.4,19,6.5c5,3.3,7.5,8.5,7.5,15.6c0,6.8-2.8,13.2-7.9,17.7c-5.2,5-13.2,7.5-24,7.5
		c-11.6,0-19.8-2.6-24.6-7.8c-4.9-5.3-7.6-12.1-7.7-19.3L476.2,81.9z"/>
	<path d="M554.9,29.2v51c-0.1,3.3,0.5,6.6,1.8,9.6c2.2,4.6,6.4,6.9,12.5,6.9c8.8,0,14.7-4,17.9-12c1.7-4.3,2.6-10.3,2.6-17.8V29.2
		h12.9V106h-12.2l0.1-11.3c-1.6,2.8-3.6,5.3-6.1,7.4c-5,4.1-11.2,6.2-17.6,6c-10.7,0-18.1-3.7-22-11c-2.1-3.9-3.1-9.1-3.1-15.6V29.2
		H554.9z"/>
	<path d="M623.4,0.7h12.4v61.2l33.1-32.6h16.5l-29.5,28.6l31.2,48.2h-16.5l-24.2-39.1l-10.6,10.3V106h-12.4V0.7z"/>
	<path d="M710.1,29.2v51c-0.1,3.3,0.5,6.6,1.8,9.6c2.2,4.6,6.4,6.9,12.5,6.9c8.8,0,14.7-4,17.9-12c1.7-4.3,2.6-10.2,2.6-17.7V29.2
		h12.9V106h-12.2l0.2-11.3c-1.6,2.8-3.6,5.3-6.1,7.4c-5,4-11.2,6.2-17.6,6c-10.7,0-18.1-3.7-22-11c-2.1-3.9-3.2-9.2-3.2-15.7V29.2
		H710.1z"/>
	<path d="M777.8,0.3h12.5v38.2c5.4-7.2,14-11.5,23-11.3c9.6,0,17.4,3.3,23.4,9.9s9,16.3,9,29.1c0,12.1-2.9,22.2-8.8,30.3
		c-5.9,8-14.1,12.1-24.6,12.1c-5.3,0.2-10.5-1.3-14.8-4.2c-3-2.2-5.6-4.9-7.7-8v9.8h-11.9L777.8,0.3z M827.2,88.8
		c3.5-5.5,5.2-12.9,5.2-22c0-8.1-1.7-14.8-5.2-20.1c-3.5-5.3-8.6-8-15.4-8c-5.8,0-11.4,2.3-15.5,6.5c-4.4,4.4-6.7,11.5-6.7,21.5
		c0,7.2,0.9,13.1,2.7,17.6c3.4,8.5,9.8,12.7,19.1,12.7C818.4,97,823.7,94.3,827.2,88.8z"/>
	<path d="M901.7,59.5c3-0.4,5-1.6,6-3.7c0.7-1.6,1-3.3,0.9-5c0-4.4-1.6-7.6-4.7-9.6c-3.1-2-7.6-3-13.4-3c-6.7,0-11.5,1.8-14.3,5.5
		c-1.6,2-2.6,5-3.1,9H861c0.2-9.5,3.3-16.1,9.2-19.8c6.2-3.8,13.3-5.7,20.5-5.5c9,0,16.4,1.7,22,5.2s8.4,8.8,8.4,16.1v44.3
		c-0.1,1.1,0.2,2.3,0.8,3.2c0.5,0.8,1.7,1.2,3.5,1.2c0.6,0,1.2,0,1.9-0.1c0.7-0.1,1.5-0.2,2.3-0.3v9.5c-1.5,0.5-3,0.8-4.6,1.1
		c-1.4,0.2-2.9,0.2-4.3,0.2c-4.5,0-7.7-1.6-9.7-4.7c-1.2-2.2-2-4.6-2.2-7.1c-3.1,3.8-6.9,6.9-11.3,9c-5,2.6-10.6,3.9-16.3,3.8
		c-7.1,0-12.9-2.2-17.5-6.5c-4.5-4.2-6.9-10.1-6.8-16.2c0-7.1,2.2-12.6,6.7-16.5s10.3-6.3,17.5-7.2L901.7,59.5z M874.5,94.4
		c2.8,2.2,6.2,3.3,9.7,3.2c4.6,0,9.1-1.1,13.2-3.2c7.2-3.5,10.8-9.2,10.8-17.1V67c-1.9,1.1-3.9,2-6.1,2.5c-2.4,0.7-4.8,1.1-7.3,1.4
		l-7.8,1c-4.7,0.6-8.2,1.6-10.5,2.9c-4,2.2-6,5.8-6,10.7C870.3,89.1,871.8,92.3,874.5,94.4z"/>
</g>
</svg>
